<svg width="637" height="377" viewBox="0 0 637 377" fill="none" xmlns="http://www.w3.org/2000/svg">
<g clip-path="url(#clip0_1078_13476)">
<path d="M189.45 0.491699H66.0963V84.7067H189.45V0.491699Z" stroke="#EBEBEB" stroke-miterlimit="10"/>
<path d="M75.3282 5.50936C75.3282 6.8867 74.2479 7.96891 72.8729 7.96891C71.4979 7.96891 70.4176 6.8867 70.4176 5.50936C70.4176 4.13201 71.4979 3.0498 72.8729 3.0498C74.2479 3.0498 75.3282 4.13201 75.3282 5.50936Z" fill="#A6A6A6"/>
<path d="M85.444 5.50936C85.444 6.8867 84.3637 7.96891 82.9887 7.96891C81.6138 7.96891 80.5334 6.8867 80.5334 5.50936C80.5334 4.13201 81.6138 3.0498 82.9887 3.0498C84.3637 3.0498 85.444 4.13201 85.444 5.50936Z" fill="#EBEBEB"/>
<path d="M95.5598 5.50936C95.5598 6.8867 94.4794 7.96891 93.1045 7.96891C91.7295 7.96891 90.6492 6.8867 90.6492 5.50936C90.6492 4.13201 91.7295 3.0498 93.1045 3.0498C94.4794 3.0498 95.5598 4.13201 95.5598 5.50936Z" fill="#517BCC"/>
<path d="M66.0963 10.3301H189.548" stroke="#EBEBEB" stroke-miterlimit="10"/>
<path d="M620.304 79.3944C620.304 80.6733 621.384 81.7555 622.661 81.7555C623.938 81.7555 625.018 80.6733 625.018 79.3944C625.018 78.1154 623.938 77.0332 622.661 77.0332C621.384 77.1316 620.304 78.1154 620.304 79.3944Z" stroke="#EBEBEB" stroke-miterlimit="10"/>
<path d="M627.081 103.99C627.081 105.269 628.161 106.351 629.438 106.351C630.714 106.351 631.795 105.269 631.795 103.99C631.795 102.711 630.714 101.629 629.438 101.629C628.161 101.727 627.081 102.711 627.081 103.99Z" stroke="#EBEBEB" stroke-miterlimit="10"/>
<path d="M589.957 308.428V144.72" stroke="#EBEBEB" stroke-miterlimit="10"/>
<path d="M587.599 142.457C587.599 143.736 588.68 144.819 589.957 144.819C591.233 144.819 592.314 143.736 592.314 142.457C592.314 141.178 591.233 140.096 589.957 140.096C588.582 140.096 587.599 141.178 587.599 142.457Z" stroke="#EBEBEB" stroke-miterlimit="10"/>
<path d="M583.671 308.428V225.295L565.797 191.55V131.242" stroke="#EBEBEB" stroke-miterlimit="10"/>
<path d="M563.538 128.881C563.538 130.16 564.618 131.242 565.895 131.242C567.172 131.242 568.252 130.16 568.252 128.881C568.252 127.602 567.172 126.52 565.895 126.52C564.52 126.52 563.538 127.602 563.538 128.881Z" stroke="#EBEBEB" stroke-miterlimit="10"/>
<path d="M577.385 308.428V228.837L556.368 191.648V151.902" stroke="#EBEBEB" stroke-miterlimit="10"/>
<path d="M554.109 149.541C554.109 150.82 555.19 151.902 556.466 151.902C557.743 151.902 558.823 150.82 558.823 149.541C558.823 148.262 557.743 147.18 556.466 147.18C555.091 147.18 554.109 148.262 554.109 149.541Z" stroke="#EBEBEB" stroke-miterlimit="10"/>
<path d="M44.0969 308.428V243.889L17.7762 207.98V170.299" stroke="#EBEBEB" stroke-miterlimit="10"/>
<path d="M20.1333 167.938C20.1333 169.217 19.053 170.299 17.7763 170.299C16.4995 170.299 15.4192 169.217 15.4192 167.938C15.4192 166.659 16.4995 165.577 17.7763 165.577C19.1512 165.676 20.1333 166.659 20.1333 167.938Z" stroke="#EBEBEB" stroke-miterlimit="10"/>
<path d="M37.3204 308.428V248.218L11.0979 212.309V194.895" stroke="#EBEBEB" stroke-miterlimit="10"/>
<path d="M13.3567 192.534C13.3567 193.813 12.2764 194.895 10.9997 194.895C9.7229 194.895 8.64258 193.813 8.64258 192.534C8.64258 191.255 9.7229 190.173 10.9997 190.173C12.3746 190.271 13.3567 191.255 13.3567 192.534Z" stroke="#EBEBEB" stroke-miterlimit="10"/>
<path d="M50.5789 308.428V203.75" stroke="#EBEBEB" stroke-miterlimit="10"/>
<path d="M52.936 201.487C52.936 202.766 51.8556 203.848 50.5789 203.848C49.3021 203.848 48.2218 202.766 48.2218 201.487C48.2218 200.208 49.3021 199.125 50.5789 199.125C51.8556 199.125 52.936 200.208 52.936 201.487Z" stroke="#EBEBEB" stroke-miterlimit="10"/>
<path d="M56.8645 308.428V254.81L74.6408 221.065V160.756" stroke="#EBEBEB" stroke-miterlimit="10"/>
<path d="M76.9979 158.395C76.9979 159.674 75.9175 160.757 74.6408 160.757C73.364 160.757 72.2837 159.674 72.2837 158.395C72.2837 157.116 73.364 156.034 74.6408 156.034C76.0157 156.034 76.9979 157.116 76.9979 158.395Z" stroke="#EBEBEB" stroke-miterlimit="10"/>
<path d="M63.0518 308.428V258.351L84.069 221.163V181.417" stroke="#EBEBEB" stroke-miterlimit="10"/>
<path d="M86.4261 179.055C86.4261 180.334 85.3457 181.417 84.069 181.417C82.7922 181.417 81.7119 180.334 81.7119 179.055C81.7119 177.777 82.7922 176.694 84.069 176.694C85.444 176.694 86.4261 177.777 86.4261 179.055Z" stroke="#EBEBEB" stroke-miterlimit="10"/>
<path d="M623.84 65.0305L630.715 53.9133L627.375 51.8473C626.393 51.257 625.804 50.0764 625.902 48.8958C626 48.2071 626 47.6168 626 46.9282C626 45.7476 626.59 44.6654 627.572 44.0751L631.107 42.2058L624.92 30.6951L621.384 32.5644C620.402 33.1547 619.126 33.0563 618.143 32.3676C617.652 31.9741 617.063 31.6789 616.474 31.3838C615.492 30.7935 614.804 29.7113 614.804 28.5307L614.902 24.4971L602.037 24.3003L601.939 28.334C601.939 29.5145 601.153 30.4984 600.171 30.9903C599.876 31.0887 599.581 31.2854 599.287 31.3838C598.992 31.5806 598.698 31.6789 598.501 31.8757C597.519 32.466 596.242 32.466 595.26 31.8757L591.823 29.7113L584.948 40.8285L588.385 42.8945C589.367 43.4848 589.957 44.6654 589.859 45.846C589.76 46.5346 589.76 47.1249 589.76 47.8136C589.76 48.9942 589.171 50.0764 588.189 50.6667L584.653 52.5359L590.841 64.0466L594.376 62.1774C595.358 61.5871 596.635 61.6855 597.617 62.3741C598.108 62.7677 598.698 63.0628 599.287 63.358C600.269 63.9483 600.956 65.0305 600.956 66.211L600.858 70.2447L613.822 70.6382L613.92 66.6046C613.92 65.424 614.706 64.4402 615.688 63.9483C615.983 63.8499 616.277 63.6531 616.572 63.5547C616.867 63.358 617.161 63.2596 617.358 63.0628C618.34 62.4725 619.617 62.3741 620.599 63.0628L623.84 65.0305ZM612.84 56.7664C607.635 59.5211 601.251 57.5534 598.403 52.4376C595.653 47.2233 597.519 40.7301 602.724 37.9754C607.929 35.2207 614.411 37.1883 617.161 42.3042C620.01 47.5185 618.045 54.0117 612.84 56.7664Z" fill="#EBEBEB"/>
<path d="M26.0261 163.413L33.883 158.887L32.508 156.427C32.1152 155.739 32.1152 154.853 32.6062 154.165C32.9009 153.771 33.0973 153.378 33.2937 152.984C33.6866 152.295 34.374 151.804 35.258 151.804H38.0079V142.654H35.258C34.4723 142.654 33.6866 142.162 33.2937 141.473C33.0973 141.08 32.9009 140.686 32.6062 140.293C32.1152 139.604 32.1152 138.719 32.508 138.03L33.883 135.571L26.0261 131.045L24.6511 133.504C24.2583 134.193 23.4726 134.587 22.6869 134.587C22.4904 134.587 22.1958 134.587 21.9994 134.587C21.803 134.587 21.5083 134.587 21.3119 134.587C20.5262 134.587 19.7405 134.193 19.3477 133.504L17.9727 131.045L10.1158 135.571L11.4908 138.03C11.8836 138.719 11.8836 139.604 11.3925 140.293C11.0979 140.686 10.9015 141.08 10.7051 141.473C10.3122 142.162 9.62474 142.654 8.74083 142.654H5.8927V151.804H8.64262C9.42832 151.804 10.214 152.295 10.6069 152.984C10.8033 153.378 10.9997 153.771 11.2943 154.165C11.7854 154.853 11.7854 155.739 11.3925 156.427L10.0176 158.887L17.8745 163.413L19.2495 160.953C19.6423 160.264 20.428 159.871 21.2137 159.871C21.4101 159.871 21.7048 159.871 21.9012 159.871C22.0976 159.871 22.3922 159.871 22.5887 159.871C23.3744 159.871 24.16 160.264 24.5529 160.953L26.0261 163.413ZM21.9012 154.657C17.7763 154.657 14.4371 151.312 14.4371 147.18C14.4371 143.048 17.7763 139.703 21.9012 139.703C26.0261 139.703 29.3653 143.048 29.3653 147.18C29.3653 151.312 26.0261 154.657 21.9012 154.657Z" fill="#EBEBEB"/>
<path d="M583.769 72.9992L579.252 65.1286L576.796 66.506C576.109 66.8995 575.225 66.8995 574.537 66.4076C574.145 66.1124 573.752 65.9157 573.359 65.7189C572.671 65.3254 572.18 64.6367 572.18 63.7513V60.9966H563.047V63.7513C563.047 64.5383 562.556 65.3254 561.868 65.7189C561.475 65.9157 561.083 66.1124 560.69 66.4076C560.002 66.8995 559.118 66.8995 558.431 66.506L555.975 65.1286L551.458 72.9992L553.913 74.3765C554.601 74.7701 554.993 75.5571 554.993 76.3442C554.993 76.5409 554.993 76.8361 554.993 77.0329C554.993 77.2296 554.993 77.5248 554.993 77.7215C554.993 78.5086 554.601 79.2956 553.913 79.6892L551.458 81.0665L555.975 88.9371L558.431 87.5597C559.118 87.1662 560.002 87.1662 560.69 87.6581C561.083 87.9533 561.475 88.15 561.868 88.3468C562.556 88.7403 563.047 89.429 563.047 90.3144V93.0691H572.18V90.3144C572.18 89.5274 572.671 88.7403 573.359 88.3468C573.752 88.15 574.145 87.9533 574.537 87.6581C575.225 87.1662 576.109 87.1662 576.796 87.5597L579.252 88.9371L583.769 81.0665L581.314 79.6892C580.627 79.2956 580.234 78.5086 580.234 77.7215C580.234 77.5248 580.234 77.2296 580.234 77.0329C580.234 76.8361 580.234 76.5409 580.234 76.3442C580.234 75.5571 580.627 74.7701 581.314 74.3765L583.769 72.9992ZM575.029 77.1312C575.029 81.2633 571.689 84.6083 567.564 84.6083C563.44 84.6083 560.1 81.2633 560.1 77.1312C560.1 72.9992 563.44 69.6542 567.564 69.6542C571.689 69.6542 575.029 72.9992 575.029 77.1312Z" fill="#EBEBEB"/>
<path d="M46.9451 233.559C40.6596 220.671 29.6599 213.981 17.2853 217.719C4.9106 221.36 3.04458 238.675 12.2765 243.004C21.5084 247.332 30.7402 234.641 35.6508 231.985C40.4632 229.427 46.9451 233.559 46.9451 233.559Z" fill="#517BCC"/>
<path d="M53.0343 267.993C53.0343 266.418 52.9361 264.844 52.9361 263.369C52.8378 260.22 52.7396 257.171 52.6414 254.022C52.445 248.316 51.8557 242.708 49.4986 237.494C47.4362 232.772 43.9988 228.64 39.5793 225.983C37.9097 225 36.1419 224.213 34.3741 223.721C32.8027 222.048 30.4456 220.868 28.285 220.376C25.4368 219.687 22.4905 219.785 19.5441 220.179C19.4459 220.179 19.4459 220.376 19.5441 220.376C22.294 220.081 25.1422 220.179 27.7939 220.966C28.9724 221.261 30.0528 221.753 31.1331 222.245C31.8206 222.638 32.4098 223.032 33.0973 223.426C30.642 222.934 28.0885 222.934 25.535 223.524C24.6511 223.721 23.7672 224.016 22.8833 224.409C22.1958 224.213 21.5084 224.213 20.8209 224.213C19.937 224.213 19.0531 224.409 18.1692 224.606C16.4014 225.098 14.6335 225.885 13.0622 226.869C12.964 226.967 13.0622 227.066 13.1604 226.967C14.7318 226.082 16.4014 225.492 18.1692 225.098C19.0531 224.901 19.8388 224.803 20.7227 224.704C21.2137 224.704 21.7048 224.704 22.0976 224.704C18.6602 226.377 15.7139 229.132 14.1425 232.673C14.1425 232.772 14.2407 232.87 14.2407 232.772C16.1067 228.541 20.0352 225.688 24.4547 224.606C24.7493 224.508 25.044 224.508 25.2404 224.409C25.1422 224.803 25.1422 225.295 25.1422 225.688C25.044 226.279 24.9458 226.967 24.8475 227.558C24.5529 228.837 24.2583 230.115 23.8654 231.296C23.4726 232.575 22.9815 233.756 22.3923 234.936C21.803 236.117 21.2137 237.396 20.3298 238.478C20.2316 238.576 20.428 238.675 20.428 238.576C21.2137 237.396 21.9994 236.314 22.6869 235.133C23.3744 233.952 23.8654 232.772 24.3565 231.493C24.8475 230.214 25.2404 228.935 25.4368 227.656C25.535 226.967 25.6332 226.279 25.7315 225.59C25.7315 225.196 25.8297 224.704 25.8297 224.311C27.3028 224.114 28.776 224.114 30.2492 224.213C29.6599 227.262 29.0706 230.509 27.4011 233.165C27.3028 233.264 27.4993 233.362 27.4993 233.264C28.285 231.788 29.0706 230.411 29.6599 228.837C30.151 227.361 30.642 225.787 30.7402 224.213C33.2937 224.508 35.749 225.393 38.0079 226.672C42.3292 229.132 45.5702 232.87 47.6326 237.297C49.9897 242.118 50.8736 247.234 51.2665 252.448C51.6593 259.04 51.7575 265.73 52.445 272.321C52.445 272.715 53.1325 272.912 53.2307 272.42C53.1325 270.944 53.0343 269.468 53.0343 267.993Z" fill="#263238"/>
<path d="M38.4989 224.902C38.1061 224.41 37.5168 224.016 37.0258 223.623C36.5347 223.229 35.9454 222.737 35.4544 222.442C34.374 221.655 33.1955 221.163 31.9188 220.77C31.8205 220.77 31.8205 220.868 31.9188 220.966C33.1955 221.261 34.374 221.95 35.4544 222.737C35.9454 223.131 36.4365 223.524 36.9275 223.918C37.4186 224.311 37.8114 224.902 38.4007 225.098C38.4007 225.098 38.5971 225 38.4989 224.902Z" fill="#263238"/>
<path d="M18.4637 229.624C17.4816 230.804 16.4013 232.083 15.6156 233.461C14.7317 234.838 14.0442 236.215 13.455 237.691C13.455 237.691 13.5532 237.789 13.5532 237.691C15.0263 234.936 16.5977 232.083 18.6602 229.722C18.6602 229.624 18.562 229.525 18.4637 229.624Z" fill="#263238"/>
<path d="M32.017 228.345C31.9188 229.132 31.6242 229.919 31.3295 230.706C31.0349 231.395 30.5438 232.083 30.151 232.772C30.151 232.772 30.151 232.87 30.2492 232.87C31.3295 231.69 32.017 230.017 32.2134 228.443C32.1152 228.247 32.017 228.247 32.017 228.345Z" fill="#263238"/>
<path d="M52.1503 233.854C52.1503 233.854 60.9893 222.639 78.1763 226.672C94.4794 230.411 102.042 260.417 85.5422 263.959C69.0427 267.501 71.989 239.855 65.9981 235.133C61.5786 231.69 55.1948 232.378 52.1503 233.854Z" fill="#517BCC"/>
<path d="M91.4349 243.004C90.3546 242.02 89.1761 241.134 87.8993 240.249C86.7208 239.462 85.444 238.773 84.1673 238.38C83.4798 237.396 82.7923 236.412 81.9084 235.527C80.337 233.854 78.6674 232.477 76.7032 231.395C76.8996 231.395 76.9978 231.395 77.1942 231.395C78.0781 231.395 78.9621 231.395 79.9442 231.395C81.8102 231.493 83.578 231.985 85.2476 232.674C85.3458 232.674 85.444 232.575 85.3458 232.477C83.6762 231.788 81.9084 231.198 80.0424 230.903C79.1585 230.706 78.2746 230.706 77.3907 230.706C76.8996 230.706 76.4086 230.706 75.9175 230.804C75.8193 230.804 75.7211 230.804 75.6229 230.804C74.0515 230.017 72.3819 229.427 70.7123 228.935C70.9087 228.935 71.0069 228.837 71.2033 228.837C72.0872 228.64 72.8729 228.541 73.7568 228.443C75.5246 228.246 77.1942 228.246 78.8638 228.542C78.9621 228.542 78.9621 228.345 78.8638 228.345C77.1942 228.148 75.4264 228.05 73.6586 228.148C72.2837 228.246 70.7123 228.345 69.3373 228.738C68.3552 228.542 67.2749 228.443 66.1946 228.345C60.2036 228.05 53.7217 230.312 49.9896 235.231C46.2576 240.151 45.5701 246.742 44.9809 252.645C44.097 260.909 43.7041 269.272 44.2934 277.634C44.2934 278.126 44.9809 278.028 45.0791 277.536C45.2755 270.452 45.5701 263.369 46.2576 256.384C46.5522 253.137 46.9451 249.89 47.4361 246.644C47.9272 243.889 48.5165 241.134 49.7932 238.576C51.07 235.92 53.0342 233.854 55.5877 232.378C58.043 230.903 60.8911 230.116 63.7393 229.82C66.2928 229.624 68.9445 229.82 71.3998 230.509C71.3015 231.001 71.3015 231.493 71.3998 231.985C71.498 232.575 71.5962 233.264 71.7926 233.854C71.989 234.444 72.1855 235.035 72.4801 235.527C72.7747 236.117 73.1676 236.609 73.5604 237.199C73.6586 237.298 73.7568 237.199 73.6586 237.101C72.8729 236.215 72.5783 234.838 72.2837 233.756C72.1855 233.165 72.0872 232.575 72.0872 231.985C72.0872 231.591 72.0872 231.099 72.0872 230.608C74.8372 231.395 77.2925 232.772 79.5513 234.543C79.9442 234.838 80.337 235.231 80.7299 235.625C80.1406 236.117 79.6495 236.806 79.2567 237.396C78.6674 238.281 78.1764 239.167 77.6853 240.151C76.8014 242.02 76.4086 244.086 76.1139 246.152C76.1139 246.25 76.2121 246.25 76.3103 246.152C76.605 244.184 77.2925 242.315 78.2746 240.446C78.7656 239.56 79.2567 238.773 79.7477 237.888C80.0424 237.494 80.337 237.101 80.6316 236.707C80.8281 236.51 81.0245 236.314 81.1227 236.019C83.0869 237.986 84.7565 240.347 86.0333 242.905C85.1494 243.692 84.5601 244.775 84.0691 245.758C83.4798 246.841 82.8905 248.021 82.4977 249.202C81.6138 251.465 81.0245 253.826 80.4352 256.187C80.4352 256.285 80.5334 256.285 80.6316 256.187C81.1227 253.826 82.0066 251.465 83.0869 249.3C83.578 248.218 84.1673 247.136 84.7565 246.152C85.2476 245.168 85.9351 244.184 86.3279 243.102C87.5065 245.66 88.1939 248.316 88.2922 251.071C88.2922 251.169 88.4886 251.169 88.4886 251.071C88.1939 246.742 86.9172 242.512 84.6583 238.872C85.7386 239.364 86.7208 239.757 87.8011 240.249C89.0778 240.938 90.2564 241.725 91.3367 242.807C91.3367 243.2 91.4349 243.102 91.4349 243.004Z" fill="#263238"/>
<path d="M78.8639 243.692C78.3728 245.365 77.6853 247.037 77.1943 248.71C76.7032 250.382 76.4086 252.055 76.4086 253.727H76.5068C76.9978 250.284 77.7835 246.84 78.9621 243.692C79.0603 243.594 78.8639 243.495 78.8639 243.692Z" fill="#263238"/>
<path d="M89.6671 239.462C88.9796 238.773 88.1939 238.281 87.4082 237.789C86.5243 237.396 85.6404 237.101 84.7565 236.904C84.6583 236.904 84.6583 237.002 84.7565 237.101C85.6404 237.297 86.5243 237.691 87.31 238.183C88.0957 238.478 88.8814 238.97 89.6671 239.462C89.6671 239.56 89.7653 239.462 89.6671 239.462Z" fill="#263238"/>
<path d="M60.5964 218.9C60.5964 218.9 62.266 198.83 77.1942 192.337C89.667 186.926 96.7383 200.896 87.9974 209.455C80.7298 216.441 69.3373 213.292 60.5964 218.9Z" fill="#517BCC"/>
<path d="M85.1494 196.272C82.8905 197.256 80.6317 198.24 78.471 199.421C76.7032 200.404 74.9354 201.585 73.364 202.864C73.6586 202.372 73.8551 201.782 74.0515 201.29C74.4443 200.503 74.8372 199.716 75.3282 199.027C76.3103 197.551 77.2925 196.076 78.5692 194.895C78.6674 194.797 78.5692 194.698 78.471 194.797C77.1942 196.076 76.0157 197.355 75.0336 198.83C74.5425 199.519 74.0515 200.306 73.6586 201.093C73.2658 201.782 72.8729 202.569 72.6765 203.454C72.5783 203.454 72.5783 203.553 72.4801 203.553C69.8284 205.619 67.4713 207.98 65.3106 210.538C65.3106 210.341 65.4089 210.144 65.4089 209.947C65.7035 208.964 65.9981 207.98 66.2928 206.996C66.9802 204.93 67.7659 202.962 68.9445 201.093C69.0427 200.995 68.8463 200.896 68.8463 200.995C67.7659 202.864 66.5874 204.733 65.7035 206.701C65.3107 207.685 64.9178 208.668 64.7214 209.652C64.525 210.243 64.3285 211.03 64.2303 211.718C63.5428 212.505 62.9536 213.391 62.3643 214.276C55.9806 223.327 52.7396 234.346 52.0521 245.463C51.8557 248.808 51.7575 252.055 51.8557 255.4C51.9539 258.745 52.0521 262.09 52.7396 265.337C52.7396 265.533 53.1324 265.435 53.1324 265.238C53.0342 262.287 52.7396 259.434 52.7396 256.581C52.6414 253.629 52.7396 250.776 53.0342 247.825C53.5253 242.02 54.6056 236.314 56.2752 230.706C58.043 225 60.5965 219.589 63.8375 214.67C64.4267 214.571 65.1142 214.375 65.7035 214.178C66.4892 213.981 67.1767 213.784 67.9624 213.588C69.3373 213.194 70.8105 212.702 72.0872 212.013C72.1855 212.013 72.0872 211.817 71.989 211.915C70.7123 212.702 69.2391 213.096 67.7659 213.391C66.5874 213.588 65.4089 213.784 64.2303 214.08C65.3107 212.505 66.4892 210.931 67.6677 209.554C70.5159 209.849 73.364 209.554 76.1139 208.964C77.5871 208.57 79.0603 208.177 80.4352 207.586C81.9084 206.996 83.3816 206.307 84.8547 205.619C84.953 205.619 84.8548 205.422 84.7565 205.422C82.203 206.996 79.0603 207.783 76.1139 208.275C73.4622 208.767 70.8105 208.865 68.0606 208.964C69.1409 207.783 70.2212 206.602 71.3998 205.422C75.3282 201.683 79.9442 198.24 85.1494 196.469C85.2476 196.371 85.2476 196.174 85.1494 196.272Z" fill="#263238"/>
<path d="M72.9711 196.272C72.2837 197.158 71.6944 198.043 71.1051 198.928C70.5159 199.912 70.123 200.994 69.8284 202.077C69.8284 202.077 69.8284 202.175 69.9266 202.077C70.4176 201.093 70.8105 200.109 71.3015 199.125C71.7926 198.141 72.3819 197.256 73.0694 196.371C73.1676 196.371 73.0694 196.174 72.9711 196.272Z" fill="#263238"/>
<path d="M86.9171 202.962C85.935 203.553 84.9529 203.946 83.8726 204.241C82.8905 204.537 81.8101 204.832 80.7298 205.127C80.6316 205.127 80.7298 205.225 80.7298 205.225C81.8101 205.127 82.8905 204.93 83.9708 204.537C85.0511 204.143 86.0332 203.651 87.0153 203.159C87.0153 203.061 86.9171 202.962 86.9171 202.962Z" fill="#263238"/>
<path d="M49.0076 215.358C48.9094 216.244 46.7488 208.078 34.1777 200.798C22.6869 194.206 9.03553 177.088 20.2316 166.266C29.2671 157.51 53.1325 176.596 49.0076 215.358Z" fill="#517BCC"/>
<path d="M57.6503 262.09C57.4538 253.629 56.7664 245.07 55.686 236.707C54.6057 228.935 52.9361 221.36 50.3826 213.981C49.4005 211.325 48.4184 208.668 47.2398 206.11C47.3381 205.127 47.2398 204.044 47.1416 203.061C47.0434 201.782 46.9452 200.503 46.847 199.224C46.7488 197.945 46.5524 196.666 46.4542 195.387C46.2577 194.108 46.0613 192.829 45.9631 191.55C45.9631 191.451 45.7667 191.451 45.7667 191.55C46.0613 192.829 46.1595 194.305 46.2577 195.584C46.3559 196.862 46.4542 198.043 46.4542 199.322C46.4542 200.601 46.4542 201.782 46.4542 203.061C46.4542 203.552 46.4542 203.946 46.4542 204.438C45.2756 201.88 43.9989 199.42 42.6239 197.059C43.5078 191.845 42.3293 186.336 41.3472 181.22C41.3472 181.121 41.1507 181.121 41.1507 181.22C41.74 183.876 41.9364 186.631 41.9364 189.385C41.9364 191.55 41.8382 193.714 41.8382 195.879C41.5436 195.387 41.2489 194.895 40.9543 194.305C39.2847 191.648 37.6151 188.992 35.7491 186.434C35.9455 185.253 35.8473 183.876 35.6509 182.695C35.4545 181.318 35.1598 179.941 34.767 178.662C34.3741 177.284 33.8831 176.005 33.392 174.727C32.8028 173.349 32.1153 172.169 31.6242 170.791C31.6242 170.693 31.4278 170.791 31.4278 170.89C32.1153 172.07 32.6063 173.546 32.9992 174.825C33.392 176.104 33.7849 177.383 34.0795 178.76C34.3741 180.138 34.5706 181.416 34.767 182.794C34.8652 183.679 34.9634 184.565 35.1598 185.549C32.4099 181.908 29.4636 178.465 26.3208 175.218C26.2226 175.12 26.1244 175.218 26.2226 175.317C31.0349 180.728 35.3562 186.532 39.0883 192.829C39.1865 193.026 39.3829 193.321 39.4811 193.517C38.7937 193.124 38.008 192.73 37.3205 192.337C36.1419 191.648 34.8652 190.96 33.6867 190.271C32.5081 189.582 31.3296 188.992 30.151 188.303C29.5618 188.008 28.9725 187.615 28.285 187.319C27.5975 186.926 26.8118 186.631 26.1244 186.139C26.0262 186.04 25.9279 186.237 26.0262 186.237C27.2047 186.926 28.285 187.91 29.4636 188.697C30.6421 189.484 31.8206 190.172 33.0974 190.861C35.3563 192.14 37.8115 193.026 39.9722 194.305C41.5436 196.961 42.9185 199.716 44.1953 202.569C42.8203 201.683 41.4454 200.896 40.0704 200.109C39.1865 199.617 38.3026 199.125 37.4187 198.633C36.5348 198.141 35.6509 197.748 34.8652 197.059C34.767 196.961 34.6688 197.059 34.767 197.158C36.2402 198.535 37.9097 199.519 39.5793 200.503C41.1507 201.486 42.8203 202.372 44.4899 203.159C45.8649 206.11 47.0434 209.16 48.1237 212.21C53.4272 227.263 55.3914 243.2 56.2753 259.138C56.5699 263.861 56.6682 268.583 56.7664 273.305C56.8646 278.028 56.5699 282.75 56.5699 287.472C56.5699 287.571 56.7664 287.669 56.8646 287.472C57.4538 283.242 57.5521 279.011 57.7485 274.781C57.7485 270.747 57.7485 266.419 57.6503 262.09Z" fill="#263238"/>
<path d="M34.7669 194.009C32.4098 193.025 30.2492 191.746 28.0885 190.566C25.9279 189.287 23.7672 188.008 21.7048 186.532C21.7048 186.532 21.6066 186.532 21.7048 186.631C23.669 188.205 25.6332 189.68 27.7939 190.959C30.0528 192.238 32.3116 193.222 34.6687 194.304C34.7669 194.206 34.8651 194.009 34.7669 194.009Z" fill="#263238"/>
<path d="M38.4008 176.989C38.2044 176.301 38.0079 175.514 37.7133 174.825C37.7133 174.825 37.7133 174.825 37.7133 174.727C37.5169 174.333 37.4187 173.94 37.2223 173.546C37.2223 173.448 37.2222 173.448 37.124 173.448C37.124 173.349 37.0258 173.251 37.0258 173.251C37.0258 173.251 36.9276 173.251 37.0258 173.251C37.0258 173.349 37.124 173.546 37.124 173.644C37.124 173.743 37.124 173.841 37.2223 173.841C38.1062 176.596 38.6954 179.547 39.0883 182.401C39.0883 182.499 39.2847 182.499 39.1865 182.401C39.1865 180.531 38.8918 178.76 38.4008 176.989Z" fill="#263238"/>
<path d="M71.0069 265.14L70.123 275.863L67.2749 308.428H37.8114L35.0615 275.863L34.1776 265.14H71.0069Z" fill="#37474F"/>
<path d="M71.0069 265.14L70.123 275.863H35.0615L34.1776 265.14H71.0069Z" fill="#263238"/>
<path d="M73.8551 260.909H31.2313V271.141H73.8551V260.909Z" fill="#37474F"/>
<path d="M0 308.427L79.6496 308.231L159.201 308.132L318.5 307.936L477.701 308.132L557.35 308.231L637 308.427L557.35 308.723L477.701 308.821L318.5 308.919L159.201 308.821L79.6496 308.723L0 308.427Z" fill="#263238"/>
<path d="M549.199 22.0376H86.0333V332.433H549.199V22.0376Z" fill="#EBEBEB"/>
<path d="M545.86 25.8745H89.4707V328.694H545.86V25.8745Z" fill="#263238"/>
<path d="M609.501 355.651H25.7314V377H609.501V355.651Z" fill="#DBDBDB"/>
<path d="M25.7314 355.651L86.0333 332.433H549.199L609.599 355.651H25.7314Z" fill="#EBEBEB"/>
<path d="M91.4349 347.387L130.425 332.433H504.905L543.797 347.387H91.4349Z" fill="#263238"/>
<path d="M520.03 48.7974H115.202V305.575H520.03V48.7974Z" fill="white"/>
<path d="M520.128 48.7974H114.907V58.6356H520.128V48.7974Z" fill="#455A64"/>
<path d="M122.764 53.815C122.764 55.1924 121.684 56.2746 120.309 56.2746C118.934 56.2746 117.854 55.1924 117.854 53.815C117.854 52.4377 118.934 51.3555 120.309 51.3555C121.684 51.3555 122.764 52.4377 122.764 53.815Z" fill="#C7C7C7"/>
<path d="M132.684 53.815C132.684 55.1924 131.603 56.2746 130.228 56.2746C128.854 56.2746 127.773 55.1924 127.773 53.815C127.773 52.4377 128.854 51.3555 130.228 51.3555C131.603 51.3555 132.684 52.4377 132.684 53.815Z" fill="white"/>
<path d="M142.701 53.815C142.701 55.1924 141.621 56.2746 140.246 56.2746C138.871 56.2746 137.791 55.1924 137.791 53.815C137.791 52.4377 138.871 51.3555 140.246 51.3555C141.621 51.3555 142.701 52.4377 142.701 53.815Z" fill="#517BCC"/>
<path d="M520.03 58.7339H512.861V305.673H520.03V58.7339Z" fill="#DBDBDB"/>
<path d="M516.494 144.326C515.512 144.326 514.628 143.539 514.628 142.457V61.9806C514.628 60.9968 515.414 60.1113 516.494 60.1113C517.477 60.1113 518.36 60.8984 518.36 61.9806V142.457C518.36 143.441 517.477 144.326 516.494 144.326Z" fill="#A6A6A6"/>
<path d="M463.46 122.781H173.54V166.758H463.46V122.781Z" fill="white"/>
<path d="M463.951 167.25H173.049V122.289H463.951V167.25ZM174.031 166.266H462.969V123.273H174.031V166.266Z" fill="#DBDBDB"/>
<path d="M199.173 134.685C199.762 136.358 200.057 138.03 200.352 139.703C200.548 141.375 200.646 143.048 200.646 144.72C200.646 146.393 200.548 148.065 200.352 149.738C200.155 151.41 199.762 153.082 199.173 154.755C198.584 153.082 198.289 151.41 197.994 149.738C197.798 148.065 197.7 146.393 197.7 144.72C197.7 143.048 197.798 141.375 197.994 139.703C198.191 138.03 198.486 136.358 199.173 134.685Z" fill="#37474F"/>
<path d="M209.191 144.72C207.521 145.31 205.851 145.605 204.182 145.9C202.512 146.097 200.843 146.196 199.173 146.196C197.503 146.196 195.834 146.097 194.164 145.9C192.495 145.704 190.825 145.31 189.155 144.72C190.825 144.13 192.495 143.834 194.164 143.539C195.834 143.343 197.503 143.244 199.173 143.244C200.843 143.244 202.512 143.343 204.182 143.539C205.851 143.834 207.521 144.13 209.191 144.72Z" fill="#37474F"/>
<path d="M206.244 137.637C205.459 139.211 204.575 140.687 203.494 142.064C202.414 143.441 201.334 144.622 200.155 145.901C198.977 147.081 197.7 148.164 196.423 149.246C195.048 150.23 193.673 151.213 192.004 152.001C192.789 150.426 193.673 148.951 194.753 147.573C195.834 146.196 196.914 145.015 198.093 143.835C199.271 142.654 200.548 141.572 201.923 140.49C203.2 139.309 204.673 138.424 206.244 137.637Z" fill="#37474F"/>
<path d="M206.244 151.902C204.673 151.115 203.2 150.23 201.825 149.147C200.45 148.065 199.271 146.983 197.994 145.802C196.816 144.622 195.736 143.343 194.655 142.064C193.673 140.687 192.691 139.309 191.905 137.637C193.477 138.424 194.95 139.309 196.325 140.391C197.7 141.474 198.878 142.556 200.057 143.736C201.235 144.917 202.316 146.196 203.396 147.573C204.575 148.852 205.458 150.23 206.244 151.902Z" fill="#37474F"/>
<path d="M238.359 134.685C238.949 136.358 239.243 138.03 239.538 139.703C239.734 141.375 239.833 143.048 239.833 144.72C239.833 146.393 239.734 148.065 239.538 149.738C239.342 151.41 238.949 153.082 238.359 154.755C237.77 153.082 237.476 151.41 237.181 149.738C236.984 148.065 236.886 146.393 236.886 144.72C236.886 143.048 236.984 141.375 237.181 139.703C237.476 138.03 237.77 136.358 238.359 134.685Z" fill="#37474F"/>
<path d="M248.377 144.72C246.707 145.31 245.038 145.605 243.368 145.9C241.699 146.097 240.029 146.196 238.359 146.196C236.69 146.196 235.02 146.097 233.351 145.9C231.681 145.704 230.011 145.31 228.342 144.72C230.011 144.13 231.681 143.834 233.351 143.539C235.02 143.343 236.69 143.244 238.359 143.244C240.029 143.244 241.699 143.343 243.368 143.539C245.038 143.834 246.707 144.13 248.377 144.72Z" fill="#37474F"/>
<path d="M245.431 137.637C244.645 139.211 243.761 140.687 242.681 142.064C241.6 143.441 240.52 144.622 239.342 145.901C238.163 147.081 236.886 148.164 235.609 149.246C234.234 150.23 232.86 151.213 231.19 152.001C231.976 150.426 232.86 148.951 233.94 147.573C235.02 146.196 236.101 145.015 237.279 143.835C238.458 142.654 239.734 141.572 241.109 140.49C242.484 139.309 243.859 138.424 245.431 137.637Z" fill="#37474F"/>
<path d="M245.431 151.902C243.859 151.115 242.386 150.23 241.011 149.147C239.636 148.065 238.458 146.983 237.181 145.802C236.002 144.622 234.922 143.343 233.842 142.064C232.86 140.687 231.877 139.309 231.092 137.637C232.663 138.424 234.136 139.309 235.511 140.391C236.886 141.474 238.065 142.556 239.243 143.736C240.422 144.917 241.502 146.196 242.583 147.573C243.761 148.852 244.743 150.23 245.431 151.902Z" fill="#37474F"/>
<path d="M277.546 134.685C278.135 136.358 278.43 138.03 278.724 139.703C278.921 141.375 279.019 143.048 279.019 144.72C279.019 146.393 278.921 148.065 278.724 149.738C278.528 151.41 278.135 153.082 277.546 154.755C276.957 153.082 276.662 151.41 276.367 149.738C276.171 148.065 276.073 146.393 276.073 144.72C276.073 143.048 276.171 141.375 276.367 139.703C276.662 138.03 276.957 136.358 277.546 134.685Z" fill="#37474F"/>
<path d="M287.662 144.72C285.992 145.31 284.322 145.605 282.653 145.9C280.983 146.097 279.314 146.196 277.644 146.196C275.974 146.196 274.305 146.097 272.635 145.9C270.966 145.704 269.296 145.31 267.626 144.72C269.296 144.13 270.966 143.834 272.635 143.539C274.305 143.343 275.974 143.244 277.644 143.244C279.314 143.244 280.983 143.343 282.653 143.539C284.322 143.834 285.992 144.13 287.662 144.72Z" fill="#37474F"/>
<path d="M284.715 137.637C283.93 139.211 283.046 140.687 281.965 142.064C280.885 143.441 279.805 144.622 278.626 145.901C277.448 147.081 276.171 148.164 274.894 149.246C273.519 150.23 272.144 151.213 270.475 152.001C271.26 150.426 272.144 148.951 273.225 147.573C274.305 146.196 275.385 145.015 276.564 143.835C277.742 142.654 279.019 141.572 280.394 140.49C281.671 139.309 283.046 138.424 284.715 137.637Z" fill="#37474F"/>
<path d="M284.715 151.902C283.144 151.115 281.671 150.23 280.296 149.147C278.921 148.065 277.742 146.983 276.466 145.802C275.287 144.622 274.207 143.343 273.126 142.064C272.144 140.687 271.162 139.309 270.376 137.637C271.948 138.424 273.421 139.309 274.796 140.391C276.171 141.474 277.349 142.556 278.528 143.736C279.707 144.917 280.787 146.196 281.867 147.573C282.948 148.852 283.93 150.23 284.715 151.902Z" fill="#37474F"/>
<path d="M316.83 134.685C317.42 136.358 317.714 138.03 318.009 139.703C318.205 141.375 318.304 143.048 318.304 144.72C318.304 146.393 318.205 148.065 318.009 149.738C317.812 151.41 317.42 153.082 316.83 154.755C316.241 153.082 315.946 151.41 315.652 149.738C315.455 148.065 315.357 146.393 315.357 144.72C315.357 143.048 315.455 141.375 315.652 139.703C315.848 138.03 316.241 136.358 316.83 134.685Z" fill="#37474F"/>
<path d="M326.848 144.72C325.178 145.31 323.509 145.605 321.839 145.9C320.17 146.097 318.5 146.196 316.83 146.196C315.161 146.196 313.491 146.097 311.822 145.9C310.152 145.704 308.482 145.31 306.813 144.72C308.482 144.13 310.152 143.834 311.822 143.539C313.491 143.343 315.161 143.244 316.83 143.244C318.5 143.244 320.17 143.343 321.839 143.539C323.509 143.834 325.178 144.13 326.848 144.72Z" fill="#37474F"/>
<path d="M323.902 137.637C323.116 139.211 322.232 140.687 321.152 142.064C320.071 143.441 318.991 144.622 317.812 145.901C316.634 147.081 315.357 148.164 314.08 149.246C312.705 150.23 311.33 151.213 309.661 152.001C310.447 150.426 311.331 148.951 312.411 147.573C313.491 146.196 314.571 145.015 315.75 143.835C316.929 142.654 318.205 141.572 319.58 140.49C320.857 139.309 322.33 138.424 323.902 137.637Z" fill="#37474F"/>
<path d="M323.902 151.902C322.33 151.115 320.857 150.23 319.482 149.147C318.107 148.065 316.929 146.983 315.652 145.802C314.473 144.622 313.393 143.343 312.313 142.064C311.331 140.687 310.348 139.309 309.563 137.637C311.134 138.424 312.607 139.309 313.982 140.391C315.357 141.474 316.536 142.556 317.714 143.736C318.893 144.917 319.973 146.196 321.053 147.573C322.232 148.852 323.116 150.23 323.902 151.902Z" fill="#37474F"/>
<path d="M356.017 134.685C356.606 136.358 356.901 138.03 357.195 139.703C357.392 141.375 357.49 143.048 357.49 144.72C357.49 146.393 357.392 148.065 357.195 149.738C356.999 151.41 356.606 153.082 356.017 154.755C355.428 153.082 355.133 151.41 354.838 149.738C354.642 148.065 354.544 146.393 354.544 144.72C354.544 143.048 354.642 141.375 354.838 139.703C355.133 138.03 355.428 136.358 356.017 134.685Z" fill="#37474F"/>
<path d="M366.133 144.72C364.463 145.31 362.793 145.605 361.124 145.9C359.454 146.097 357.785 146.196 356.115 146.196C354.445 146.196 352.776 146.097 351.106 145.9C349.437 145.704 347.767 145.31 346.097 144.72C347.767 144.13 349.437 143.834 351.106 143.539C352.776 143.343 354.445 143.244 356.115 143.244C357.785 143.244 359.454 143.343 361.124 143.539C362.695 143.834 364.365 144.13 366.133 144.72Z" fill="#37474F"/>
<path d="M363.186 137.637C362.401 139.211 361.517 140.687 360.436 142.064C359.356 143.441 358.276 144.622 357.097 145.901C355.919 147.081 354.642 148.164 353.365 149.246C351.99 150.23 350.615 151.213 348.946 152.001C349.731 150.426 350.615 148.951 351.696 147.573C352.776 146.196 353.856 145.015 355.035 143.835C356.213 142.654 357.49 141.572 358.865 140.49C360.142 139.309 361.517 138.424 363.186 137.637Z" fill="#37474F"/>
<path d="M363.186 151.902C361.615 151.115 360.142 150.23 358.767 149.147C357.392 148.065 356.213 146.983 354.937 145.802C353.758 144.622 352.678 143.343 351.597 142.064C350.615 140.687 349.633 139.309 348.847 137.637C350.419 138.424 351.892 139.309 353.267 140.391C354.642 141.474 355.82 142.556 356.999 143.736C358.178 144.917 359.258 146.196 360.338 147.573C361.418 148.852 362.401 150.23 363.186 151.902Z" fill="#37474F"/>
<path d="M395.203 134.685C395.792 136.358 396.087 138.03 396.382 139.703C396.578 141.375 396.676 143.048 396.676 144.72C396.676 146.393 396.578 148.065 396.382 149.738C396.185 151.41 395.792 153.082 395.203 154.755C394.614 153.082 394.319 151.41 394.025 149.738C393.828 148.065 393.73 146.393 393.73 144.72C393.73 143.048 393.828 141.375 394.025 139.703C394.319 138.03 394.614 136.358 395.203 134.685Z" fill="#37474F"/>
<path d="M405.319 144.72C403.649 145.31 401.98 145.605 400.31 145.9C398.641 146.097 396.971 146.196 395.301 146.196C393.632 146.196 391.962 146.097 390.293 145.9C388.623 145.704 386.953 145.31 385.284 144.72C386.953 144.13 388.623 143.834 390.293 143.539C391.962 143.343 393.632 143.244 395.301 143.244C396.971 143.244 398.641 143.343 400.31 143.539C401.98 143.834 403.649 144.13 405.319 144.72Z" fill="#37474F"/>
<path d="M402.373 137.637C401.587 139.211 400.703 140.687 399.623 142.064C398.542 143.441 397.462 144.622 396.284 145.901C395.105 147.081 393.828 148.164 392.551 149.246C391.177 150.23 389.802 151.213 388.132 152.001C388.918 150.426 389.802 148.951 390.882 147.573C391.962 146.196 393.043 145.015 394.221 143.835C395.4 142.654 396.676 141.572 398.051 140.49C399.328 139.309 400.703 138.424 402.373 137.637Z" fill="#37474F"/>
<path d="M402.373 151.902C400.801 151.115 399.328 150.23 397.953 149.147C396.578 148.065 395.4 146.983 394.123 145.802C392.944 144.622 391.864 143.343 390.784 142.064C389.802 140.687 388.82 139.309 388.034 137.637C389.605 138.424 391.078 139.309 392.453 140.391C393.828 141.474 395.007 142.556 396.185 143.736C397.364 144.917 398.444 146.196 399.525 147.573C400.605 148.852 401.587 150.23 402.373 151.902Z" fill="#37474F"/>
<path d="M368.097 135.866V189.484H352.972V135.866C352.972 115.5 337.553 98.9723 318.5 98.9723C299.447 98.9723 284.028 115.5 284.028 135.866V189.484H268.903V135.866C268.903 106.646 291.099 82.936 318.5 82.936C345.803 82.936 368.097 106.646 368.097 135.866Z" fill="#455A64"/>
<path d="M268.903 149.836L284.028 150.426V189.484H268.903V149.836Z" fill="#263238"/>
<path d="M368.097 153.869V189.484H352.972V153.181L368.097 153.869Z" fill="#263238"/>
<path d="M387.445 158.887H249.556V284.225H387.445V158.887Z" fill="#517BCC"/>
<path opacity="0.1" d="M387.445 158.887H318.5V284.225H387.445V158.887Z" fill="black"/>
<path d="M324.294 226.18L330.089 253.629H305.634L311.429 226.18C307.991 224.016 305.634 220.179 305.634 215.85C305.634 208.963 311.134 203.552 317.911 203.552C324.687 203.552 330.187 208.963 330.187 215.85C330.089 220.179 327.732 224.016 324.294 226.18Z" fill="#263238"/>
<path d="M278.43 226.082C278.43 226.082 271.26 283.931 259.377 296.917C245.136 312.56 234.824 310.199 229.127 318.266C223.431 310.199 213.021 312.461 198.878 296.917C186.995 283.931 179.825 226.082 179.825 226.082C211.057 210.931 229.127 193.911 229.127 193.911C229.619 194.501 247.689 211.226 278.43 226.082Z" fill="#EBEBEB"/>
<path d="M229.128 193.911V318.266C223.431 310.199 213.021 312.461 198.878 296.917C186.995 283.931 179.825 226.082 179.825 226.082C210.958 210.931 229.128 193.911 229.128 193.911Z" fill="#DBDBDB"/>
<path d="M270.769 230.804C270.769 230.804 264.68 279.602 254.662 290.621C242.681 303.804 233.94 301.836 229.029 308.723C224.217 301.935 215.476 303.902 203.396 290.621C193.378 279.602 187.289 230.804 187.289 230.804C213.61 218.015 228.931 203.651 228.931 203.651C228.931 203.651 244.448 217.916 270.769 230.804Z" fill="#DBDBDB"/>
<path d="M187.388 230.804C187.388 230.804 193.477 279.602 203.494 290.621C215.476 303.804 224.217 301.836 229.127 308.625V203.651C228.636 204.044 213.414 218.113 187.388 230.804Z" fill="#C7C7C7"/>
<path d="M242.762 269.777C250.318 262.208 250.318 249.937 242.762 242.368C235.206 234.799 222.956 234.799 215.401 242.368C207.845 249.937 207.845 262.208 215.401 269.777C222.956 277.346 235.207 277.346 242.762 269.777Z" fill="#517BCC"/>
<path d="M226.869 268.682L218.226 259.729L221.467 256.679L226.181 261.598L236.493 245.857L240.127 248.316L226.869 268.682Z" fill="white"/>
<path d="M305.634 343.648L305.143 345.911C304.652 348.568 302.099 350.24 299.545 349.748L162.442 322.89L164.701 311.084L301.804 337.942C304.456 338.533 306.125 341.09 305.634 343.648Z" fill="#517BCC"/>
<path opacity="0.1" d="M164.645 311.202L162.349 322.982L178.929 326.225L181.224 314.444L164.645 311.202Z" fill="black"/>
<path d="M112.256 296.228L108.229 317.085C106.756 324.464 108.524 331.744 112.354 337.45C116.184 343.255 122.273 347.485 129.639 348.961C144.371 351.814 158.612 342.173 161.46 327.514L165.486 306.657C166.96 299.278 165.192 291.998 161.362 286.292C157.531 280.487 151.442 276.257 144.076 274.781C129.443 271.83 115.104 281.471 112.256 296.228ZM157.04 301.443C155.862 307.641 150.46 312.166 143.684 313.15C149.478 316.692 152.817 322.89 151.639 329.088C150.067 337.352 140.835 342.566 131.211 340.697C121.586 338.828 115.104 330.564 116.675 322.201C117.854 316.003 123.256 311.478 130.032 310.494C124.238 306.952 120.898 300.754 122.077 294.556C123.648 286.292 132.782 281.078 142.505 282.947C152.13 284.914 158.71 293.08 157.04 301.443Z" fill="#517BCC"/>
<path d="M171.183 306.952L166.861 329.285C166.665 330.465 165.487 331.252 164.21 331.056L163.129 330.859C161.951 330.662 161.165 329.482 161.362 328.203L165.683 305.87C165.879 304.689 167.058 303.902 168.335 304.099L169.415 304.296C170.594 304.591 171.379 305.771 171.183 306.952Z" fill="#517BCC"/>
<path d="M176.584 308.034L172.263 330.367C172.067 331.547 170.888 332.334 169.611 332.138L168.531 331.941C167.353 331.744 166.567 330.564 166.763 329.285L171.085 306.952C171.281 305.771 172.459 304.984 173.736 305.181L174.817 305.378C175.995 305.575 176.781 306.755 176.584 308.034Z" fill="#517BCC"/>
<path d="M269.1 326.628L273.126 327.415L275.483 315.511L278.921 316.2L277.742 322.398L281.867 323.185L283.046 316.987L286.09 317.577L284.224 327.415L288.349 328.202L290.215 318.364L294.635 319.25L292.081 332.334L296.108 333.122L298.661 320.037L302.786 320.824L299.545 337.549L263.109 330.465L266.35 313.74L271.359 314.724L269.1 326.628Z" fill="#517BCC"/>
<path d="M409.837 265.336L383.123 286.98C378.016 291.113 373.597 294.753 371.436 296.917C370.65 297.704 370.159 298.294 370.159 298.59C370.159 298.59 370.159 298.59 370.159 298.688C370.356 301.049 401.98 343.157 403.551 344.239C405.122 345.321 408.363 340.894 408.462 338.237C408.56 335.581 403.649 314.134 403.649 314.134L430.166 292.195L409.837 265.336Z" fill="#C95F50"/>
<path d="M388.525 282.553L383.025 286.98C377.918 291.112 373.498 294.753 371.338 296.917C370.552 297.802 370.159 298.393 370.061 298.589C370.061 298.589 370.061 298.59 370.061 298.688C370.257 301.049 401.882 343.157 403.453 344.239C405.024 345.321 408.265 340.894 408.364 338.237C408.462 335.581 403.551 314.134 403.551 314.134L409.149 309.707L388.525 282.553Z" fill="#EBEBEB"/>
<path d="M403.453 344.239C401.882 343.157 370.257 301.049 370.061 298.688C369.963 297.802 375.856 292.785 383.025 286.98C383.123 286.882 383.221 286.882 383.221 286.784L403.944 313.74L403.453 314.036C403.453 314.036 408.364 335.581 408.265 338.139C408.265 340.795 405.024 345.321 403.453 344.239Z" fill="#517BCC"/>
<path d="M404.73 342.468C399.623 335.286 378.114 306.558 372.418 299.868C372.418 299.77 372.32 299.868 372.418 299.868C377.329 307.149 399.033 335.581 404.632 342.566C404.73 342.763 404.828 342.665 404.73 342.468Z" fill="#263238"/>
<path d="M405.123 316.396C403.551 313.248 400.507 310.1 396.971 309.51C396.873 309.51 396.775 309.707 396.873 309.707C399.819 311.773 402.274 313.937 404.73 316.593C404.926 316.888 405.221 316.593 405.123 316.396Z" fill="#263238"/>
<path d="M405.417 319.348C403.846 316.2 400.801 313.052 397.266 312.461C397.167 312.461 397.069 312.658 397.167 312.658C400.114 314.724 402.569 316.889 405.024 319.545C405.221 319.742 405.515 319.545 405.417 319.348Z" fill="#263238"/>
<path d="M405.712 322.299C404.14 319.151 401.096 316.003 397.56 315.413C397.462 315.413 397.364 315.609 397.462 315.609C400.408 317.675 402.864 319.84 405.319 322.496C405.515 322.693 405.81 322.496 405.712 322.299Z" fill="#263238"/>
<path d="M424.274 239.56C422.31 248.907 383.516 286.292 383.516 286.292L410.622 317.577C410.622 317.577 465.719 262.483 462.871 241.725C460.416 223.721 433.407 151.312 433.407 151.312H402.373C402.373 151.312 426.14 230.312 424.274 239.56Z" fill="#37474F"/>
<path d="M424.274 239.56C422.31 248.907 383.516 286.292 383.516 286.292L410.622 317.577C410.622 317.577 465.719 262.483 462.871 241.725C460.416 223.721 433.407 151.312 433.407 151.312H402.373C402.373 151.312 426.14 230.312 424.274 239.56Z" fill="#37474F"/>
<path d="M413.667 310.199C410.033 305.673 411.212 306.952 407.48 302.525C405.712 300.361 393.926 286.095 391.962 284.324C391.962 284.324 391.864 284.324 391.864 284.423C393.239 286.685 405.221 300.754 406.989 302.918C410.721 307.247 409.738 305.968 413.471 310.297C413.667 310.297 413.765 310.199 413.667 310.199Z" fill="#263238"/>
<path d="M428.104 234.936C427.613 232.575 427.122 230.313 426.631 227.951C425.649 223.229 424.568 218.408 423.39 213.686C421.131 204.34 418.774 194.993 416.122 185.647C413.47 176.301 410.721 167.053 407.48 157.903C407.087 156.821 406.694 155.641 406.301 154.558C406.301 154.46 406.105 154.558 406.203 154.558C408.953 163.708 411.899 172.857 414.453 182.007C417.104 191.156 419.461 200.404 421.72 209.652C422.899 214.276 423.881 218.999 424.961 223.623C425.452 225.885 425.943 228.247 426.434 230.509C426.925 232.87 427.613 235.232 427.711 237.593C427.809 239.954 427.122 242.02 425.845 243.988C424.667 245.857 423.292 247.726 422.015 249.497C419.363 253.137 394.123 281.274 393.239 282.062C393.141 282.16 393.239 282.258 393.337 282.16C396.775 279.11 418.185 255.892 420.935 252.252C422.31 250.481 423.586 248.71 424.863 246.841C426.042 245.168 427.318 243.397 427.908 241.43C428.693 239.364 428.497 237.101 428.104 234.936Z" fill="#263238"/>
<path d="M428.006 151.312L422.408 225.492C417.006 200.109 402.373 151.312 402.373 151.312H428.006Z" fill="#263238"/>
<path d="M414.747 303.902C414.747 303.902 421.426 336.565 421.426 336.663C421.524 343.255 421.72 349.059 422.113 352.011C422.211 353.093 422.408 353.88 422.604 354.077C424.568 355.356 477.112 356.241 478.978 355.651C480.844 355.061 479.272 349.748 477.308 348.075C475.246 346.403 455.309 337.057 455.309 337.057L448.237 304.394L414.747 303.902Z" fill="#C95F50"/>
<path d="M479.076 355.651C477.21 356.241 424.667 355.454 422.702 354.077C422.506 353.88 422.31 353.191 422.211 352.011C422.211 352.011 422.211 352.011 422.211 351.912C421.819 348.961 421.622 343.156 421.524 336.565L420.345 330.858H454.13L455.407 336.958C455.407 336.958 475.344 346.304 477.406 347.977C479.37 349.748 480.844 355.06 479.076 355.651Z" fill="#EBEBEB"/>
<path d="M479.076 355.651C477.21 356.241 424.667 355.454 422.702 354.077C421.917 353.585 421.622 345.911 421.524 336.663C421.524 336.565 421.524 336.467 421.524 336.368L455.407 336.467V337.057C455.407 337.057 475.344 346.403 477.406 348.076C479.371 349.748 480.844 355.061 479.076 355.651Z" fill="#517BCC"/>
<path d="M478.487 353.585C469.648 353.192 433.899 352.601 425.059 352.995C424.961 352.995 424.961 353.093 425.059 353.093C433.8 353.684 469.549 353.979 478.487 353.782C478.683 353.782 478.683 353.585 478.487 353.585Z" fill="#263238"/>
<path d="M458.157 337.254C454.719 336.565 450.398 337.057 447.746 339.418C447.648 339.517 447.746 339.615 447.845 339.615C451.282 338.631 454.523 337.943 458.157 337.647C458.451 337.647 458.451 337.352 458.157 337.254Z" fill="#263238"/>
<path d="M460.71 338.828C457.273 338.139 452.952 338.631 450.3 340.992C450.202 341.091 450.3 341.189 450.398 341.189C453.836 340.205 457.077 339.517 460.71 339.222C460.907 339.222 460.907 338.828 460.71 338.828Z" fill="#263238"/>
<path d="M463.166 340.402C459.728 339.714 455.407 340.206 452.755 342.567C452.657 342.665 452.755 342.763 452.853 342.763C456.291 341.78 459.532 341.091 463.166 340.796C463.362 340.796 463.362 340.402 463.166 340.402Z" fill="#263238"/>
<path d="M430.461 151.312C430.461 152 428.693 157.903 427.809 166.856C427.122 173.349 426.336 179.154 425.452 179.842C424.47 180.629 419.56 183.778 417.89 184.86C417.89 184.86 433.211 231.296 437.14 246.84C442.836 269.272 456.585 336.663 456.585 336.663H420.051C420.051 336.663 408.953 272.518 404.042 251.169C399.917 232.87 383.909 177.875 383.909 177.875C378.114 163.609 385.186 151.41 385.186 151.41L430.461 151.312Z" fill="#37474F"/>
<path d="M455.21 329.482C449.514 329.482 451.086 329.383 445.389 329.383C442.541 329.383 424.077 329.482 421.524 329.974C421.426 329.974 421.426 330.072 421.524 330.072C424.176 330.466 442.639 329.974 445.389 329.974C451.086 329.875 449.514 329.777 455.21 329.58C455.407 329.678 455.407 329.482 455.21 329.482Z" fill="#263238"/>
<path d="M428.006 177.973C424.47 179.842 421.131 182.302 417.89 184.762C417.792 184.86 417.89 185.057 417.988 184.958C421.426 182.794 424.863 180.728 428.202 178.367C428.497 178.268 428.3 177.875 428.006 177.973Z" fill="#263238"/>
<path d="M425.256 152.689C425.256 152.591 424.961 152.591 425.059 152.689C425.747 157.018 426.042 160.953 426.336 164.987C426.434 166.856 426.533 177.58 423.193 177.285C422.604 177.285 422.31 176.793 422.015 175.907C421.72 174.923 421.917 173.644 421.917 172.661C421.917 170.398 421.917 168.135 421.72 165.971C421.426 161.839 420.836 157.707 419.658 153.673C419.658 153.574 419.461 153.574 419.461 153.673C420.345 159.379 421.131 165.085 421.131 170.89C421.131 173.644 420.444 177.973 423.292 177.973C426.238 177.973 427.024 170.791 427.122 168.922C427.318 163.609 426.434 157.903 425.256 152.689Z" fill="#263238"/>
<path d="M423.292 177.678C423.095 178.465 422.997 179.154 422.899 179.941C422.801 180.531 422.702 181.22 422.899 181.81C422.899 181.908 423.095 181.908 423.095 181.81C423.39 181.22 423.488 180.531 423.586 179.941C423.684 179.252 423.881 178.563 423.979 177.776C424.077 177.383 423.39 177.186 423.292 177.678Z" fill="#263238"/>
<path d="M389.114 177.481C392.846 177.088 394.81 176.891 398.346 175.71C401.685 174.628 404.828 172.759 407.283 170.201C408.658 168.823 409.935 167.151 410.721 165.38C410.721 165.282 410.819 165.38 410.819 165.478C410.23 167.249 409.542 168.823 408.364 170.299C407.185 171.775 405.908 173.054 404.435 174.038C401.292 176.3 398.15 177.481 394.418 177.973C392.257 178.268 391.177 178.268 389.016 177.875C388.918 177.776 389.016 177.481 389.114 177.481Z" fill="#263238"/>
<path d="M415.828 309.313C415.729 308.428 415.631 307.641 415.533 306.755C415.337 305.181 415.042 303.509 414.747 301.935C414.256 298.688 413.667 295.441 413.078 292.195C411.899 285.702 410.622 279.307 409.247 272.912C408.462 269.272 407.578 265.73 406.596 262.09C406.498 261.795 406.203 261.992 406.203 262.188C406.792 265.435 407.381 268.78 408.069 272.027C408.756 275.273 409.444 278.52 410.033 281.766C411.31 288.161 412.488 294.654 413.765 301.148C414.158 302.919 414.453 304.788 414.845 306.559C415.042 307.444 415.238 308.33 415.435 309.313C415.631 310.199 415.926 311.084 416.024 311.97C416.024 312.068 416.122 311.97 416.122 311.97C415.926 311.084 415.926 310.199 415.828 309.313Z" fill="#263238"/>
<path d="M440.97 260.713C439.791 254.613 438.122 248.612 436.452 242.709C433.113 230.706 429.184 218.9 425.354 206.996C424.274 203.553 423.095 200.208 422.015 196.764C421.426 195.092 418.676 185.844 418.381 184.959C418.381 184.86 418.185 184.86 418.283 184.959C419.069 188.107 420.149 192.632 421.033 195.781C421.917 198.83 422.899 201.88 423.881 204.93C425.747 210.931 427.613 216.933 429.479 222.934C433.015 234.838 436.648 246.644 439.497 258.745C440.282 262.09 441.166 265.533 441.854 268.878C442.639 272.223 443.229 275.667 443.916 279.11C443.916 279.209 444.113 279.209 444.113 279.11C443.425 272.912 442.247 266.812 440.97 260.713Z" fill="#263238"/>
<path d="M418.283 292.49C416.319 280.881 413.863 269.37 411.212 257.958C408.56 246.447 405.515 235.035 402.274 223.622C399.033 212.308 395.301 200.995 391.373 189.877C389.507 184.565 387.641 179.35 386.364 173.841C385.186 168.43 384.596 162.527 385.775 157.116C386.07 155.739 386.462 154.361 387.052 153.082C387.052 152.984 386.953 152.886 386.953 152.984C382.534 163.216 385.382 174.431 388.721 184.565C390.587 190.074 392.552 195.584 394.319 201.191C396.185 206.897 397.953 212.604 399.623 218.31C402.962 229.722 406.105 241.134 408.953 252.645C411.801 264.156 414.256 275.765 416.417 287.472C418.578 299.18 420.444 310.887 422.31 322.693C422.506 324.267 422.702 325.743 422.899 327.317C422.899 327.415 422.997 327.415 422.997 327.317C421.819 315.61 420.247 304.001 418.283 292.49Z" fill="#263238"/>
<path d="M417.497 102.711C421.818 118.452 434.193 137.44 440.086 140.096C445.193 142.359 468.96 133.603 477.995 127.799C480.549 126.126 470.04 111.467 466.898 112.451C456.88 115.796 445.88 120.715 445.095 120.518C443.425 119.928 432.72 106.843 424.961 97.9888C416.22 88.1506 415.828 96.4147 417.497 102.711Z" fill="#C95F50"/>
<path d="M494.986 114.517C497.048 113.632 512.566 113.14 512.566 109.795C512.566 106.45 492.727 107.335 492.727 107.335L494.986 114.517Z" fill="#C95F50"/>
<path d="M465.13 114.911C467.88 111.566 470.237 107.827 472.594 107.237C474.263 106.745 491.843 107.532 494.593 107.335C497.343 107.138 507.164 107.434 507.361 109.795C507.655 113.238 496.066 113.14 494.79 114.911C490.468 120.912 474.165 129.865 474.165 129.865L465.13 114.911Z" fill="#C95F50"/>
<path d="M507.655 109.893C507.557 109.303 507.066 108.713 506.575 108.418C505.397 107.532 503.825 107.532 502.352 107.335C500.191 107.139 498.031 107.139 495.87 107.237V107.335C497.441 107.335 499.111 107.335 500.682 107.532C502.156 107.631 503.629 107.729 505.004 108.221C505.593 108.418 506.28 108.713 506.673 109.205C506.968 109.598 507.164 109.992 506.968 110.484C506.477 111.959 503.53 112.451 502.254 112.746C500.486 113.14 498.62 113.533 496.852 113.829C496.754 113.829 496.852 113.927 496.852 113.927C498.718 113.533 500.682 113.435 502.45 113.042C503.923 112.746 505.593 112.451 506.771 111.467C507.459 111.172 507.852 110.582 507.655 109.893Z" fill="#263238"/>
<path d="M464.442 112.845L478.388 133.308C478.388 133.308 456.782 144.13 448.532 143.933C440.675 143.737 437.827 142.556 435.372 140.195C433.8 138.719 425.059 126.323 417.988 105.761C411.997 88.5442 420.836 91.0038 428.792 100.645C432.72 105.368 445.291 119.633 445.979 119.535C446.47 119.535 464.442 112.845 464.442 112.845Z" fill="#517BCC"/>
<path d="M460.121 116.091C462.183 119.141 464.246 122.191 466.21 125.339C467.192 126.815 470.826 133.013 471.808 134.784C471.808 134.882 471.612 134.981 471.612 134.882C470.531 133.308 466.603 127.11 465.621 125.634C463.755 122.585 461.889 119.436 460.121 116.091C460.023 116.091 460.121 116.091 460.121 116.091Z" fill="#263238"/>
<path opacity="0.1" d="M452.657 143.441C451.085 143.835 449.612 144.032 448.434 143.933C440.577 143.737 437.729 142.556 435.273 140.195C433.702 138.719 424.961 126.323 417.89 105.761C416.515 101.826 415.926 98.8744 415.926 96.8084C415.926 96.6116 415.926 96.4149 415.926 96.2181C415.926 96.0213 415.926 95.8246 416.024 95.7262C416.024 95.5294 416.024 95.431 416.122 95.3327C416.319 94.5456 416.613 94.0537 417.006 93.6602C421.72 100.252 444.604 131.144 452.657 143.441Z" fill="black"/>
<path d="M503.825 104.384H450.987V107.237H503.825V104.384Z" fill="#C7C7C7"/>
<path d="M503.923 104.384V107.237H471.808L473.969 104.384H503.923Z" fill="#A6A6A6"/>
<path d="M476.326 107.237H511.682L530.048 75.9512H494.691L476.326 107.237Z" fill="#C7C7C7"/>
<path d="M501.861 91.5941C501.173 93.0698 501.664 94.5455 502.941 95.0374C504.218 95.431 505.789 94.6439 506.379 93.1682C507.066 91.6924 506.575 90.2167 505.298 89.7248C504.022 89.3313 502.548 90.1183 501.861 91.5941Z" fill="white"/>
<path d="M381.846 162.134C381.945 162.232 437.238 161.839 437.729 161.347C438.416 160.56 425.354 100.743 419.56 93.3647C418.283 91.7906 414.354 91.3971 410.917 91.889C409.935 91.9874 409.051 92.1841 408.265 92.4793C408.265 92.4793 408.265 92.4793 408.167 92.4793C407.381 92.7744 406.694 93.0696 406.301 93.4631C396.873 101.137 389.212 127.7 387.444 135.571C384.498 148.557 381.355 161.543 381.846 162.134Z" fill="#EBEBEB"/>
<path d="M407.676 92.4795C407.676 92.4795 411.31 117.075 412.096 123.47C412.979 129.865 412.096 163.61 412.096 163.61L377.427 166.561C377.427 166.561 384.695 144.13 384.793 142.753C384.793 142.753 390.587 115.894 396.48 104.777C400.899 96.5132 407.676 92.4795 407.676 92.4795Z" fill="#517BCC"/>
<path d="M419.167 92.873C419.167 92.873 423.881 117.764 424.274 119.83C424.667 121.896 430.657 162.331 430.657 162.331L439.3 162.528L434.586 144.032C434.684 144.13 424.568 96.7099 419.167 92.873Z" fill="#517BCC"/>
<path d="M417.203 100.842C414.551 101.137 409.542 97.4966 408.167 93.5613C408.069 93.2661 408.855 90.8066 409.64 87.6584C410.131 85.7891 410.622 83.6247 410.917 81.6571C411.015 81.2635 422.801 86.5762 422.801 86.5762C422.801 86.5762 420.935 90.5114 420.444 93.9548C420.444 94.25 420.345 94.5451 420.444 94.7419V94.8403C420.444 96.6111 420.051 100.546 417.203 100.842Z" fill="#C95F50"/>
<path d="M420.444 94.8402V94.9386C420.051 94.9386 419.658 94.8402 419.167 94.8402C411.899 93.5612 411.506 84.1165 411.506 81.7554C413.667 82.444 422.899 86.6745 422.899 86.6745C422.899 86.6745 421.033 90.6098 420.542 94.0531C420.444 94.3483 420.444 94.6434 420.444 94.8402Z" fill="#263238"/>
<path d="M411.113 66.0144C409.247 70.2448 409.935 83.2312 412.685 86.4778C416.712 91.2002 424.077 92.4792 428.202 87.4617C432.229 82.6409 430.952 65.7192 427.809 62.6694C423.292 58.2422 413.962 59.8163 411.113 66.0144Z" fill="#C95F50"/>
<path d="M420.738 75.2625C420.738 75.1641 420.64 75.2625 420.738 75.2625C420.738 76.2463 420.64 77.2301 419.953 77.5253C419.953 77.5253 419.953 77.6236 419.953 77.5253C420.836 77.4269 420.935 76.0495 420.738 75.2625Z" fill="#263238"/>
<path d="M419.854 74.377C418.479 74.377 418.479 77.1317 419.756 77.23C421.131 77.23 421.033 74.377 419.854 74.377Z" fill="#263238"/>
<path d="M426.042 75.1641C426.042 75.1641 426.14 75.2624 426.042 75.1641C426.14 76.1479 426.238 77.1317 427.024 77.4268C427.024 77.4268 427.024 77.5252 427.024 77.4268C426.042 77.3285 425.943 76.0495 426.042 75.1641Z" fill="#263238"/>
<path d="M426.828 74.2785C428.203 74.1801 428.399 76.9348 427.123 77.1315C425.846 77.2299 425.649 74.3768 426.828 74.2785Z" fill="#263238"/>
<path d="M418.774 73.0978C419.167 72.9994 419.461 72.8027 419.854 72.7043C420.247 72.5075 420.64 72.5075 420.935 72.114C421.033 71.9172 421.033 71.5237 420.836 71.4253C420.444 71.0318 419.854 71.1302 419.363 71.327C418.774 71.5237 418.479 71.8189 418.086 72.3108C417.694 72.6059 418.283 73.1962 418.774 73.0978Z" fill="#263238"/>
<path d="M427.908 71.9173C427.515 71.8189 427.122 71.7206 426.827 71.6222C426.434 71.5238 426.042 71.4254 425.747 71.1303C425.551 70.9335 425.649 70.54 425.747 70.4416C426.14 70.0481 426.729 70.0481 427.22 70.1465C427.809 70.2448 428.202 70.54 428.595 70.9335C428.89 71.327 428.399 72.0157 427.908 71.9173Z" fill="#263238"/>
<path d="M420.444 83.3296C420.64 83.5264 420.836 83.8215 421.229 83.8215C421.524 83.8215 421.917 83.7231 422.211 83.6247C422.211 83.6247 422.31 83.6247 422.211 83.6247C422.015 83.9199 421.524 84.215 421.131 84.1166C420.64 84.1166 420.444 83.7231 420.444 83.3296C420.345 83.3296 420.345 83.3296 420.444 83.3296Z" fill="#263238"/>
<path d="M421.327 80.6735C421.819 81.4605 422.506 81.8541 423.292 81.9525C423.685 82.0508 423.979 82.0508 424.372 81.9525C424.47 81.9525 424.47 81.9525 424.568 81.9525C424.667 81.9525 424.667 81.9525 424.765 81.9525C424.863 81.9525 424.961 81.8541 424.961 81.7557V81.6573V81.5589C424.961 80.8702 424.863 79.8864 424.863 79.8864C425.158 79.9848 426.336 80.5751 426.336 80.1816C426.14 77.2301 425.943 73.9835 425.06 71.1304C425.06 71.032 424.863 71.032 424.863 71.1304C424.961 73.9835 425.551 76.7382 425.649 79.4929C425.256 79.2961 424.568 79.0994 424.274 79.0994C424.176 79.0994 424.47 81.067 424.47 81.3622C423.39 81.7557 422.506 81.3622 421.327 80.6735C421.327 80.5751 421.229 80.6735 421.327 80.6735Z" fill="#263238"/>
<path d="M423.979 81.7555C423.979 81.7555 423.39 82.5426 422.604 82.8377C422.31 82.9361 422.015 83.0345 421.622 82.9361C420.935 82.7394 420.935 82.1491 421.033 81.5588C421.131 81.0669 421.327 80.6733 421.327 80.6733C421.327 80.6733 422.31 81.6572 423.979 81.7555Z" fill="#263238"/>
<path d="M422.604 82.8376C422.31 82.9359 422.015 83.0343 421.622 82.9359C420.935 82.7392 420.935 82.1489 421.033 81.5586C421.72 81.5586 422.506 82.1489 422.604 82.8376Z" fill="#FF9BBC"/>
<path d="M410.033 77.2299C410.033 77.2299 406.89 69.4577 407.971 65.4241C408.462 63.5548 411.212 62.7678 411.212 62.7678C411.212 62.7678 410.819 60.4066 413.176 58.7341C415.729 57.0616 420.935 58.3406 420.935 58.3406C420.935 58.3406 425.158 53.9134 429.675 56.6681C434.193 59.4228 430.166 64.4403 430.166 64.4403C430.166 64.4403 431.541 67.2933 426.827 68.5723C422.31 69.8513 413.962 66.5063 413.962 66.5063C413.962 66.5063 413.962 71.0318 412.39 75.459C411.801 77.1315 410.033 77.2299 410.033 77.2299Z" fill="#263238"/>
<path d="M421.819 58.6358C420.836 57.9471 419.658 57.652 418.479 57.4552C417.399 57.2584 416.319 57.2584 415.337 57.4552C413.471 57.7503 411.703 58.8325 411.113 60.7018C410.819 61.6856 410.917 62.6694 411.31 63.5549H411.408C410.524 61.9808 411.408 59.9147 412.783 58.9309C414.354 57.8487 416.417 57.652 418.185 57.8487C419.363 57.9471 420.542 58.3406 421.72 58.8325C421.819 58.7342 421.819 58.6358 421.819 58.6358Z" fill="#263238"/>
<path d="M432.818 59.718C432.622 58.2423 431.64 57.2585 430.363 56.5698C428.988 55.8811 427.318 55.6843 425.747 55.9795C424.176 56.2746 422.702 57.0617 421.524 58.1439C421.524 58.1439 421.524 58.2423 421.524 58.1439C423.685 56.2746 426.729 55.4876 429.479 56.5698C430.658 57.0617 431.836 57.9471 432.229 59.2261C432.622 60.4067 432.229 61.784 431.542 62.8662C430.658 64.1452 429.283 64.9323 427.908 65.5226V65.6209C429.184 65.129 430.461 64.5387 431.443 63.4565C432.425 62.3743 433.015 60.997 432.818 59.718Z" fill="#263238"/>
<path d="M427.908 69.064C425.845 69.5559 423.685 69.5559 421.622 69.1624C419.461 68.7688 417.399 68.0802 415.337 67.1947C414.158 66.7028 412.98 66.1125 411.801 65.6206C411.801 65.6206 411.703 65.6206 411.801 65.719C413.765 66.8996 415.828 68.0802 418.087 68.8672C420.149 69.5559 422.31 69.9494 424.47 69.851C425.649 69.6543 426.827 69.4575 427.908 69.064C428.006 69.064 427.908 69.064 427.908 69.064Z" fill="#263238"/>
<path d="M413.078 76.9347C413.078 76.9347 410.622 72.5075 408.658 73.393C406.694 74.18 408.265 80.3781 410.328 81.4603C412.39 82.5425 413.47 80.5748 413.47 80.5748L413.078 76.9347Z" fill="#C95F50"/>
<path d="M409.149 75.1638C409.051 75.0655 409.051 75.1638 409.149 75.1638C410.622 76.0493 411.212 77.525 411.703 79.0991C411.31 78.5088 410.72 78.1153 409.935 78.6072V78.7056C410.622 78.6072 411.015 78.804 411.408 79.2959C411.703 79.6894 411.801 80.1813 411.997 80.5749C412.095 80.6732 412.292 80.6732 412.292 80.4765C412.39 78.4104 411.212 75.5574 409.149 75.1638Z" fill="#263238"/>
<path d="M400.703 98.185C386.757 113.828 376.347 135.865 376.445 141.08C376.543 146.786 383.811 166.856 390.784 176.3C391.668 177.481 397.069 176.989 401.587 174.529C406.399 171.873 410.328 167.151 409.346 165.773C405.81 160.461 397.364 139.997 397.462 136.849C397.56 133.898 404.435 115.795 406.989 105.268C409.64 95.1351 407.185 90.9047 400.703 98.185Z" fill="#C95F50"/>
<path d="M382.337 174.726L408.265 162.035C408.265 162.035 398.051 139.309 398.051 136.849C398.051 134.39 404.73 115.107 407.283 106.252C409.837 97.3981 408.855 87.3631 397.757 100.841C386.659 114.32 377.034 134.291 375.954 139.604C374.775 144.818 382.337 174.726 382.337 174.726Z" fill="#517BCC"/>
<path d="M399.328 130.258C399.819 128.585 400.408 126.913 400.998 125.24C401.587 123.371 402.274 121.502 402.962 119.632C403.649 117.862 404.435 116.091 405.123 114.221C405.221 114.123 405.417 114.221 405.319 114.32C404.435 116.681 403.649 119.141 402.864 121.502C403.453 120.419 404.042 119.337 404.73 118.255C404.828 118.157 404.926 118.255 404.828 118.353C404.14 119.731 403.355 121.01 402.569 122.289C402.373 122.879 402.176 123.469 401.98 124.06C400.899 127.306 399.819 130.553 398.935 133.898C398.739 134.685 398.542 135.374 398.444 136.161C398.346 137.046 398.542 137.931 398.837 138.719C399.328 140.194 399.819 141.768 400.408 143.244C401.489 146.294 402.667 149.245 403.944 152.197C405.319 155.542 406.989 158.887 408.56 162.133L407.578 162.429C407.578 162.429 407.48 162.429 407.48 162.33L408.069 162.035C406.498 159.182 404.926 156.427 403.551 153.476C402.176 150.524 400.998 147.573 399.917 144.523C399.328 142.949 398.837 141.375 398.346 139.801C397.855 138.227 397.56 136.751 397.953 135.177C398.248 133.406 398.837 131.832 399.328 130.258Z" fill="#263238"/>
<path d="M381.846 167.348C382.73 166.757 383.712 166.462 384.695 165.97C385.578 165.577 386.364 165.183 387.248 164.79C389.114 164.003 390.98 163.117 392.846 162.232C394.712 161.445 396.578 160.559 398.444 159.772C400.31 158.985 402.078 158.1 404.042 157.411C404.14 157.411 404.14 157.51 404.14 157.51C402.373 158.592 400.605 159.477 398.739 160.363C396.971 161.248 395.105 162.133 393.337 162.921C391.471 163.708 389.605 164.495 387.739 165.282C386.855 165.675 385.873 165.97 384.989 166.364C383.909 166.757 382.927 167.249 381.846 167.348C381.846 167.544 381.846 167.446 381.846 167.348Z" fill="#263238"/>
</g>
<defs>
<clipPath id="clip0_1078_13476">
<rect width="637" height="377" fill="white"/>
</clipPath>
</defs>
</svg>
