<svg width="664" height="495" viewBox="0 0 664 495" fill="none" xmlns="http://www.w3.org/2000/svg">
<path d="M664 434.952H0V435.217H664V434.952Z" fill="#EBEBEB"/>
<path d="M419.25 444.118H385.386V444.384H419.25V444.118Z" fill="#EBEBEB"/>
<path d="M604.771 451.292H524.693V451.558H604.771V451.292Z" fill="#EBEBEB"/>
<path d="M378.214 444.251H295.48V444.517H378.214V444.251Z" fill="#EBEBEB"/>
<path d="M241.696 454.215H224.432V454.481H241.696V454.215Z" fill="#EBEBEB"/>
<path d="M337.445 454.215H258.562V454.481H337.445V454.215Z" fill="#EBEBEB"/>
<path d="M120.848 448.502H69.72V448.768H120.848V448.502Z" fill="#EBEBEB"/>
<path d="M314.736 375.7H58.2992C54.1824 375.7 50.7296 372.246 50.7296 368.128V7.57246C50.7296 3.45411 54.1824 0 58.2992 0H314.736C318.853 0 322.306 3.45411 322.306 7.57246V368.128C322.306 372.379 318.986 375.7 314.736 375.7ZM58.2992 0.2657C54.3152 0.2657 50.9952 3.45411 50.9952 7.57246V368.128C50.9952 372.114 54.1824 375.435 58.2992 375.435H314.736C318.72 375.435 322.04 372.246 322.04 368.128V7.57246C322.04 3.58696 318.853 0.2657 314.736 0.2657H58.2992Z" fill="#EBEBEB"/>
<path d="M601.982 375.7H345.546C341.429 375.7 337.976 372.246 337.976 368.128V7.57246C337.976 3.45411 341.429 0 345.546 0H601.982C606.099 0 609.552 3.45411 609.552 7.57246V368.128C609.552 372.379 606.232 375.7 601.982 375.7ZM345.546 0.2657C341.562 0.2657 338.242 3.45411 338.242 7.57246V368.128C338.242 372.114 341.429 375.435 345.546 375.435H601.982C605.966 375.435 609.286 372.246 609.286 368.128V7.57246C609.286 3.58696 606.099 0.2657 601.982 0.2657H345.546Z" fill="#EBEBEB"/>
<path d="M260.288 319.771H172.109L166.664 257.995H254.843L260.288 319.771Z" fill="#E6E6E6"/>
<path d="M264.803 319.771H176.624L171.312 257.995H259.491L264.803 319.771Z" fill="#F0F0F0"/>
<path d="M188.709 306.486L185.787 271.28H247.406L250.328 306.486H188.709Z" fill="white"/>
<path d="M280.075 319.771H269.717V434.952H280.075V319.771Z" fill="#E6E6E6"/>
<path d="M283.262 319.771H276.091V434.952H283.262V319.771Z" fill="#F0F0F0"/>
<path d="M183.247 332.525H283.379V319.772H183.247V332.525Z" fill="#F0F0F0"/>
<path d="M186.717 332.524H176.358V435.084H186.717V332.524Z" fill="#E6E6E6"/>
<path d="M190.037 332.524H182.865V435.084H190.037V332.524Z" fill="#F0F0F0"/>
<path d="M113.146 332.524H102.787V435.084H113.146V332.524Z" fill="#E6E6E6"/>
<path d="M116.333 332.524H109.161V435.084H116.333V332.524Z" fill="#F0F0F0"/>
<path d="M214.605 332.524H204.246V435.084H214.605V332.524Z" fill="#E6E6E6"/>
<path d="M217.792 332.524H210.621V435.084H217.792V332.524Z" fill="#F0F0F0"/>
<path d="M183.264 319.771H102.787V332.524H183.264V319.771Z" fill="#E6E6E6"/>
<path d="M483.126 32.5483H171.976V205.918H483.126V32.5483Z" fill="#E0E0E0"/>
<path d="M500.258 32.5483H173.57V205.918H500.258V32.5483Z" fill="#F5F5F5"/>
<path d="M494.929 200.457L494.929 37.8486L178.865 37.8486L178.865 200.457L494.929 200.457Z" fill="white"/>
<path d="M306.901 200.471L366.528 37.8623H267.99L208.363 200.471H306.901Z" fill="#F5F5F5"/>
<path d="M401.587 200.471L461.347 37.8623H386.979L327.352 200.471H401.587Z" fill="#F5F5F5"/>
<path d="M581.797 269.553H555.37V435.085H581.797V269.553Z" fill="#E6E6E6"/>
<path d="M574.891 434.952H581.797V422.331H567.587L574.891 434.952Z" fill="#FAFAFA"/>
<path d="M337.843 269.553H311.416V435.085H337.843V269.553Z" fill="#E6E6E6"/>
<path d="M581.797 269.553H331.867V431.631H581.797V269.553Z" fill="#FAFAFA"/>
<path d="M577.016 321.763H336.515V275.93H577.016V321.763ZM337.843 320.435H575.688V277.259H337.843V320.435Z" fill="#E6E6E6"/>
<path d="M534.786 298.249H383.526C376.488 298.249 369.715 292.536 364.934 282.705L364.536 281.775H553.776L553.378 282.705C548.464 292.536 541.824 298.249 534.786 298.249ZM366.661 283.104C371.176 291.872 377.285 296.92 383.526 296.92H534.653C540.894 296.92 547.003 291.872 551.518 283.104H366.661Z" fill="#E6E6E6"/>
<path d="M338.773 434.952H331.867V422.331H346.077L338.773 434.952Z" fill="#FAFAFA"/>
<path d="M577.016 373.442H336.515V327.609H577.016V373.442ZM337.843 372.114H575.688V328.937H337.843V372.114Z" fill="#E6E6E6"/>
<path d="M534.786 349.928H383.526C376.488 349.928 369.715 344.215 364.934 334.384L364.536 333.454H553.776L553.378 334.384C548.464 344.215 541.824 349.928 534.786 349.928ZM366.661 334.65C371.176 343.418 377.285 348.466 383.526 348.466H534.653C540.894 348.466 547.003 343.418 551.518 334.65H366.661Z" fill="#E6E6E6"/>
<path d="M577.016 424.988H336.515V379.155H577.016V424.988ZM337.843 423.66H575.688V380.483H337.843V423.66Z" fill="#E6E6E6"/>
<path d="M534.786 401.473H383.526C376.488 401.473 369.715 395.761 364.934 385.93L364.536 385H553.776L553.378 385.93C548.464 395.894 541.824 401.473 534.786 401.473ZM366.661 386.329C371.176 395.097 377.285 400.145 383.526 400.145H534.653C540.894 400.145 547.003 395.097 551.518 386.329H366.661Z" fill="#E6E6E6"/>
<path d="M160.688 291.34V294.529H158.563L156.97 319.77H131.87L130.144 294.529H128.152V291.34H160.688Z" fill="#E6E6E6"/>
<path d="M152.454 228.901C150.462 213.889 130.144 209.638 104.514 209.106C80.0784 208.575 72.2432 199.939 72.2432 199.939C72.2432 199.939 72.376 235.012 107.568 247.633C140.901 259.589 154.446 243.913 152.454 228.901Z" fill="#E6E6E6"/>
<path d="M139.971 262.91C140.37 256.799 150.197 245.374 173.968 250.555C191.099 254.275 197.474 245.374 197.474 245.374C197.474 245.374 195.88 270.483 170.117 278.055C145.549 285.096 139.174 273.671 139.971 262.91Z" fill="#E6E6E6"/>
<path d="M145.416 300.906C145.681 300.906 145.947 300.773 146.08 300.64C147.806 298.647 146.345 293.732 144.486 286.957C141.963 278.321 138.909 267.56 141.565 259.722C143.025 255.338 144.885 251.486 146.611 247.633C150.329 239.795 153.517 233.019 150.861 225.845C150.728 225.314 150.197 225.181 149.665 225.314C149.134 225.447 149.001 225.978 149.134 226.51C151.525 232.886 148.603 238.998 144.885 246.836C143.158 250.423 141.166 254.541 139.705 259.058C136.917 267.428 140.104 278.454 142.627 287.355C144.088 292.536 145.681 297.983 144.619 299.312C144.353 299.71 144.353 300.242 144.752 300.64C144.885 300.773 145.15 300.906 145.416 300.906Z" fill="#E6E6E6"/>
<path d="M332 495C474.213 495 589.499 488.279 589.499 479.988C589.499 471.697 474.213 464.976 332 464.976C189.787 464.976 74.5009 471.697 74.5009 479.988C74.5009 488.279 189.787 495 332 495Z" fill="#F5F5F5"/>
<path d="M332 406.655H143.424L133.066 103.225H321.642L332 406.655Z" fill="#406DCD"/>
<path d="M341.296 397.222H152.72L142.494 93.7925H331.07L341.296 397.222Z" fill="#407BFF"/>
<path opacity="0.3" d="M341.296 397.222H152.72L142.494 93.7925H331.07L341.296 397.222Z" fill="white"/>
<path d="M278.123 218.645C298.332 198.083 297.5 164.483 276.266 143.598C255.032 122.714 221.436 122.452 201.227 143.014C181.019 163.576 181.85 197.176 203.084 218.06C224.319 238.945 257.915 239.207 278.123 218.645Z" fill="#406DCD"/>
<path d="M283.528 180.809C283.794 188.382 282.067 195.423 279.013 201.667C272.107 215.35 257.898 224.65 241.298 224.65C224.698 224.65 209.824 215.35 201.989 201.667C198.403 195.423 196.278 188.382 196.013 180.809C195.216 156.631 214.074 136.969 238.243 136.969C262.413 137.102 282.598 156.631 283.528 180.809Z" fill="white"/>
<path opacity="0.6" d="M278.88 201.667C271.974 215.35 257.765 224.65 241.165 224.65C224.565 224.65 209.691 215.35 201.856 201.667C212.613 194.36 225.76 189.976 239.97 189.976C254.312 190.109 267.592 194.36 278.88 201.667Z" fill="#407BFF"/>
<path opacity="0.6" d="M253.338 179.808C260.743 172.274 260.428 159.953 252.635 152.288C244.842 144.623 232.522 144.518 225.117 152.052C217.713 159.586 218.027 171.907 225.82 179.572C233.613 187.237 245.933 187.342 253.338 179.808Z" fill="#407BFF"/>
<path d="M303.448 287.355H183.131L182.334 263.442H302.651L303.448 287.355Z" fill="white"/>
<path d="M304.909 330.133H184.592L183.795 306.22H304.112L304.909 330.133Z" fill="white"/>
<path d="M258.562 309.541L229.611 313.527C228.416 313.66 227.619 314.722 227.885 315.918L231.736 335.314C232.002 336.51 233.064 337.307 234.259 337.174L263.21 333.189C264.405 333.056 265.202 331.993 264.936 330.797L261.085 311.401C260.819 310.205 259.757 309.276 258.562 309.541ZM250.195 329.203L244.883 329.867L244.352 323.623C243.29 323.092 242.36 322.162 242.227 320.966C241.829 319.106 243.157 317.247 245.149 316.981C247.141 316.715 249 318.044 249.398 319.904C249.664 321.099 249.266 322.162 248.336 322.959L250.195 329.203Z" fill="#406DCD"/>
<path d="M255.64 308.478C254.578 308.611 253.515 307.947 253.382 306.884L252.984 305.024C251.922 299.843 247.008 295.858 241.563 296.256C235.72 296.788 231.869 301.836 232.931 307.416L233.33 309.541C233.595 310.604 232.798 311.534 231.736 311.667C230.674 311.8 229.611 311.135 229.478 310.073L229.08 308.213C227.619 300.906 232.267 293.865 239.704 292.669C247.539 291.341 255.242 296.522 256.702 304.227L257.101 306.353C257.366 307.283 256.702 308.346 255.64 308.478Z" fill="#406DCD"/>
<path d="M285.122 363.611H206.77L206.238 348.068H284.59L285.122 363.611Z" fill="#406DCD"/>
<path d="M247.274 275.399C247.406 277.79 245.414 279.783 243.024 279.783C240.634 279.783 238.642 277.79 238.509 275.399C238.376 273.007 240.368 271.015 242.758 271.015C245.149 271.015 247.274 273.007 247.274 275.399Z" fill="#263238"/>
<path d="M228.416 275.399C228.549 277.79 226.557 279.783 224.166 279.783C221.776 279.783 219.784 277.79 219.651 275.399C219.518 273.007 221.51 271.015 223.901 271.015C226.291 271.015 228.416 273.007 228.416 275.399Z" fill="#263238"/>
<path d="M209.691 275.399C209.824 277.79 207.832 279.783 205.442 279.783C203.051 279.783 201.059 277.79 200.926 275.399C200.794 273.007 202.786 271.015 205.176 271.015C207.566 271.015 209.558 273.007 209.691 275.399Z" fill="#263238"/>
<path d="M266.131 275.399C266.264 277.79 264.272 279.783 261.882 279.783C259.491 279.783 257.499 277.79 257.366 275.399C257.234 273.007 259.226 271.015 261.616 271.015C264.006 271.015 265.998 273.007 266.131 275.399Z" fill="#263238"/>
<path d="M284.989 275.399C285.122 277.79 283.13 279.783 280.739 279.783C278.349 279.783 276.357 277.79 276.224 275.399C276.091 273.007 278.083 271.015 280.474 271.015C282.864 271.015 284.856 273.007 284.989 275.399Z" fill="#263238"/>
<path d="M443.419 158.49C445.146 161.28 446.606 164.07 448.2 166.86C449.661 169.65 451.122 172.572 452.45 175.495C455.106 181.34 457.496 187.319 459.222 193.696C459.488 194.493 459.621 195.29 459.886 196.087L460.152 197.282L460.285 197.947L460.418 199.01C460.816 201.667 460.418 203.925 460.019 205.918C459.09 209.77 457.496 212.826 455.902 215.882C452.582 221.727 448.598 226.642 444.083 231.425L438.506 227.174C441.294 221.993 443.95 216.413 445.942 211.232C446.872 208.575 447.669 205.918 447.934 203.792C448.067 202.729 447.934 201.799 447.802 201.401L447.27 199.807C447.005 199.142 446.872 198.478 446.606 197.814C444.747 192.5 442.224 187.053 439.568 181.739C436.912 176.425 434.123 171.111 431.202 166.063L443.419 158.49Z" fill="#FF8B7B"/>
<path d="M439.834 225.181L433.725 228.37L440.763 236.606C440.763 236.606 445.146 233.684 445.278 229.167L439.834 225.181Z" fill="#FF8B7B"/>
<path d="M425.624 233.418L433.061 239.396L440.763 236.606L433.725 228.37L425.624 233.418Z" fill="#FF8B7B"/>
<path d="M399.994 115.048C399.861 115.845 399.33 116.244 398.798 116.244C398.267 116.111 398.002 115.447 398.134 114.783C398.267 113.985 398.798 113.587 399.33 113.587C399.861 113.587 400.126 114.384 399.994 115.048Z" fill="#263238"/>
<path d="M399.329 116.377C399.329 116.377 396.806 120.362 394.549 121.957C395.611 123.418 398.002 123.285 398.002 123.285L399.329 116.377Z" fill="#FF5652"/>
<path d="M396.939 142.416V133.647L408.493 134.976C408.493 134.976 408.36 142.416 401.853 144.674L396.939 142.416Z" fill="#FF8B7B"/>
<path d="M400.259 127.403L408.36 129.795L408.493 135.109L396.939 133.647L400.259 127.403Z" fill="#FF8B7B"/>
<path opacity="0.2" d="M408.36 129.795L400.259 127.403L398.666 130.459C398.798 135.64 401.985 139.758 406.102 141.751C408.36 138.828 408.493 135.109 408.493 135.109L408.36 129.795Z" fill="black"/>
<path d="M403.446 111.461C403.579 111.461 403.712 111.461 403.712 111.328C403.845 111.196 403.845 110.93 403.712 110.664C401.986 108.804 399.994 109.203 399.994 109.203C399.728 109.203 399.595 109.469 399.595 109.734C399.595 110 399.861 110.133 400.126 110.133C400.126 110.133 401.72 109.867 403.048 111.328C403.181 111.461 403.314 111.461 403.446 111.461Z" fill="#263238"/>
<path d="M420.445 128.466C419.117 135.242 418.32 144.807 423.101 149.324C423.101 149.324 421.241 156.232 408.493 156.232C394.549 156.232 401.72 150.121 401.72 150.121C407.563 148.261 407.43 141.751 406.102 136.437L420.445 128.466Z" fill="#FF8B7B"/>
<path d="M425.624 153.973C426.819 152.246 426.819 146.667 425.491 145.604C423.366 144.01 414.203 143.611 401.853 146.534C403.181 151.981 400.392 154.771 400.392 154.771L425.624 153.973Z" fill="#407BFF"/>
<path d="M467.19 469.36C466.261 469.625 465.331 469.625 464.8 469.227C464.667 469.094 464.402 468.696 464.534 468.164C464.667 467.898 464.8 467.633 465.066 467.5C466.261 466.836 469.182 468.031 469.315 468.164C469.448 468.164 469.448 468.297 469.448 468.297C469.448 468.43 469.448 468.43 469.315 468.563C469.05 468.828 468.12 469.094 467.19 469.36ZM465.73 467.898C465.597 467.898 465.597 467.898 465.464 468.031C465.331 468.164 465.198 468.297 465.066 468.43C464.933 468.828 465.066 468.961 465.198 468.961C465.73 469.36 467.589 468.961 468.917 468.43C467.987 468.031 466.526 467.633 465.73 467.898Z" fill="#407BFF"/>
<path d="M469.448 468.563C468.253 468.297 465.995 466.703 465.995 465.64C465.995 465.507 465.995 465.109 466.526 464.976C466.792 464.843 467.19 464.843 467.456 465.109C468.651 465.773 469.448 468.297 469.581 468.43C469.714 468.43 469.581 468.43 469.448 468.563C469.581 468.563 469.448 468.563 469.448 468.563ZM466.792 465.242C466.394 465.374 466.394 465.507 466.394 465.507C466.394 466.172 467.854 467.367 469.05 467.899C468.784 467.102 468.12 465.64 467.323 465.242C467.19 465.242 467.058 465.242 466.792 465.242Z" fill="#407BFF"/>
<path d="M398.267 470.954C397.072 470.954 395.877 470.821 395.478 470.29C395.345 470.157 395.213 469.758 395.478 469.36C395.611 469.094 395.877 468.961 396.142 468.828C397.736 468.43 400.923 470.29 401.056 470.29C401.189 470.29 401.189 470.423 401.189 470.556C401.189 470.688 401.056 470.688 401.056 470.688C400.525 470.821 399.33 470.954 398.267 470.954ZM396.674 469.094C396.541 469.094 396.408 469.094 396.275 469.094C396.01 469.094 395.877 469.227 395.877 469.36C395.744 469.626 395.744 469.758 395.877 469.891C396.275 470.556 398.666 470.556 400.392 470.29C399.462 469.891 397.869 469.094 396.674 469.094Z" fill="#407BFF"/>
<path d="M401.056 470.688C401.056 470.688 400.923 470.688 401.056 470.688C399.861 470.157 397.603 468.164 397.736 467.101C397.736 466.836 398.002 466.57 398.533 466.437C398.931 466.437 399.462 466.57 399.728 466.836C400.923 467.766 401.189 470.29 401.189 470.423C401.322 470.423 401.189 470.555 401.056 470.688C401.189 470.688 401.056 470.688 401.056 470.688ZM398.798 466.836H398.666C398.267 466.836 398.267 466.968 398.267 467.101C398.134 467.766 399.728 469.36 400.79 470.024C400.658 469.227 400.392 467.766 399.595 467.101C399.33 466.968 399.064 466.836 398.798 466.836Z" fill="#407BFF"/>
<path d="M411.282 470.423H401.986L401.056 448.768H410.352L411.282 470.423Z" fill="#FF8B7B"/>
<path d="M479.806 466.038L470.776 468.031L461.613 447.971L470.643 445.978L479.806 466.038Z" fill="#FF8B7B"/>
<path d="M469.846 467.101L480.072 464.843C480.47 464.71 480.869 464.976 481.001 465.242L484.587 472.947C484.985 473.744 484.454 474.674 483.657 474.807C480.072 475.471 478.213 475.737 473.83 476.667C471.041 477.331 464.8 478.792 460.949 479.589C457.23 480.386 455.769 476.799 457.23 476.002C463.87 472.947 466.792 470.29 468.518 467.766C468.784 467.633 469.315 467.234 469.846 467.101Z" fill="#263238"/>
<path d="M401.986 469.36H412.211C412.61 469.36 412.875 469.626 413.008 470.024L414.867 478.394C415 479.191 414.469 480.121 413.539 480.121C409.821 480.121 404.509 479.855 399.861 479.855C394.416 479.855 389.768 480.121 383.394 480.121C379.542 480.121 378.48 476.268 380.074 475.87C387.378 474.275 393.354 474.142 399.728 470.157C400.525 469.626 401.189 469.36 401.986 469.36Z" fill="#263238"/>
<path d="M439.834 151.449C448.598 153.442 455.77 175.761 455.77 175.761L438.24 189.312C438.24 189.312 431.733 183.201 428.944 172.041C425.89 160.217 430.803 149.457 439.834 151.449Z" fill="#407BFF"/>
<path opacity="0.4" d="M439.834 151.449C448.598 153.442 455.77 175.761 455.77 175.761L438.24 189.312C438.24 189.312 431.733 183.201 428.944 172.041C425.89 160.217 430.803 149.457 439.834 151.449Z" fill="black"/>
<path d="M393.752 178.152C391.627 180.543 389.37 182.669 387.112 184.794C386.05 185.857 384.854 186.92 383.659 187.983L381.933 189.577L381.534 189.976C381.269 190.108 381.003 190.374 380.738 190.64C380.206 191.038 379.542 191.57 378.214 192.101C377.55 192.367 376.621 192.765 375.027 192.765C374.23 192.765 373.168 192.633 372.238 192.234C371.176 191.836 370.246 191.171 369.582 190.507C368.254 189.046 367.723 187.85 367.458 187.053C367.192 186.256 367.192 185.592 367.059 185.06C366.926 183.997 367.059 183.333 367.059 182.669C367.059 182.005 367.192 181.473 367.325 180.942C367.723 178.949 368.254 177.222 368.918 175.628C369.582 174.034 370.246 172.439 371.043 170.845C371.84 169.118 372.637 167.922 373.566 166.461C376.886 161.014 380.738 155.966 384.854 151.183C388.971 146.534 393.486 142.15 398.533 138.297L403.446 143.345C399.994 147.995 396.674 152.91 393.486 157.693C390.432 162.608 387.51 167.524 384.987 172.572C384.456 173.768 383.659 175.229 383.261 176.292C382.73 177.488 382.331 178.683 382.066 179.879C381.667 181.075 381.402 182.27 381.269 183.2C381.269 183.466 381.269 183.599 381.269 183.732C381.269 183.865 381.269 183.865 381.269 183.599C381.269 183.466 381.269 183.2 381.136 182.669C381.003 182.27 380.738 181.34 379.542 180.145C379.011 179.613 378.214 179.082 377.418 178.816C376.621 178.551 375.691 178.418 375.16 178.418C373.965 178.418 373.434 178.683 373.035 178.816C372.371 179.082 372.371 179.215 372.371 179.082L372.902 178.683L374.496 177.222L377.683 174.299C379.808 172.307 381.933 170.181 383.925 168.188L393.752 178.152Z" fill="#FF8B7B"/>
<path opacity="0.2" d="M432.264 167.923C437.045 172.573 438.506 181.208 438.904 188.648L438.107 189.312C438.107 189.312 431.6 183.201 428.811 172.041C428.678 171.377 428.546 170.58 428.413 169.916L432.264 167.923Z" fill="black"/>
<path d="M384.456 160.881C382.597 170.978 381.401 191.703 386.846 232.753H436.912C437.31 225.048 432.397 187.717 439.833 151.449C439.833 151.449 431.334 149.722 423.101 149.323C416.726 149.058 407.43 148.792 401.853 149.323C399.462 149.589 397.205 149.855 395.213 150.253C389.768 151.183 385.518 155.435 384.456 160.881Z" fill="#407BFF"/>
<path opacity="0.4" d="M384.456 160.881C382.597 170.978 381.401 191.703 386.846 232.753H436.912C437.31 225.048 432.397 187.717 439.833 151.449C439.833 151.449 431.334 149.722 423.101 149.323C416.726 149.058 407.43 148.792 401.853 149.323C399.462 149.589 397.205 149.855 395.213 150.253C389.768 151.183 385.518 155.435 384.456 160.881Z" fill="black"/>
<path opacity="0.2" d="M392.158 175.761L383.128 173.635C382.862 179.082 382.862 185.857 383.261 194.227C387.378 189.577 392.69 182.138 392.158 175.761Z" fill="black"/>
<path opacity="0.2" d="M401.056 448.768L401.587 459.928H410.883L410.352 448.768H401.056Z" fill="black"/>
<path opacity="0.2" d="M470.776 445.978L461.613 447.971L466.261 458.333L475.424 456.34L470.776 445.978Z" fill="black"/>
<path d="M424.827 118.502C422.437 127.403 421.507 132.85 415.93 136.57C407.563 142.15 397.205 135.773 396.939 126.208C396.674 117.705 400.658 104.42 410.219 102.693C419.781 100.833 427.218 109.601 424.827 118.502Z" fill="#FF8B7B"/>
<path d="M403.845 118.901C403.446 117.705 401.322 108.406 403.314 106.014C405.306 103.623 427.35 105.35 430.67 108.538C436.115 113.852 432.397 118.635 426.421 124.746C421.906 129.396 421.773 134.577 419.515 135.374C415.531 136.703 409.422 135.507 408.227 131.256C407.032 127.005 403.845 118.901 403.845 118.901Z" fill="#263238"/>
<path d="M428.014 98.0434C420.179 94.7222 405.571 98.442 397.603 96.4492C397.338 100.568 399.728 107.077 407.696 108.937C407.696 108.937 418.984 111.063 427.616 110.797C436.248 110.399 434.654 100.833 428.014 98.0434Z" fill="#263238"/>
<path d="M429.21 108.804C429.21 108.804 433.99 109.336 437.443 107.21C438.904 110.797 430.936 111.727 429.21 108.804Z" fill="#263238"/>
<path d="M408.227 119.167C408.094 121.558 406.899 123.816 405.571 125.411C403.579 127.669 401.454 126.208 401.056 123.551C400.79 121.027 401.454 116.908 403.845 115.713C406.368 114.517 408.36 116.51 408.227 119.167Z" fill="#FF8B7B"/>
<path d="M404.642 232.753C404.642 232.753 415.266 304.227 421.109 330.93C427.483 360.29 461.613 457.137 461.613 457.137L478.346 453.551C478.346 453.551 454.442 374.505 449.13 333.587C445.013 302.101 436.912 232.753 436.912 232.753H404.642Z" fill="#406DCD"/>
<path d="M457.629 451.558C457.496 451.558 460.683 457.669 460.683 457.669L479.541 453.55L477.947 447.838L457.629 451.558Z" fill="#263238"/>
<path opacity="0.3" d="M411.281 258.128C423.499 260.519 422.304 306.22 420.71 329.734C417.125 313.128 411.945 281.111 408.493 258.393C409.422 258.128 410.352 257.995 411.281 258.128Z" fill="black"/>
<path d="M386.846 232.753C386.846 232.753 385.518 302.633 386.581 331.063C387.643 360.688 398.002 457.802 398.002 457.802H413.805C413.805 457.802 414.336 362.548 415.133 333.321C415.93 301.57 419.781 232.753 419.781 232.753H386.846Z" fill="#406DCD"/>
<path d="M394.947 451.425C394.814 451.425 395.877 457.935 395.877 457.935H415.133L415.664 452.089L394.947 451.425Z" fill="#263238"/>
<path d="M404.11 163.937C408.626 176.027 382.331 190.242 382.331 190.242L370.91 175.628C370.91 175.628 378.48 160.483 387.776 153.708C399.33 145.205 400.658 154.771 404.11 163.937Z" fill="#407BFF"/>
<path opacity="0.4" d="M404.11 163.937C408.626 176.027 382.331 190.242 382.331 190.242L370.91 175.628C370.91 175.628 378.48 160.483 387.776 153.708C399.33 145.205 400.658 154.771 404.11 163.937Z" fill="black"/>
<path d="M507.163 72.2708C533.64 72.2708 555.104 58.5906 555.104 41.7152C555.104 24.8399 533.64 11.1597 507.163 11.1597C480.686 11.1597 459.222 24.8399 459.222 41.7152C459.222 58.5906 480.686 72.2708 507.163 72.2708Z" fill="#406DCD"/>
<path d="M489.766 57.1259C487.11 57.1259 484.454 56.3288 482.197 54.7346C479.142 52.609 477.15 49.5534 476.486 45.9665C475.291 39.0582 479.939 32.15 486.712 30.5558C492.29 29.2273 498 31.6186 501.054 36.5341L531.864 30.1573C534.387 29.6259 536.91 31.0872 537.442 33.4785C537.707 34.6742 537.574 36.0027 536.91 37.0655C536.246 38.1283 535.184 38.9254 533.856 39.1911L533.059 39.324C532.794 39.324 532.661 39.4568 532.528 39.7225C532.395 39.9882 532.395 40.1211 532.528 40.3868L533.059 41.8481C533.458 42.7781 533.059 43.8409 532.262 44.3723C531.598 44.7708 531.2 45.4351 531.067 46.2322C530.934 47.1621 530.27 47.9592 529.474 48.0921L528.81 48.2249C528.013 48.3578 527.083 47.9592 526.552 47.1621C526.021 46.2322 524.958 45.7008 523.763 45.9665C522.701 46.2322 521.904 47.0293 521.771 48.2249C521.638 49.1549 520.974 49.952 520.178 50.0848L519.514 50.2177C518.717 50.3505 517.787 49.952 517.256 49.1549C516.858 48.4906 516.194 47.9592 515.397 47.9592C514.467 47.8264 513.67 46.8964 513.67 45.9665V44.5051C513.67 44.2394 513.538 44.1066 513.405 43.8409C513.272 43.708 513.006 43.5752 512.741 43.708L502.914 45.7008C502.117 51.2805 497.867 55.6645 492.29 56.8602C491.626 56.993 490.696 57.1259 489.766 57.1259ZM487.11 31.8843C481.002 33.3457 476.752 39.4568 477.947 45.7008C478.478 49.022 480.338 51.8119 482.994 53.6718C485.782 55.5317 488.97 56.1959 492.29 55.5317C497.469 54.4689 501.32 50.2177 501.851 45.0365V44.5051L512.608 42.2467C513.272 42.1138 513.936 42.2467 514.334 42.6452C514.866 43.0438 515.131 43.5752 515.131 44.2394V45.7008C515.131 46.0993 515.397 46.365 515.795 46.4979C516.99 46.6307 518.053 47.4278 518.584 48.3578C518.717 48.6235 518.982 48.8892 519.381 48.7563L520.045 48.6235C520.443 48.4906 520.576 48.2249 520.576 47.9592C520.709 46.2322 522.037 44.9037 523.63 44.638C525.224 44.2394 526.95 45.0365 527.747 46.4979C527.88 46.7636 528.146 47.0293 528.544 46.8964L529.208 46.7636C529.606 46.6307 529.739 46.365 529.739 46.0993C529.872 44.9037 530.536 43.8409 531.598 43.3095C531.864 43.1766 531.997 42.7781 531.864 42.3795L531.333 40.9182C531.067 40.3868 531.2 39.7225 531.466 39.0582C531.731 38.5268 532.262 38.1283 532.926 37.9954L533.723 37.8626C534.653 37.7297 535.317 37.1983 535.848 36.4012C536.379 35.6041 536.512 34.6742 536.246 33.8771C535.848 32.15 533.989 31.0872 532.13 31.4858L500.39 37.9954L500.125 37.5969C497.734 32.9471 492.422 30.6887 487.11 31.8843ZM489.899 52.2104C488.306 52.2104 486.712 51.679 485.251 50.7491C483.392 49.5534 482.064 47.5607 481.533 45.3022C481.134 43.0438 481.533 40.7853 482.728 38.9254C483.923 37.0655 485.915 35.737 488.173 35.3384C490.43 34.9399 492.688 35.3384 494.547 36.5341C496.406 37.7297 497.734 39.7225 498.133 41.981C498.531 44.2394 498.133 46.4979 496.938 48.3578C495.742 50.2177 493.75 51.5462 491.493 52.0776C490.962 52.0776 490.43 52.2104 489.899 52.2104ZM489.899 36.4012C489.368 36.4012 488.97 36.4012 488.438 36.5341C486.579 36.9326 484.986 37.9954 483.923 39.5896C482.861 41.1839 482.462 43.0438 482.861 45.0365C483.259 46.8964 484.322 48.4906 485.915 49.5534C487.509 50.6162 489.368 51.0148 491.36 50.6162C493.219 50.2177 494.813 49.1549 495.875 47.5607C496.938 45.9665 497.336 44.1066 496.938 42.1138C496.539 40.2539 495.477 38.6597 493.883 37.5969C492.688 36.9326 491.227 36.4012 489.899 36.4012Z" fill="white"/>
<path opacity="0.6" d="M468.12 90.2054C476.848 90.2054 483.923 85.685 483.923 80.1088C483.923 74.5326 476.848 70.0122 468.12 70.0122C459.392 70.0122 452.317 74.5326 452.317 80.1088C452.317 85.685 459.392 90.2054 468.12 90.2054Z" fill="#407BFF"/>
<path opacity="0.3" d="M443.021 94.3241C446.615 94.3241 449.528 92.4803 449.528 90.2058C449.528 87.9313 446.615 86.0874 443.021 86.0874C439.427 86.0874 436.514 87.9313 436.514 90.2058C436.514 92.4803 439.427 94.3241 443.021 94.3241Z" fill="#407BFF"/>
</svg>
