<svg width="513" height="514" viewBox="0 0 513 514" fill="none" xmlns="http://www.w3.org/2000/svg">
<path d="M451.725 437.724C441.238 448.595 431.307 455.602 423.466 461.149C331.254 526.245 222.157 507.276 198.984 502.636C164.751 495.795 98.5608 482.558 50.7165 427.204C-21.6695 343.435 -10.4065 211.467 45.7416 124.351C56.0058 108.414 110.268 19.9666 220.548 5.78624C287.293 -2.79224 365.08 14.5126 421.413 60.9548C539.646 158.424 531.231 355.36 451.725 437.724Z" fill="url(#paint0_linear_1078_12648)"/>
<path d="M97.7291 145.482C97.7846 143.023 99.8559 141.045 102.39 141.045H256.316C258.887 141.045 261.624 143.097 261.624 145.593V494.335C261.624 496.202 260.533 497.977 259.183 499.308C257.814 500.621 255.817 501.36 253.893 501.36L98.2839 500.953C96.342 500.953 94.4556 500.195 93.1056 498.846C91.7555 497.496 90.9972 495.684 91.0157 493.798L97.7291 145.482Z" fill="#BDD0FB"/>
<g opacity="0.52">
<path opacity="0.52" d="M186.131 165.764L236.472 165.597L236.453 159.478L186.168 159.626L186.131 165.764Z" fill="white"/>
<path opacity="0.52" d="M185.983 188.282L236.546 188.06L236.527 181.904L186.02 182.107L185.983 188.282Z" fill="white"/>
<path opacity="0.52" d="M185.853 211.004L236.62 210.727L236.601 204.515L185.89 204.774L185.853 211.004Z" fill="white"/>
<path opacity="0.52" d="M185.706 233.911L236.694 233.578L236.676 227.292L185.743 227.625L185.706 233.911Z" fill="white"/>
<path opacity="0.52" d="M185.576 257.003L236.749 256.614L236.731 250.292L185.613 250.661L185.576 257.003Z" fill="white"/>
<path opacity="0.52" d="M185.28 303.778L236.897 303.26L236.879 296.826L185.317 297.325L185.28 303.778Z" fill="white"/>
<path opacity="0.52" d="M184.836 375.419L237.119 374.716L237.101 368.135L184.873 368.8L184.836 375.419Z" fill="white"/>
<path opacity="0.52" d="M185.428 280.279L236.823 279.835L236.805 273.457L185.465 273.901L185.428 280.279Z" fill="white"/>
<path opacity="0.52" d="M185.132 327.442L236.971 326.869L236.952 320.398L185.169 320.953L185.132 327.442Z" fill="white"/>
<path opacity="0.52" d="M184.984 351.329L237.045 350.701L237.027 344.156L185.021 344.784L184.984 351.329Z" fill="white"/>
<path opacity="0.52" d="M184.689 399.713L237.193 398.955L237.175 392.299L184.726 393.038L184.689 399.713Z" fill="white"/>
<path opacity="0.52" d="M184.54 424.209L237.267 423.377L237.248 416.685L184.577 417.48L184.54 424.209Z" fill="white"/>
<path opacity="0.52" d="M184.392 448.909L237.341 448.022L237.322 441.255L184.429 442.143L184.392 448.909Z" fill="white"/>
<path opacity="0.52" d="M184.244 473.85L237.415 472.889L237.396 466.066L184.281 467.009L184.244 473.85Z" fill="white"/>
<path opacity="0.52" d="M120.107 165.986L170.78 165.819L170.836 159.681L120.218 159.829L120.107 165.986Z" fill="white"/>
<path opacity="0.52" d="M119.7 188.578L170.577 188.356L170.633 182.163L119.811 182.384L119.7 188.578Z" fill="white"/>
<path opacity="0.52" d="M119.293 211.374L170.374 211.097L170.429 204.848L119.404 205.125L119.293 211.374Z" fill="white"/>
<path opacity="0.52" d="M118.867 234.355L170.17 234.003L170.226 227.717L118.978 228.05L118.867 234.355Z" fill="white"/>
<path opacity="0.52" d="M118.442 257.52L169.967 257.113L170.022 250.772L118.572 251.16L118.442 257.52Z" fill="white"/>
<path opacity="0.52" d="M117.592 304.443L169.542 303.926L169.597 297.473L117.721 297.972L117.592 304.443Z" fill="white"/>
<path opacity="0.52" d="M116.297 376.325L168.913 375.622L168.968 369.022L116.408 369.706L116.297 376.325Z" fill="white"/>
<path opacity="0.52" d="M118.017 280.871L169.764 280.427L169.819 274.03L118.147 274.474L118.017 280.871Z" fill="white"/>
<path opacity="0.52" d="M117.166 328.201L169.338 327.628L169.394 321.12L117.277 321.674L117.166 328.201Z" fill="white"/>
<path opacity="0.52" d="M116.722 352.161L169.116 351.532L169.172 344.969L116.852 345.579L116.722 352.161Z" fill="white"/>
<path opacity="0.52" d="M115.853 400.71L168.69 399.934L168.746 393.26L115.964 394.018L115.853 400.71Z" fill="white"/>
<path opacity="0.52" d="M115.391 425.281L168.469 424.449L168.524 417.72L115.52 418.533L115.391 425.281Z" fill="white"/>
<path opacity="0.52" d="M114.947 450.092L168.247 449.187L168.303 442.401L115.076 443.27L114.947 450.092Z" fill="white"/>
<path opacity="0.52" d="M114.485 475.089L168.025 474.127L168.081 467.287L114.614 468.23L114.485 475.089Z" fill="white"/>
</g>
<path d="M9.40091 241.695C9.47489 238.848 12.397 236.5 15.9848 236.5H151.547C155.19 236.5 158.759 238.958 158.759 241.861V499.918C158.759 501.305 157.761 502.636 156.522 503.616C155.283 504.596 153.452 505.15 151.695 505.15L9.95573 504.855C8.19879 504.855 6.46034 504.281 5.23973 503.283C4.00063 502.285 3.31634 500.898 3.33484 499.493L9.40091 241.695Z" fill="#BDD0FB"/>
<path d="M109.251 266.912L147.866 266.857L148.162 251.142H109.51L109.251 266.912Z" fill="url(#paint1_linear_1078_12648)"/>
<path d="M65.9565 266.894L104.535 266.857L104.794 251.142H66.1785L65.9565 266.894Z" fill="url(#paint2_linear_1078_12648)"/>
<path d="M22.7174 266.894L61.2592 266.857L61.4811 251.142H22.9023L22.7174 266.894Z" fill="url(#paint3_linear_1078_12648)"/>
<path d="M108.753 295.125L147.313 295.144L147.628 279.521H109.031L108.753 295.125Z" fill="url(#paint4_linear_1078_12648)"/>
<path d="M65.551 295.107L104.056 295.125L104.333 279.521L65.773 279.503L65.551 295.107Z" fill="url(#paint5_linear_1078_12648)"/>
<path d="M22.3854 295.088L60.8531 295.107L61.0751 279.503L22.5703 279.484L22.3854 295.088Z" fill="url(#paint6_linear_1078_12648)"/>
<path d="M108.27 323.172L146.757 323.19L147.071 307.623L108.548 307.605L108.27 323.172Z" fill="url(#paint7_linear_1078_12648)"/>
<path d="M65.1422 323.135L103.591 323.153L103.85 307.605L65.3641 307.568L65.1422 323.135Z" fill="url(#paint8_linear_1078_12648)"/>
<path d="M22.0514 323.098L60.4637 323.116L60.6856 307.568L22.2363 307.549L22.0514 323.098Z" fill="url(#paint9_linear_1078_12648)"/>
<path d="M107.809 351.107L146.222 351.144L146.518 335.633L108.068 335.596L107.809 351.107Z" fill="url(#paint10_linear_1078_12648)"/>
<path d="M64.7371 351.052L103.112 351.089L103.39 335.596L64.959 335.559L64.7371 351.052Z" fill="url(#paint11_linear_1078_12648)"/>
<path d="M21.7192 350.996L60.0575 351.052L60.2795 335.54L21.9042 335.503L21.7192 350.996Z" fill="url(#paint12_linear_1078_12648)"/>
<path d="M107.328 378.932L145.666 378.987L145.98 363.531L107.587 363.476L107.328 378.932Z" fill="url(#paint13_linear_1078_12648)"/>
<path d="M64.3292 378.876L102.649 378.931L102.908 363.475L64.5512 363.42L64.3292 378.876Z" fill="url(#paint14_linear_1078_12648)"/>
<path d="M21.3857 378.802L59.6686 378.876L59.8905 363.42L21.5707 363.365L21.3857 378.802Z" fill="url(#paint15_linear_1078_12648)"/>
<path d="M106.847 406.683L145.13 406.757L145.426 391.338L107.106 391.282L106.847 406.683Z" fill="url(#paint16_linear_1078_12648)"/>
<path d="M63.9413 406.609L102.187 406.664L102.446 391.282L64.1632 391.208L63.9413 406.609Z" fill="url(#paint17_linear_1078_12648)"/>
<path d="M21.0719 406.535L59.2807 406.59L59.4842 391.208L21.2383 391.134L21.0719 406.535Z" fill="url(#paint18_linear_1078_12648)"/>
<path d="M106.368 434.323L144.596 434.415L144.891 419.052L106.646 418.978L106.368 434.323Z" fill="url(#paint19_linear_1078_12648)"/>
<path d="M63.5363 434.23L101.708 434.322L101.967 418.977L63.7582 418.903L63.5363 434.23Z" fill="url(#paint20_linear_1078_12648)"/>
<path d="M20.7394 434.156L58.8742 434.23L59.0962 418.885L20.9243 418.811L20.7394 434.156Z" fill="url(#paint21_linear_1078_12648)"/>
<path d="M105.904 461.888L144.058 461.981L144.354 446.673L106.163 446.58L105.904 461.888Z" fill="url(#paint22_linear_1078_12648)"/>
<path d="M63.1265 461.777L101.243 461.869L101.502 446.58L63.3484 446.487L63.1265 461.777Z" fill="url(#paint23_linear_1078_12648)"/>
<path d="M20.4059 461.666L58.4853 461.759L58.7072 446.487L20.5908 446.395L20.4059 461.666Z" fill="url(#paint24_linear_1078_12648)"/>
<path d="M105.424 489.343L143.522 489.435L143.818 474.201L105.683 474.09L105.424 489.343Z" fill="url(#paint25_linear_1078_12648)"/>
<path d="M62.7395 489.214L100.782 489.325L101.041 474.09L62.9614 473.979L62.7395 489.214Z" fill="url(#paint26_linear_1078_12648)"/>
<path d="M20.0916 489.103L58.097 489.214L58.3189 473.98L20.2765 473.869L20.0916 489.103Z" fill="url(#paint27_linear_1078_12648)"/>
<path d="M363.267 247.851C363.341 245.004 366.264 242.656 369.851 242.656H505.413C509.057 242.656 512.626 245.115 512.626 248.017V506.093C512.626 507.479 511.627 508.811 510.388 509.791C509.149 510.77 507.318 511.325 505.561 511.325L363.822 511.011C362.065 511.011 360.327 510.438 359.106 509.439C357.867 508.441 357.183 507.054 357.201 505.649L363.267 247.851Z" fill="#BDD0FB"/>
<g opacity="0.5">
<g opacity="0.5">
<path opacity="0.5" d="M463.099 273.069L501.733 273.032L502.029 257.298H463.376L463.099 273.069Z" fill="white"/>
<path opacity="0.5" d="M419.823 273.069L458.402 273.013L458.661 257.298H420.045L419.823 273.069Z" fill="white"/>
<path opacity="0.5" d="M376.583 273.05L415.125 273.013L415.347 257.298H376.768L376.583 273.05Z" fill="white"/>
</g>
<g opacity="0.5">
<path opacity="0.5" d="M462.618 301.3L501.178 301.319L501.474 285.696L462.895 285.678L462.618 301.3Z" fill="white"/>
<path opacity="0.5" d="M419.416 301.263L457.921 301.3L458.198 285.678L419.638 285.659L419.416 301.263Z" fill="white"/>
<path opacity="0.5" d="M376.251 301.245L414.718 301.263L414.94 285.659H376.436L376.251 301.245Z" fill="white"/>
</g>
<g opacity="0.5">
<path opacity="0.5" d="M462.137 329.328L500.623 329.365L500.938 313.798L462.414 313.761L462.137 329.328Z" fill="white"/>
<path opacity="0.5" d="M419.009 329.291L457.458 329.328L457.717 313.761L419.231 313.743L419.009 329.291Z" fill="white"/>
<path opacity="0.5" d="M375.918 329.254L414.311 329.291L414.533 313.743L376.103 313.706L375.918 329.254Z" fill="white"/>
</g>
<g opacity="0.5">
<path opacity="0.5" d="M461.656 357.264L500.087 357.301L500.383 341.789L461.934 341.752L461.656 357.264Z" fill="white"/>
<path opacity="0.5" d="M418.602 357.208L456.977 357.264L457.236 341.752L418.824 341.715L418.602 357.208Z" fill="white"/>
<path opacity="0.5" d="M375.585 357.171L413.923 357.208L414.145 341.715L375.77 341.678L375.585 357.171Z" fill="white"/>
</g>
<g opacity="0.5">
<path opacity="0.5" d="M461.194 385.107L499.532 385.162L499.846 369.706L461.453 369.651L461.194 385.107Z" fill="white"/>
<path opacity="0.5" d="M418.195 385.033L456.515 385.089L456.773 369.633L418.417 369.596L418.195 385.033Z" fill="white"/>
<path opacity="0.5" d="M375.252 384.978L413.534 385.033L413.756 369.577L375.437 369.54L375.252 384.978Z" fill="white"/>
</g>
<g opacity="0.5">
<path opacity="0.5" d="M460.713 412.839L498.996 412.913L499.292 397.512L460.972 397.438L460.713 412.839Z" fill="white"/>
<path opacity="0.5" d="M417.788 412.765L456.053 412.839L456.312 397.439L418.029 397.365L417.788 412.765Z" fill="white"/>
<path opacity="0.5" d="M374.919 412.691L413.127 412.765L413.349 397.365L375.104 397.309L374.919 412.691Z" fill="white"/>
</g>
<g opacity="0.5">
<path opacity="0.5" d="M460.232 440.497L498.46 440.571L498.756 425.226L460.491 425.152L460.232 440.497Z" fill="white"/>
<path opacity="0.5" d="M417.4 440.405L455.572 440.479L455.831 425.134L417.622 425.06L417.4 440.405Z" fill="white"/>
<path opacity="0.5" d="M374.604 440.312L412.739 440.386L412.961 425.06L374.789 424.986L374.604 440.312Z" fill="white"/>
</g>
<g opacity="0.5">
<path opacity="0.5" d="M459.77 468.044L497.923 468.137L498.219 452.828L460.029 452.754L459.77 468.044Z" fill="white"/>
<path opacity="0.5" d="M416.993 467.933L455.109 468.026L455.368 452.736L417.215 452.644L416.993 467.933Z" fill="white"/>
<path opacity="0.5" d="M374.271 467.841L412.351 467.933L412.573 452.644L374.456 452.551L374.271 467.841Z" fill="white"/>
</g>
<g opacity="0.5">
<path opacity="0.5" d="M459.289 495.5L497.387 495.611L497.683 480.358L459.548 480.266L459.289 495.5Z" fill="white"/>
<path opacity="0.5" d="M416.604 495.389L454.647 495.481L454.905 480.247L416.826 480.154L416.604 495.389Z" fill="white"/>
<path opacity="0.5" d="M373.957 495.259L411.962 495.37L412.184 480.136L374.123 480.043L373.957 495.259Z" fill="white"/>
</g>
</g>
<path d="M228.501 318.05C217.441 283.33 196.025 255.653 170.67 239.383C147.996 224.833 131.665 202.185 125.618 176.025C124.989 173.27 124.231 170.515 123.343 167.76C110.046 125.996 73.5384 100.334 41.821 110.429C10.1406 120.523 -4.78416 162.565 8.51311 204.33C11.2317 212.871 14.9306 220.729 19.3507 227.754C33.4617 250.162 38.9914 277.044 33.7946 303.057C29.1525 326.296 30.4101 352.457 38.714 378.488C51.0866 417.313 76.3865 447.338 105.681 462.443C116.759 468.155 126.765 475.847 135.031 485.128C148.791 500.565 168.154 507.813 185.964 502.155C205.18 496.036 217.164 476.605 218.033 453.901C218.514 441.07 221.547 428.48 226.466 416.592C238.081 388.509 239.69 353.159 228.501 318.05Z" fill="#91B3FA"/>
<path opacity="0.57" d="M67.1026 151.324C80.0485 177.615 92.1251 204.293 103.906 231.082C106.865 237.775 109.695 244.523 112.561 251.271L116.852 261.384L121.068 271.534C123.843 278.301 126.728 285.049 129.428 291.853L137.547 312.264C142.781 325.945 148.125 339.57 153.119 353.344C155.615 360.222 158.26 367.062 160.609 373.995L167.785 394.758C177.069 422.545 185.65 450.573 192.789 478.989L191.568 479.304L185.409 458.246L183.874 452.977L182.21 447.745L178.881 437.299L175.571 426.853C174.479 423.359 173.24 419.92 172.075 416.463C169.708 409.548 167.396 402.615 164.992 395.7C155.172 368.153 145 340.735 134.255 313.539C128.78 299.987 123.417 286.38 117.85 272.847L113.708 262.697L109.473 252.584C106.661 245.836 103.832 239.088 100.947 232.376C95.2876 218.899 89.5174 205.439 83.6548 192.035C77.8477 178.613 71.9295 165.228 65.9559 151.879L67.1026 151.324Z" fill="white"/>
<path d="M321.064 249.034C315.885 211.115 298.797 178.613 275.605 157.185C254.855 138.032 242.094 111.649 240.559 83.4917C240.392 80.5336 240.115 77.5385 239.708 74.525C233.476 28.9148 200.482 -4.25291 165.99 0.443068C131.499 5.13905 108.585 45.9238 114.817 91.534C116.093 100.852 118.479 109.671 121.771 117.732C132.294 143.467 133.163 172.272 123.14 198.229C114.188 221.432 110.804 248.72 114.669 277.155C120.458 319.566 141.134 355.193 168.617 376.122C179.01 384.035 187.924 393.796 194.786 404.908C206.178 423.359 224.857 434.378 244.202 431.734C265.082 428.887 280.931 410.953 285.888 387.64C288.699 374.458 294.062 361.978 301.256 350.571C318.29 323.634 326.279 287.379 321.064 249.034Z" fill="#77A3FF"/>
<path opacity="0.57" d="M184.688 47.3105C193.306 76.8361 200.963 106.62 208.305 136.479C210.136 143.948 211.856 151.436 213.613 158.923L216.22 170.164L218.735 181.423C220.381 188.93 222.138 196.417 223.71 203.942L228.408 226.534C231.348 241.621 234.418 256.707 237.082 271.849C238.413 279.429 239.911 286.972 241.095 294.571L244.757 317.348C249.343 347.761 253.153 378.322 255.409 408.994L254.096 409.105L251.525 386.216L250.897 380.485L250.12 374.772L248.548 363.365L247.013 351.958C246.514 348.149 245.848 344.359 245.293 340.569C244.091 332.989 242.963 325.39 241.724 317.81C236.564 287.545 230.978 257.336 224.801 227.255C221.583 212.243 218.513 197.194 215.185 182.2L212.725 170.941L210.173 159.7C208.471 152.212 206.788 144.724 205.013 137.255C201.591 122.28 198.077 107.323 194.434 92.4031C190.865 77.4647 187.166 62.5448 183.412 47.6618L184.688 47.3105Z" fill="white"/>
<path d="M479.558 509.68H178.529C176.181 509.68 174.276 507.776 174.276 505.428V98.7813C174.276 96.4333 176.181 94.5291 178.529 94.5291H479.558C481.907 94.5291 483.812 96.4333 483.812 98.7813V505.428C483.812 507.776 481.907 509.68 479.558 509.68Z" fill="#406DCD"/>
<path d="M431.122 454.992H226.318C218.551 454.992 212.263 448.706 212.263 440.941V170.959C212.263 163.194 218.551 156.908 226.318 156.908H431.122C438.889 156.908 445.177 163.194 445.177 170.959V440.941C445.177 448.706 438.889 454.992 431.122 454.992Z" fill="#77A3FF"/>
<path d="M423.373 434.267H234.252C231.922 434.267 230.035 432.381 230.035 430.052V185.639C230.035 183.309 231.922 181.423 234.252 181.423H423.373C425.703 181.423 427.589 183.309 427.589 185.639V430.052C427.589 432.381 425.703 434.267 423.373 434.267Z" fill="#406DCD"/>
<path d="M328.48 135.628C333.597 135.628 337.745 131.481 337.745 126.366C337.745 121.25 333.597 117.103 328.48 117.103C323.362 117.103 319.214 121.25 319.214 126.366C319.214 131.481 323.362 135.628 328.48 135.628Z" fill="url(#paint28_linear_1078_12648)"/>
<path d="M388.308 275.805L269.169 277.783C260.107 277.931 252.728 284.975 252.728 293.535V368.542C252.728 377.083 260.107 383.72 269.169 383.351L388.308 378.562C396.871 378.211 403.788 371.241 403.788 362.995V290.503C403.769 282.239 396.871 275.657 388.308 275.805Z" fill="url(#paint29_linear_1078_12648)"/>
<path d="M394.337 262.235C390.731 262.29 387.79 259.499 387.79 256.023V239.605C387.79 223.132 373.864 209.784 356.609 209.821L317.79 209.932C300.091 209.987 285.592 223.743 285.592 240.585V257.391C285.592 260.959 282.522 263.899 278.731 263.954C274.921 264.01 271.851 261.163 271.851 257.576V240.733C271.851 216.68 292.583 197.12 317.809 197.12H356.628C381.133 197.12 400.866 216.125 400.866 239.494V255.856C400.847 259.314 397.944 262.179 394.337 262.235Z" fill="url(#paint30_linear_1078_12648)"/>
<path d="M348.009 317.366C348.009 309.028 340.723 302.484 331.883 303.094C324.06 303.63 317.587 309.897 317.161 317.366C316.828 323.172 320.028 328.182 324.873 330.733C326.945 331.806 327.962 334.08 327.555 336.335L324.152 355.415C323.727 357.837 325.669 359.982 328.239 359.889L336.987 359.575C339.539 359.482 341.481 357.208 341.056 354.823L337.653 335.91C337.246 333.655 338.411 331.417 340.482 330.179C344.995 327.498 348.009 322.728 348.009 317.366Z" fill="url(#paint31_linear_1078_12648)"/>
<path d="M108.732 510.42C108.732 510.253 108.732 510.087 108.676 509.92C106.198 500.122 93.9364 494.039 93.9364 494.039L89.0724 494.427C86.2798 503.061 86.6312 508.349 87.0936 510.715C87.1121 510.789 87.1306 510.845 87.149 510.9C91.1808 511.233 99.4291 511.473 108.732 510.42Z" fill="url(#paint32_linear_1078_12648)"/>
<path d="M87.1678 510.882C87.3898 511.677 87.9631 512.287 88.7029 512.435C94.399 513.636 103.461 512.675 107.271 512.176C108.103 512.065 108.732 511.288 108.732 510.419C99.4294 511.473 91.1811 511.233 87.1678 510.882Z" fill="#91B3FA"/>
<path d="M87.1495 487.18L89.2024 497.089C89.3503 497.81 89.9052 498.365 90.5894 498.42C91.4217 498.494 92.5868 498.55 93.7704 498.365C94.8246 498.217 95.5644 497.126 95.3794 495.98L93.9554 487.18H87.1495Z" fill="url(#paint33_linear_1078_12648)"/>
<path d="M129.778 510.752C124.414 510.605 121.64 509.976 120.198 509.384C120.198 509.92 120.198 510.457 120.216 511.03C120.235 511.621 120.678 512.102 121.233 512.102L150.694 511.917C151.638 511.917 152.192 510.826 151.786 509.957C147.92 510.272 138.081 510.993 129.778 510.752Z" fill="#91B3FA"/>
<path d="M151.786 509.957C151.749 509.883 151.712 509.809 151.675 509.736C149.067 506.093 142.446 498.864 129.353 495.721L123.065 495.518C123.065 495.518 120.272 500.38 120.217 509.384C121.659 509.976 124.433 510.604 129.797 510.752C138.082 510.993 147.921 510.272 151.786 509.957Z" fill="url(#paint34_linear_1078_12648)"/>
<path d="M121.604 486.293C121.696 486.755 123.009 493.799 123.508 496.535C123.638 497.182 124.137 497.663 124.729 497.7C125.802 497.755 127.54 497.774 129.038 497.367C129.852 497.145 130.388 496.332 130.333 495.426L129.63 484.277L121.604 486.293Z" fill="url(#paint35_linear_1078_12648)"/>
<path d="M116.851 356.192C116.851 356.192 125.488 415.557 131.739 486.2C131.85 487.513 130.814 488.659 129.519 488.936C127.615 489.343 124.822 489.805 122.492 489.75C121.253 489.713 120.217 488.788 120.014 487.568C117.887 475.107 102.722 408.273 98.7453 393.556C98.7453 393.556 94.1772 456.046 95.6383 488.474C95.6752 489.288 95.0834 489.972 94.2882 490.064C93.0676 490.212 91.1257 490.305 88.6475 490.046C87.7043 489.953 86.946 489.232 86.8166 488.308C85.3 477.77 76.5893 415.021 76.9592 369.817C76.9777 367.266 79.9552 346.319 79.9552 346.319L116.851 356.192Z" fill="url(#paint36_linear_1078_12648)"/>
<path d="M120.199 256.355L121.364 287.416C124.656 288.543 127.781 289.431 130.759 290.078C132.627 284.088 136.732 276.711 140.08 271.238C127.726 266.894 120.199 256.355 120.199 256.355Z" fill="#345EB6"/>
<path d="M78.6427 359.612C77.755 359.297 77.1262 358.484 77.0338 357.559C75.8871 346.411 70.3204 277.303 105.441 248.868C105.441 248.868 107.457 243.599 124.009 256.559C140.561 269.519 131.702 283.089 127.745 301.818C122.955 324.484 114.521 342.991 118.257 356.949C118.516 357.911 118.017 358.928 117.074 359.26C104.22 363.993 91.4037 364.141 78.6427 359.612Z" fill="#406DCD"/>
<path d="M119.145 228.161C119.127 229.141 105.108 249.071 105.108 249.071C105.108 249.071 107.623 254.026 119.645 258.056L130.02 236.721L119.145 228.161Z" fill="url(#paint37_linear_1078_12648)"/>
<path d="M112.21 296.308C112.117 296.308 112.025 296.29 111.951 296.234C100.743 288.673 95.4725 276.452 95.417 276.323C95.3245 276.082 95.4355 275.824 95.6574 275.731C95.8978 275.639 96.1567 275.731 96.2492 275.971C96.3047 276.082 101.465 288.063 112.45 295.476C112.653 295.624 112.709 295.902 112.58 296.105C112.487 296.253 112.358 296.308 112.21 296.308Z" fill="url(#paint38_linear_1078_12648)"/>
<path d="M128.892 279.392C128.744 279.392 128.596 279.318 128.503 279.188C128.466 279.133 125.045 273.808 118.517 262.142C116.519 258.555 113.875 256.281 110.675 255.394C105.386 253.915 100.3 256.744 100.244 256.781C100.022 256.91 99.745 256.836 99.6156 256.614C99.4861 256.392 99.5601 256.115 99.782 255.986C100.004 255.856 105.238 252.935 110.897 254.507C114.337 255.468 117.167 257.89 119.293 261.698C125.803 273.346 129.206 278.652 129.243 278.707C129.373 278.911 129.317 279.207 129.114 279.336C129.058 279.355 128.984 279.392 128.892 279.392Z" fill="url(#paint39_linear_1078_12648)"/>
<path d="M130.204 216.754C130.204 216.754 135.197 228.217 135.53 234.225C135.863 240.234 137.158 244.154 130.204 245.355C123.25 246.575 117.388 243.1 114.207 237.11C114.207 237.11 109.232 227.884 110.341 224.094C111.451 220.322 130.204 216.754 130.204 216.754Z" fill="url(#paint40_linear_1078_12648)"/>
<path d="M116.574 232.802L116.962 232.635C117.461 232.414 117.683 231.822 117.424 231.323C116.444 229.418 114.539 225.092 116.999 224.075C120.18 222.763 132.793 220.193 135.512 215.719C138.119 211.411 135.808 205.865 132.331 204.293C132.09 204.182 131.831 204.275 131.702 204.496L131.406 205.051C131.203 205.421 130.648 205.365 130.537 204.959C130.426 204.57 129.908 204.496 129.686 204.829C128.854 206.16 126.598 208.342 120.55 209.451C111.969 211.041 106.291 214.517 106.143 220.433C106.143 220.803 105.736 221.025 105.403 220.821C104.774 220.433 103.757 220.248 102.407 221.395C100.058 223.373 101.02 228.513 106.18 232.746C106.42 232.95 106.42 233.338 106.162 233.504C105.218 234.114 103.831 235.557 107.456 237.498C111.192 239.494 114.003 239.328 115.076 239.162C115.335 239.125 115.52 238.866 115.464 238.589L114.317 233.375C114.243 233.079 114.484 232.802 114.78 232.802H116.574Z" fill="url(#paint41_linear_1078_12648)"/>
<path d="M116.796 233.911C116.796 233.911 114.891 226.59 111.599 228.642C108.307 230.694 113.301 236.851 115.945 237.128L116.796 233.911Z" fill="url(#paint42_linear_1078_12648)"/>
<path d="M181.433 254.026C181.433 254.026 178.937 249.589 179.085 247.444C179.251 245.281 177.901 242.12 179.325 242.36C180.749 242.6 181.045 242.397 181.433 244.985C181.822 247.555 186.334 258.852 181.433 254.026Z" fill="url(#paint43_linear_1078_12648)"/>
<path d="M181.896 246.963L181.84 255.819C164.899 274.104 151.195 275.176 140.08 271.238C136.714 276.711 132.609 284.069 130.759 290.078C175.977 300.043 186.63 258.481 186.63 258.481C192.752 255.949 193.991 254.47 193.732 252.806L181.896 246.963Z" fill="url(#paint44_linear_1078_12648)"/>
<path d="M194.915 238.182C193.473 237.59 190.643 232.21 190.107 233.985C189.57 235.76 190.329 238.182 190.107 238.94C189.885 239.698 186.352 248.369 187.055 250.291C187.554 251.678 190.366 251.475 190.791 253.749C190.939 254.507 191.531 255.043 192.233 255.043C192.936 255.043 193.547 254.507 193.676 253.749C193.732 253.453 196.358 238.773 194.915 238.182Z" fill="url(#paint45_linear_1078_12648)"/>
<path d="M148.754 219.731C137.343 242.305 146.387 269.87 168.968 281.278C187.333 290.559 208.971 286.306 222.564 272.274L301.035 311.931C302.329 312.596 303.883 312.541 305.14 311.783L312.815 307.216C312.945 307.142 313.074 307.05 313.185 306.958C313.222 306.939 313.259 306.902 313.278 306.884C313.37 306.81 313.444 306.736 313.537 306.662C313.574 306.643 313.592 306.606 313.629 306.588C313.74 306.495 313.833 306.384 313.925 306.274C314.887 305.109 315.183 303.463 314.591 301.984L308.358 286.362C307.97 285.4 307.249 284.605 306.324 284.143L298.464 280.168L296.393 284.273L289.642 280.852L291.714 276.748L285.389 273.55L283.484 277.34L275.272 273.198L277.177 269.408L274.126 267.855L273.145 269.797L266.266 266.321L267.246 264.379L261.901 261.68L259.83 265.785L256.001 263.862L258.073 259.757L254.762 258.075L252.691 262.179L246.07 258.833L248.141 254.729L238.82 250.014L234.826 247.999C238.081 228.734 228.667 208.786 210.302 199.505C187.74 188.098 160.183 197.157 148.754 219.731ZM175.497 222.855C180.065 225.166 181.895 230.75 179.584 235.316C177.272 239.883 171.687 241.713 167.119 239.402C162.551 237.091 160.72 231.508 163.031 226.941C165.343 222.374 170.928 220.544 175.497 222.855Z" fill="url(#paint46_linear_1078_12648)"/>
<path d="M212.374 233.578L249.584 252.381L247.513 256.485L254.134 259.831L256.205 255.727L259.516 257.409L257.444 261.514L261.272 263.436L263.344 259.332L268.689 262.031L267.708 263.973L274.588 267.448L275.568 265.507L278.62 267.06L276.715 270.85L284.926 274.991L286.831 271.201L293.156 274.4L291.085 278.504L297.835 281.925L299.907 277.82L307.767 281.795C308.691 282.257 309.413 283.052 309.801 284.014L316.034 299.636C316.81 301.577 316.052 303.814 314.258 304.887L306.583 309.453C305.325 310.193 303.772 310.248 302.477 309.601L207.75 261.717L212.374 233.578Z" fill="url(#paint47_linear_1078_12648)"/>
<path d="M170.392 278.929C192.973 290.337 220.548 281.296 231.959 258.722C243.37 236.148 234.326 208.582 211.745 197.175C189.164 185.768 161.589 194.809 150.178 217.383C138.749 239.957 147.811 267.522 170.392 278.929ZM168.543 237.054C163.975 234.743 162.144 229.159 164.456 224.593C166.767 220.026 172.352 218.196 176.921 220.507C181.489 222.818 183.319 228.401 181.008 232.968C178.696 237.535 173.111 239.365 168.543 237.054Z" fill="url(#paint48_linear_1078_12648)"/>
<path d="M223.988 269.926L302.458 309.583C303.753 310.248 305.306 310.193 306.564 309.435L314.239 304.868C315.404 304.184 316.107 303.02 316.273 301.762C309.116 294.016 241.132 264.342 238.598 258.223C237.692 256.041 237.544 252.75 240.244 247.648L236.249 245.632C239.504 226.368 230.091 206.419 211.726 197.138C189.145 185.731 161.57 194.772 150.159 217.346C138.748 239.92 147.792 267.485 170.373 278.893C188.757 288.211 210.395 283.977 223.988 269.926ZM176.902 220.489C181.47 222.8 183.301 228.383 180.989 232.95C178.677 237.516 173.092 239.347 168.524 237.036C163.956 234.725 162.125 229.141 164.437 224.575C166.749 220.008 172.334 218.178 176.902 220.489Z" fill="url(#paint49_linear_1078_12648)"/>
<path d="M174.443 270.906C192.604 280.076 214.76 272.81 223.933 254.655C233.106 236.499 225.838 214.351 207.677 205.18C189.515 196.01 167.359 203.276 158.186 221.431C149.013 239.587 156.3 261.736 174.443 270.906ZM168.543 237.054C163.975 234.743 162.144 229.159 164.456 224.593C166.768 220.026 172.353 218.196 176.921 220.507C181.489 222.818 183.32 228.401 181.008 232.968C178.696 237.535 173.111 239.365 168.543 237.054Z" fill="url(#paint50_linear_1078_12648)"/>
<path d="M112.21 296.308C112.21 296.308 155.356 310.748 179.51 292.37C181.008 291.224 182.894 290.725 184.762 291.039L193.991 292.537C197.856 293.165 201.555 290.651 202.387 286.824C202.868 284.642 203.09 282.257 202.609 280.187L185.206 279.133L185.705 276.877C185.705 276.877 178.012 278.763 177.864 284.772C177.864 284.772 159.813 296.586 126.894 278.246C126.838 278.283 114.022 288.322 112.21 296.308Z" fill="url(#paint51_linear_1078_12648)"/>
<g opacity="0.3">
<path opacity="0.3" d="M445.529 80.0159C444.53 79.9789 443.735 79.1284 443.79 78.1301C443.864 76.1703 443.864 74.1921 443.772 72.2324C443.735 71.234 444.493 70.4021 445.473 70.3281C445.492 70.3281 445.492 70.3281 445.51 70.3281C446.509 70.2911 447.36 71.0676 447.415 72.066C447.508 74.1367 447.508 76.2258 447.434 78.278C447.397 79.2209 446.657 79.9604 445.732 80.0159C445.658 80.0344 445.603 80.0344 445.529 80.0159ZM442.699 62.711C442.348 60.7882 441.904 58.847 441.386 56.9612C441.127 55.9998 441.701 54.983 442.662 54.7241C443.643 54.4653 444.641 55.0384 444.9 55.9998C445.436 57.978 445.899 60.0117 446.269 62.0454C446.454 63.0253 445.788 63.9867 444.808 64.1716C444.734 64.19 444.66 64.19 444.586 64.19C443.698 64.264 442.866 63.6354 442.699 62.711ZM438.242 47.9205C437.465 46.1272 436.615 44.3338 435.69 42.6144C435.209 41.727 435.542 40.6177 436.43 40.1555C437.318 39.6748 438.427 40.0076 438.89 40.895C439.87 42.7069 440.776 44.5926 441.59 46.4969C441.978 47.4213 441.553 48.4936 440.628 48.8819C440.425 48.9743 440.221 49.0113 440.018 49.0298C439.278 49.0668 438.538 48.66 438.242 47.9205ZM430.567 34.5166C429.402 32.9266 428.181 31.3921 426.887 29.9131C426.221 29.1551 426.314 28.0088 427.072 27.3432C427.83 26.6777 428.977 26.7701 429.642 27.5281C430.993 29.0811 432.306 30.7081 433.526 32.372C434.118 33.1855 433.933 34.3317 433.138 34.9234C432.842 35.1267 432.509 35.2561 432.176 35.2746C431.566 35.2931 430.956 35.0343 430.567 34.5166ZM420.118 23.1279C418.638 21.8523 417.085 20.6136 415.513 19.4488C414.699 18.8572 414.533 17.7109 415.125 16.8974C415.716 16.084 416.863 15.9176 417.677 16.5092C419.341 17.7294 420.969 19.0236 422.522 20.3732C423.281 21.0388 423.354 22.185 422.707 22.9431C422.374 23.3313 421.912 23.5347 421.45 23.5717C420.969 23.6086 420.488 23.4607 420.118 23.1279ZM407.394 14.3461C405.674 13.4217 403.88 12.5527 402.086 11.7762C401.162 11.3695 400.736 10.2972 401.143 9.39127C401.55 8.46686 402.604 8.04164 403.529 8.44837C405.415 9.26185 407.302 10.1678 409.114 11.1476C410.002 11.6283 410.335 12.7191 409.854 13.6066C409.539 14.1797 408.966 14.531 408.356 14.5679C408.041 14.5864 407.708 14.5125 407.394 14.3461ZM339.798 13.4956C339.317 12.6082 339.669 11.4989 340.556 11.0367C342.369 10.0753 344.255 9.16941 346.16 8.35593C347.085 7.96768 348.157 8.39291 348.546 9.31732C348.934 10.2417 348.509 11.314 347.584 11.7023C345.772 12.4788 343.996 13.3292 342.258 14.2536C342.017 14.3831 341.777 14.457 341.518 14.457C340.815 14.5125 340.131 14.1427 339.798 13.4956ZM393.061 8.59628C391.175 8.07861 389.233 7.6349 387.309 7.28362C386.329 7.09874 385.664 6.15585 385.848 5.15749C386.033 4.17762 386.977 3.51205 387.975 3.69693C390.01 4.06669 392.044 4.54738 394.023 5.08354C394.985 5.34237 395.558 6.35922 395.299 7.3206C395.096 8.0971 394.411 8.61477 393.653 8.65174C393.468 8.68872 393.265 8.65174 393.061 8.59628ZM354.39 7.28362C354.131 6.32224 354.704 5.30539 355.666 5.04656C357.663 4.5104 359.698 4.0482 361.732 3.67844C362.731 3.49356 363.674 4.15913 363.84 5.139C364.025 6.11887 363.36 7.08025 362.379 7.24665C360.456 7.59792 358.514 8.02315 356.628 8.54081C356.498 8.57779 356.387 8.59628 356.258 8.59628C355.426 8.67023 354.612 8.13408 354.39 7.28362ZM377.804 6.21131C375.843 6.11887 373.864 6.11887 371.904 6.21131C370.905 6.24829 370.055 5.47179 369.999 4.47343C369.962 3.47507 370.72 2.64311 371.7 2.58764C371.719 2.58764 371.719 2.58764 371.737 2.58764C373.79 2.4952 375.88 2.4952 377.951 2.58764C378.95 2.62462 379.727 3.47507 379.69 4.49192C379.653 5.43481 378.913 6.17434 377.988 6.2298C377.933 6.21131 377.877 6.21131 377.804 6.21131Z" fill="#91B3FA"/>
<path opacity="0.3" d="M330.828 21.4641C331.18 21.4456 331.55 21.3162 331.845 21.0759C332.585 20.4842 333.343 19.9111 334.102 19.3565C334.915 18.7648 335.1 17.6186 334.509 16.8051C333.917 15.9916 332.77 15.8067 331.956 16.4168C331.161 17.0085 330.347 17.6186 329.589 18.2287C328.794 18.8573 328.664 20.0035 329.293 20.78C329.663 21.2792 330.255 21.5011 330.828 21.4641Z" fill="#91B3FA"/>
</g>
<g opacity="0.3">
<path opacity="0.3" d="M304.27 70.2171C305.14 70.1617 305.879 69.4776 305.972 68.5717C306.064 67.6288 306.175 66.6859 306.305 65.7615C306.434 64.7631 305.75 63.8387 304.751 63.7093C303.752 63.5799 302.828 64.2639 302.698 65.2623C302.569 66.2422 302.439 67.2405 302.347 68.2204C302.254 69.2188 302.994 70.1062 303.993 70.1986C304.085 70.2171 304.178 70.2171 304.27 70.2171Z" fill="#91B3FA"/>
<path opacity="0.3" d="M375.713 147.923C374.715 147.941 373.883 147.128 373.864 146.129C373.846 145.131 374.659 144.299 375.658 144.281C377.581 144.262 379.523 144.151 381.447 143.948C382.445 143.855 383.333 144.576 383.444 145.575C383.537 146.573 382.815 147.46 381.817 147.571C380.984 147.645 380.134 147.719 379.301 147.775C378.099 147.849 376.897 147.904 375.713 147.923ZM389.399 144.595C389.159 143.615 389.769 142.635 390.749 142.413C392.636 141.97 394.504 141.433 396.334 140.842C397.296 140.527 398.313 141.045 398.628 142.006C398.942 142.968 398.424 143.985 397.463 144.299C395.539 144.928 393.56 145.482 391.581 145.963C391.47 145.981 391.378 146 391.267 146C390.416 146.055 389.603 145.464 389.399 144.595ZM365.801 147.387C363.785 147.146 361.769 146.795 359.772 146.388C358.791 146.185 358.163 145.223 358.366 144.225C358.569 143.245 359.531 142.617 360.53 142.82C362.416 143.208 364.34 143.541 366.245 143.781C367.243 143.911 367.946 144.817 367.835 145.815C367.724 146.702 367.003 147.35 366.152 147.405C366.023 147.405 365.912 147.387 365.801 147.387ZM404.231 139.732C403.788 138.827 404.157 137.736 405.064 137.292C406.802 136.442 408.504 135.517 410.168 134.537C411.037 134.02 412.147 134.297 412.665 135.166C413.183 136.035 412.905 137.144 412.036 137.662C410.298 138.697 408.485 139.677 406.654 140.564C406.432 140.675 406.21 140.731 405.97 140.749C405.267 140.786 404.564 140.398 404.231 139.732ZM350.229 143.67C348.324 142.986 346.419 142.21 344.569 141.359C343.663 140.934 343.256 139.862 343.663 138.956C344.089 138.05 345.161 137.643 346.067 138.05C347.824 138.845 349.637 139.585 351.431 140.232C352.374 140.564 352.873 141.618 352.522 142.561C352.263 143.264 351.634 143.726 350.931 143.763C350.728 143.8 350.469 143.763 350.229 143.67ZM335.859 136.645C334.139 135.554 332.456 134.389 330.847 133.169C330.052 132.559 329.885 131.413 330.495 130.618C331.106 129.823 332.252 129.656 333.048 130.267C334.583 131.431 336.192 132.541 337.819 133.576C338.67 134.112 338.929 135.24 338.374 136.09C338.041 136.608 337.505 136.904 336.95 136.941C336.58 136.959 336.192 136.867 335.859 136.645ZM323.357 126.661C321.914 125.219 320.527 123.722 319.214 122.169C318.567 121.392 318.659 120.246 319.417 119.599C320.194 118.952 321.341 119.044 321.988 119.802C323.227 121.263 324.559 122.705 325.927 124.073C326.63 124.776 326.649 125.94 325.927 126.643C325.594 126.976 325.188 127.142 324.762 127.179C324.244 127.216 323.745 127.031 323.357 126.661ZM313.333 114.163C312.242 112.444 311.206 110.669 310.281 108.876C309.819 107.988 310.152 106.879 311.058 106.417C311.946 105.955 313.055 106.306 313.518 107.193C314.405 108.894 315.386 110.595 316.421 112.222C316.958 113.073 316.717 114.2 315.867 114.737C315.589 114.903 315.312 114.995 315.016 115.014C314.35 115.051 313.703 114.755 313.333 114.163ZM306.287 99.7796C305.602 97.8754 304.992 95.9156 304.474 93.9559C304.215 92.976 304.789 91.9961 305.769 91.7373C306.73 91.4785 307.729 92.0516 307.988 93.0315C308.487 94.8988 309.061 96.7661 309.708 98.5779C310.041 99.5208 309.56 100.575 308.598 100.907C308.432 100.963 308.265 101 308.099 101.018C307.322 101.037 306.564 100.575 306.287 99.7796ZM302.588 84.2311C302.403 82.7521 302.255 81.2545 302.162 79.757C302.125 79.2208 302.107 78.6847 302.07 78.1485C302.033 77.1502 302.791 76.2812 303.808 76.2627C304.807 76.2258 305.658 77.0023 305.695 78.0006C305.713 78.5183 305.75 79.0175 305.769 79.5351C305.861 80.9402 305.991 82.3823 306.176 83.7874C306.305 84.7858 305.584 85.6917 304.604 85.8211C304.567 85.8211 304.53 85.8211 304.493 85.8396C303.549 85.8766 302.699 85.174 302.588 84.2311Z" fill="#91B3FA"/>
<path opacity="0.3" d="M419.212 132.356C419.581 132.337 419.933 132.208 420.229 131.967C421.006 131.357 421.764 130.71 422.522 130.045C423.28 129.379 423.354 128.233 422.688 127.475C422.023 126.717 420.876 126.643 420.118 127.308C419.397 127.937 418.675 128.547 417.936 129.12C417.159 129.749 417.029 130.895 417.658 131.672C418.065 132.152 418.638 132.393 419.212 132.356Z" fill="#91B3FA"/>
</g>
<path d="M422.652 101.333C422.855 101.037 422.855 100.649 422.652 100.353L416.66 91.9037C418.509 87.4296 419.656 82.6412 419.97 77.6678L429.069 72.7315C429.383 72.5651 429.568 72.1954 429.494 71.8441L427.46 59.5865C427.405 59.2352 427.127 58.9394 426.757 58.8839L416.549 57.1645C414.644 52.5795 411.999 48.4011 408.818 44.759L411.777 34.8309C411.888 34.4796 411.759 34.1098 411.463 33.888L401.365 26.6591C401.069 26.4557 400.681 26.4557 400.385 26.6591L391.933 32.6493C387.457 30.8004 382.667 29.6542 377.692 29.3399L372.755 20.2437C372.588 19.9294 372.218 19.7445 371.867 19.8185L359.605 21.8522C359.254 21.9077 358.958 22.185 358.902 22.5547L357.182 32.7602C352.596 34.6645 348.416 37.3083 344.773 40.4882L334.842 37.5301C334.49 37.4192 334.12 37.5486 333.898 37.8444L326.667 47.9389C326.464 48.2347 326.464 48.623 326.667 48.9188L332.659 57.3679C330.81 61.842 329.663 66.6304 329.349 71.6037L320.25 76.5401C319.935 76.7065 319.75 77.0762 319.824 77.4275L321.859 89.6851C321.914 90.0364 322.192 90.3322 322.561 90.3877L332.77 92.1071C334.675 96.6921 337.32 100.87 340.501 104.513L337.542 114.441C337.431 114.792 337.56 115.162 337.856 115.384L347.954 122.612C348.25 122.816 348.638 122.816 348.934 122.612L357.386 116.622C361.861 118.471 366.651 119.617 371.626 119.932L376.564 129.028C376.731 129.342 377.101 129.527 377.452 129.453L389.714 127.419C390.065 127.364 390.361 127.087 390.416 126.717L392.136 116.511C396.723 114.607 400.903 111.963 404.546 108.783L414.477 111.741C414.829 111.852 415.199 111.723 415.42 111.427L422.652 101.333Z" fill="#91B3FA"/>
<path d="M373.642 87.0969C366.781 86.5238 361.658 80.4781 362.232 73.6191C362.509 70.2912 364.062 67.2776 366.615 65.133C369.167 62.9699 372.385 61.9346 375.714 62.2119C382.575 62.785 387.698 68.8306 387.125 75.6897C386.607 81.9387 381.558 86.7271 375.473 87.1154C374.863 87.1524 374.253 87.1523 373.642 87.0969ZM368.483 67.3516C366.522 68.997 365.339 71.308 365.135 73.8594C364.691 79.11 368.631 83.7505 373.883 84.1943C379.154 84.638 383.777 80.7 384.221 75.4494C384.665 70.1988 380.726 65.5582 375.473 65.1145C374.992 65.0775 374.53 65.0775 374.049 65.096C371.996 65.2439 370.073 66.0204 368.483 67.3516Z" fill="#BDD0FB"/>
<path d="M376.361 105.123C377.396 105.049 378.451 104.938 379.505 104.771C379.838 104.716 380.171 104.66 380.485 104.587C382.094 104.272 383.684 103.81 385.219 103.255C385.238 103.255 385.256 103.237 385.275 103.237C385.33 103.218 385.386 103.2 385.46 103.163C385.571 103.126 385.682 103.07 385.811 103.033C386.107 102.923 386.292 102.627 386.274 102.312C386.274 102.239 386.255 102.165 386.218 102.091C386.07 101.721 385.645 101.536 385.275 101.684C383.352 102.442 381.336 102.997 379.264 103.348C369.037 105.049 359.161 101.185 352.688 93.9928C349.1 89.9994 346.567 84.9706 345.624 79.2763C345.457 78.2779 345.346 77.2795 345.272 76.2812C344.847 69.5885 346.733 63.0067 350.691 57.4788C355.241 51.1188 361.991 46.922 369.684 45.6464C385.608 43.0026 400.681 53.7996 403.325 69.7179C403.492 70.6978 403.603 71.6776 403.658 72.676C403.936 76.9468 403.27 81.236 401.698 85.2109C401.661 85.3219 401.642 85.4143 401.642 85.5252C401.661 85.8026 401.827 86.0429 402.105 86.1538C402.474 86.3017 402.9 86.1169 403.048 85.7471C404.694 81.5688 405.397 77.0762 405.119 72.5836C405.045 71.5482 404.934 70.5129 404.768 69.4776C401.994 52.7828 386.144 41.4496 369.444 44.2228C361.344 45.5724 354.26 49.9726 349.489 56.6468C345.328 62.4521 343.367 69.3666 343.811 76.3921C343.885 77.4275 343.996 78.4813 344.163 79.5351C345.513 87.6329 349.914 94.7138 356.591 99.4838C362.416 103.607 369.315 105.585 376.361 105.123Z" fill="#BDD0FB"/>
<g opacity="0.3">
<path opacity="0.3" d="M510.776 123.962C511.256 123.925 511.682 123.593 511.793 123.093C511.996 122.169 512.181 121.208 512.348 120.265C512.44 119.655 512.033 119.081 511.423 118.971C510.813 118.86 510.239 119.285 510.128 119.895C509.98 120.801 509.814 121.707 509.61 122.594C509.481 123.204 509.851 123.796 510.461 123.944C510.554 123.962 510.665 123.962 510.776 123.962Z" fill="#91B3FA"/>
<path opacity="0.3" d="M511.775 115.384C511.146 115.365 510.665 114.829 510.702 114.219C510.757 112.648 510.739 111.058 510.647 109.505C510.628 109.172 510.609 108.839 510.573 108.506C510.517 107.896 510.979 107.341 511.59 107.286C512.181 107.267 512.755 107.693 512.81 108.321C512.847 108.673 512.866 109.005 512.884 109.357C512.995 111.002 513.014 112.666 512.94 114.293C512.921 114.866 512.459 115.328 511.886 115.365C511.867 115.384 511.812 115.384 511.775 115.384ZM509.74 102.867C509.352 101 508.834 99.1512 508.224 97.3578C508.02 96.7662 508.335 96.1376 508.927 95.9343C509.518 95.7309 510.147 96.0452 510.351 96.6368C510.998 98.5226 511.534 100.464 511.941 102.405C512.071 103.015 511.682 103.607 511.072 103.736C511.016 103.755 510.961 103.755 510.905 103.755C510.369 103.792 509.851 103.422 509.74 102.867ZM506.041 92.0702C505.209 90.3693 504.266 88.6869 503.23 87.0969C502.897 86.5793 503.045 85.8767 503.563 85.5439C504.081 85.2111 504.784 85.359 505.117 85.8767C506.208 87.5406 507.207 89.297 508.076 91.0904C508.353 91.645 508.113 92.3291 507.558 92.5879C507.429 92.6618 507.281 92.6988 507.133 92.6988C506.689 92.7358 506.263 92.4955 506.041 92.0702ZM499.827 82.5304C498.607 81.0883 497.275 79.6832 495.888 78.4075C495.426 77.9823 495.407 77.2797 495.833 76.8175C496.258 76.3553 496.961 76.3368 497.423 76.7621C498.884 78.1117 500.271 79.5723 501.566 81.0883C501.973 81.569 501.899 82.2715 501.436 82.6783C501.251 82.8447 501.011 82.9186 500.789 82.9371C500.401 82.9556 500.068 82.8077 499.827 82.5304ZM491.45 74.8023C489.915 73.693 488.287 72.6762 486.623 71.7518C486.086 71.456 485.883 70.7719 486.179 70.2173C486.475 69.6811 487.159 69.4777 487.714 69.7736C489.452 70.7349 491.154 71.8073 492.781 72.9535C493.281 73.3233 493.391 74.0258 493.04 74.525C492.837 74.8023 492.522 74.9687 492.189 74.9872C491.93 75.0242 491.672 74.9502 491.45 74.8023ZM481.463 69.3298C479.706 68.6273 477.875 68.0357 476.044 67.555C475.452 67.4071 475.082 66.7785 475.23 66.1869C475.378 65.5952 476.007 65.2255 476.599 65.3734C478.522 65.8726 480.427 66.5012 482.295 67.2407C482.868 67.4625 483.146 68.1281 482.924 68.7012C482.757 69.1265 482.369 69.3853 481.944 69.4038C481.777 69.4038 481.611 69.3853 481.463 69.3298ZM470.422 66.4642C468.554 66.2238 466.63 66.0944 464.726 66.0759C464.097 66.0759 463.597 65.5583 463.616 64.9482C463.616 64.3196 464.134 63.8389 464.744 63.8389C466.741 63.8574 468.757 63.9868 470.718 64.2456C471.328 64.3196 471.772 64.8927 471.679 65.5028C471.605 66.039 471.162 66.4457 470.644 66.4827C470.57 66.4827 470.496 66.4827 470.422 66.4642ZM452.057 66.5751C451.909 65.965 452.279 65.3549 452.889 65.2255C454.554 64.8187 456.274 64.5044 457.994 64.2641C458.253 64.2271 458.512 64.1901 458.77 64.1717C459.381 64.0792 459.954 64.5414 460.01 65.1515C460.084 65.7616 459.64 66.3348 459.029 66.3902C458.789 66.4087 458.549 66.4457 458.29 66.4827C456.644 66.7045 454.998 67.0003 453.407 67.3886C453.333 67.4071 453.278 67.4071 453.204 67.4256C452.686 67.4625 452.187 67.1113 452.057 66.5751Z" fill="#91B3FA"/>
</g>
<g opacity="0.3">
<path opacity="0.3" d="M466.815 160.883C464.855 160.975 462.876 160.957 460.934 160.827C460.324 160.79 459.843 160.254 459.898 159.626C459.935 158.997 460.49 158.553 461.101 158.59C462.95 158.72 464.855 158.738 466.723 158.646C467.352 158.609 467.869 159.09 467.906 159.718C467.906 160.328 467.444 160.846 466.815 160.883ZM471.365 159.33C471.254 158.72 471.679 158.128 472.289 158.036C474.139 157.721 475.97 157.296 477.764 156.76C478.356 156.594 478.984 156.926 479.169 157.518C479.354 158.11 479.003 158.738 478.411 158.923C476.543 159.478 474.601 159.94 472.678 160.273C472.641 160.273 472.604 160.291 472.548 160.291C471.975 160.291 471.457 159.885 471.365 159.33ZM455.09 160.051C453.167 159.681 451.243 159.182 449.394 158.572C448.802 158.387 448.488 157.74 448.673 157.148C448.857 156.557 449.505 156.242 450.097 156.427C451.872 157 453.703 157.481 455.534 157.832C456.144 157.943 456.533 158.535 456.422 159.145C456.329 159.663 455.885 160.014 455.386 160.051C455.275 160.088 455.182 160.069 455.09 160.051ZM482.443 156.279C482.202 155.706 482.461 155.041 483.016 154.8C484.736 154.042 486.4 153.192 488.009 152.23C488.546 151.916 489.23 152.083 489.544 152.619C489.859 153.155 489.692 153.839 489.156 154.153C487.473 155.152 485.716 156.058 483.922 156.853C483.793 156.908 483.663 156.945 483.534 156.945C483.09 156.982 482.646 156.723 482.443 156.279ZM443.901 156.409C442.126 155.577 440.387 154.634 438.723 153.599C438.205 153.266 438.038 152.582 438.371 152.046C438.704 151.509 439.388 151.362 439.925 151.694C441.515 152.674 443.161 153.58 444.863 154.375C445.418 154.634 445.677 155.299 445.399 155.873C445.214 156.261 444.844 156.501 444.456 156.52C444.271 156.52 444.086 156.501 443.901 156.409ZM433.933 150.197C432.398 148.958 430.937 147.627 429.587 146.24C429.161 145.797 429.161 145.076 429.605 144.65C430.049 144.225 430.77 144.225 431.196 144.669C432.49 146 433.896 147.276 435.357 148.44C435.838 148.829 435.912 149.531 435.523 150.03C435.32 150.289 435.024 150.419 434.71 150.456C434.432 150.456 434.155 150.382 433.933 150.197ZM425.74 141.766C424.556 140.213 423.447 138.568 422.466 136.867C422.152 136.331 422.337 135.647 422.873 135.332C423.41 135.018 424.094 135.203 424.408 135.739C425.352 137.348 426.406 138.919 427.534 140.398C427.904 140.897 427.811 141.6 427.312 141.97C427.127 142.117 426.923 142.191 426.702 142.191C426.332 142.247 425.962 142.081 425.74 141.766Z" fill="#91B3FA"/>
<path opacity="0.3" d="M493.465 151.066C493.687 151.047 493.891 150.973 494.076 150.825C494.834 150.234 495.592 149.624 496.295 148.995C496.757 148.588 496.813 147.867 496.406 147.405C495.999 146.943 495.296 146.887 494.816 147.294C494.131 147.886 493.429 148.477 492.689 149.032C492.189 149.42 492.115 150.123 492.485 150.604C492.744 150.936 493.114 151.084 493.465 151.066Z" fill="#91B3FA"/>
</g>
<path d="M496.462 129.879C496.609 129.675 496.609 129.416 496.462 129.213L492.448 123.556C493.687 120.561 494.446 117.362 494.668 114.034L500.752 110.743C500.974 110.632 501.085 110.392 501.048 110.152L499.679 101.961C499.642 101.721 499.458 101.536 499.217 101.499L492.393 100.334C491.117 97.2655 489.36 94.4738 487.214 92.0333L489.193 85.3961C489.267 85.1557 489.175 84.9154 488.971 84.7675L482.203 79.9236C481.999 79.7757 481.74 79.7757 481.537 79.9236L475.878 83.9355C472.881 82.6968 469.682 81.9388 466.353 81.717L463.061 75.6344C462.95 75.4125 462.71 75.3016 462.469 75.3385L454.276 76.7067C454.036 76.7436 453.851 76.9285 453.814 77.1689L452.649 83.991C449.579 85.2667 446.786 87.023 444.345 89.1677L437.706 87.1894C437.465 87.1155 437.225 87.2079 437.077 87.4113L432.231 94.1779C432.083 94.3813 432.083 94.6402 432.231 94.8435L436.245 100.501C435.005 103.496 434.247 106.694 434.025 110.022L427.941 113.313C427.719 113.424 427.608 113.664 427.645 113.905L429.013 122.095C429.05 122.335 429.235 122.52 429.476 122.557L436.3 123.722C437.576 126.791 439.333 129.583 441.478 132.023L439.5 138.66C439.426 138.901 439.518 139.141 439.722 139.289L446.49 144.133C446.694 144.281 446.953 144.281 447.156 144.133L452.815 140.121C455.811 141.36 459.011 142.118 462.34 142.34L465.632 148.422C465.743 148.644 465.983 148.755 466.224 148.718L474.416 147.35C474.657 147.313 474.842 147.128 474.879 146.888L476.044 140.065C479.114 138.79 481.907 137.033 484.348 134.889L490.987 136.867C491.228 136.941 491.468 136.849 491.616 136.645L496.462 129.879Z" fill="#91B3FA"/>
<path d="M463.653 120.486C461.396 120.302 459.325 119.248 457.864 117.51C456.403 115.772 455.7 113.572 455.885 111.316C456.274 106.639 460.379 103.163 465.077 103.551C469.756 103.94 473.233 108.062 472.844 112.721C472.659 114.977 471.605 117.048 469.867 118.508C468.461 119.71 466.741 120.394 464.929 120.505C464.485 120.523 464.078 120.523 463.653 120.486ZM458.123 111.501C457.993 113.165 458.511 114.792 459.584 116.068C460.657 117.343 462.173 118.12 463.838 118.268C465.502 118.397 467.13 117.88 468.406 116.807C469.682 115.735 470.459 114.219 470.607 112.555C470.884 109.116 468.332 106.084 464.892 105.807C464.577 105.788 464.281 105.77 463.967 105.807C460.916 105.973 458.382 108.377 458.123 111.501Z" fill="#BDD0FB"/>
<path d="M465.539 133.04C466.242 133.003 466.963 132.911 467.684 132.8C469.108 132.559 470.514 132.19 471.846 131.672C471.901 131.653 471.975 131.616 472.031 131.598C472.493 131.413 472.77 130.951 472.733 130.489C472.733 130.378 472.696 130.267 472.659 130.137C472.437 129.564 471.772 129.287 471.198 129.509C469.941 130.008 468.646 130.359 467.315 130.581C467.241 130.6 467.167 130.6 467.093 130.618C463.949 131.117 460.786 130.803 457.864 129.749C456.274 129.176 454.757 128.399 453.333 127.401C453.314 127.401 453.314 127.383 453.296 127.383C453.259 127.364 453.222 127.327 453.185 127.309C449.079 124.369 446.342 120.006 445.528 115.014C445.417 114.367 445.344 113.72 445.307 113.073C445.029 108.747 446.25 104.476 448.802 100.889C451.742 96.7848 456.107 94.0485 461.1 93.235C466.094 92.4031 471.106 93.5678 475.211 96.5074C479.317 99.4471 482.054 103.81 482.868 108.802C482.979 109.431 483.053 110.078 483.09 110.706C483.256 113.48 482.831 116.253 481.814 118.823C481.758 118.989 481.721 119.137 481.74 119.303C481.758 119.729 482.036 120.117 482.443 120.283C483.016 120.505 483.682 120.228 483.904 119.655C485.05 116.77 485.531 113.664 485.328 110.577C485.291 109.856 485.198 109.153 485.087 108.432C484.163 102.849 481.111 97.968 476.506 94.6771C471.901 91.3862 466.297 90.0736 460.712 91.0165C455.127 91.9409 450.244 94.9914 446.952 99.595C444.086 103.607 442.717 108.377 443.032 113.221C443.069 113.942 443.161 114.663 443.272 115.384C445.103 126.181 454.831 133.724 465.539 133.04Z" fill="#BDD0FB"/>
<defs>
<linearGradient id="paint0_linear_1078_12648" x1="574.375" y1="660.527" x2="122.089" y2="98.634" gradientUnits="userSpaceOnUse">
<stop stop-color="#DAE3FE"/>
<stop offset="1" stop-color="#E9EFFD"/>
</linearGradient>
<linearGradient id="paint1_linear_1078_12648" x1="109.243" y1="259.022" x2="148.169" y2="259.022" gradientUnits="userSpaceOnUse">
<stop stop-color="#DAE3FE"/>
<stop offset="1" stop-color="#E9EFFD"/>
</linearGradient>
<linearGradient id="paint2_linear_1078_12648" x1="65.9557" y1="259.018" x2="104.801" y2="259.018" gradientUnits="userSpaceOnUse">
<stop stop-color="#DAE3FE"/>
<stop offset="1" stop-color="#E9EFFD"/>
</linearGradient>
<linearGradient id="paint3_linear_1078_12648" x1="22.7115" y1="259.014" x2="61.4756" y2="259.014" gradientUnits="userSpaceOnUse">
<stop stop-color="#DAE3FE"/>
<stop offset="1" stop-color="#E9EFFD"/>
</linearGradient>
<linearGradient id="paint4_linear_1078_12648" x1="108.762" y1="287.334" x2="147.62" y2="287.334" gradientUnits="userSpaceOnUse">
<stop stop-color="#DAE3FE"/>
<stop offset="1" stop-color="#E9EFFD"/>
</linearGradient>
<linearGradient id="paint5_linear_1078_12648" x1="65.5499" y1="287.315" x2="104.327" y2="287.315" gradientUnits="userSpaceOnUse">
<stop stop-color="#DAE3FE"/>
<stop offset="1" stop-color="#E9EFFD"/>
</linearGradient>
<linearGradient id="paint6_linear_1078_12648" x1="22.3804" y1="287.297" x2="61.0766" y2="287.297" gradientUnits="userSpaceOnUse">
<stop stop-color="#DAE3FE"/>
<stop offset="1" stop-color="#E9EFFD"/>
</linearGradient>
<linearGradient id="paint7_linear_1078_12648" x1="108.279" y1="315.4" x2="147.069" y2="315.4" gradientUnits="userSpaceOnUse">
<stop stop-color="#DAE3FE"/>
<stop offset="1" stop-color="#E9EFFD"/>
</linearGradient>
<linearGradient id="paint8_linear_1078_12648" x1="65.1422" y1="315.367" x2="103.851" y2="315.367" gradientUnits="userSpaceOnUse">
<stop stop-color="#DAE3FE"/>
<stop offset="1" stop-color="#E9EFFD"/>
</linearGradient>
<linearGradient id="paint9_linear_1078_12648" x1="22.0485" y1="315.335" x2="60.6771" y2="315.335" gradientUnits="userSpaceOnUse">
<stop stop-color="#DAE3FE"/>
<stop offset="1" stop-color="#E9EFFD"/>
</linearGradient>
<linearGradient id="paint10_linear_1078_12648" x1="107.801" y1="343.368" x2="146.523" y2="343.368" gradientUnits="userSpaceOnUse">
<stop stop-color="#DAE3FE"/>
<stop offset="1" stop-color="#E9EFFD"/>
</linearGradient>
<linearGradient id="paint11_linear_1078_12648" x1="64.7394" y1="343.322" x2="103.381" y2="343.322" gradientUnits="userSpaceOnUse">
<stop stop-color="#DAE3FE"/>
<stop offset="1" stop-color="#E9EFFD"/>
</linearGradient>
<linearGradient id="paint12_linear_1078_12648" x1="21.7195" y1="343.276" x2="60.2808" y2="343.276" gradientUnits="userSpaceOnUse">
<stop stop-color="#DAE3FE"/>
<stop offset="1" stop-color="#E9EFFD"/>
</linearGradient>
<linearGradient id="paint13_linear_1078_12648" x1="107.323" y1="371.24" x2="145.977" y2="371.24" gradientUnits="userSpaceOnUse">
<stop stop-color="#DAE3FE"/>
<stop offset="1" stop-color="#E9EFFD"/>
</linearGradient>
<linearGradient id="paint14_linear_1078_12648" x1="64.3355" y1="371.179" x2="102.909" y2="371.179" gradientUnits="userSpaceOnUse">
<stop stop-color="#DAE3FE"/>
<stop offset="1" stop-color="#E9EFFD"/>
</linearGradient>
<linearGradient id="paint15_linear_1078_12648" x1="21.3903" y1="371.12" x2="59.8845" y2="371.12" gradientUnits="userSpaceOnUse">
<stop stop-color="#DAE3FE"/>
<stop offset="1" stop-color="#E9EFFD"/>
</linearGradient>
<linearGradient id="paint16_linear_1078_12648" x1="106.848" y1="399.016" x2="145.434" y2="399.016" gradientUnits="userSpaceOnUse">
<stop stop-color="#DAE3FE"/>
<stop offset="1" stop-color="#E9EFFD"/>
</linearGradient>
<linearGradient id="paint17_linear_1078_12648" x1="63.9342" y1="398.942" x2="102.441" y2="398.942" gradientUnits="userSpaceOnUse">
<stop stop-color="#DAE3FE"/>
<stop offset="1" stop-color="#E9EFFD"/>
</linearGradient>
<linearGradient id="paint18_linear_1078_12648" x1="21.0635" y1="398.869" x2="59.4908" y2="398.869" gradientUnits="userSpaceOnUse">
<stop stop-color="#DAE3FE"/>
<stop offset="1" stop-color="#E9EFFD"/>
</linearGradient>
<linearGradient id="paint19_linear_1078_12648" x1="106.375" y1="426.696" x2="144.894" y2="426.696" gradientUnits="userSpaceOnUse">
<stop stop-color="#DAE3FE"/>
<stop offset="1" stop-color="#E9EFFD"/>
</linearGradient>
<linearGradient id="paint20_linear_1078_12648" x1="63.5359" y1="426.608" x2="101.976" y2="426.608" gradientUnits="userSpaceOnUse">
<stop stop-color="#DAE3FE"/>
<stop offset="1" stop-color="#E9EFFD"/>
</linearGradient>
<linearGradient id="paint21_linear_1078_12648" x1="20.7375" y1="426.521" x2="59.0983" y2="426.521" gradientUnits="userSpaceOnUse">
<stop stop-color="#DAE3FE"/>
<stop offset="1" stop-color="#E9EFFD"/>
</linearGradient>
<linearGradient id="paint22_linear_1078_12648" x1="105.901" y1="454.28" x2="144.353" y2="454.28" gradientUnits="userSpaceOnUse">
<stop stop-color="#DAE3FE"/>
<stop offset="1" stop-color="#E9EFFD"/>
</linearGradient>
<linearGradient id="paint23_linear_1078_12648" x1="63.1341" y1="454.179" x2="101.507" y2="454.179" gradientUnits="userSpaceOnUse">
<stop stop-color="#DAE3FE"/>
<stop offset="1" stop-color="#E9EFFD"/>
</linearGradient>
<linearGradient id="paint24_linear_1078_12648" x1="20.4117" y1="454.079" x2="58.7059" y2="454.079" gradientUnits="userSpaceOnUse">
<stop stop-color="#DAE3FE"/>
<stop offset="1" stop-color="#E9EFFD"/>
</linearGradient>
<linearGradient id="paint25_linear_1078_12648" x1="105.43" y1="481.77" x2="143.815" y2="481.77" gradientUnits="userSpaceOnUse">
<stop stop-color="#DAE3FE"/>
<stop offset="1" stop-color="#E9EFFD"/>
</linearGradient>
<linearGradient id="paint26_linear_1078_12648" x1="62.738" y1="481.656" x2="101.045" y2="481.656" gradientUnits="userSpaceOnUse">
<stop stop-color="#DAE3FE"/>
<stop offset="1" stop-color="#E9EFFD"/>
</linearGradient>
<linearGradient id="paint27_linear_1078_12648" x1="20.0878" y1="481.542" x2="58.3159" y2="481.542" gradientUnits="userSpaceOnUse">
<stop stop-color="#DAE3FE"/>
<stop offset="1" stop-color="#E9EFFD"/>
</linearGradient>
<linearGradient id="paint28_linear_1078_12648" x1="344.193" y1="90.1148" x2="404.265" y2="-48.5573" gradientUnits="userSpaceOnUse">
<stop stop-color="#09005D"/>
<stop offset="1" stop-color="#1A0F91"/>
</linearGradient>
<linearGradient id="paint29_linear_1078_12648" x1="349.657" y1="179.94" x2="214.479" y2="1117.17" gradientUnits="userSpaceOnUse">
<stop stop-color="#FEBBBA"/>
<stop offset="1" stop-color="#FF928E"/>
</linearGradient>
<linearGradient id="paint30_linear_1078_12648" x1="346.11" y1="179.428" x2="210.931" y2="1116.66" gradientUnits="userSpaceOnUse">
<stop stop-color="#FEBBBA"/>
<stop offset="1" stop-color="#FF928E"/>
</linearGradient>
<linearGradient id="paint31_linear_1078_12648" x1="353.833" y1="286.528" x2="552.022" y2="-107.646" gradientUnits="userSpaceOnUse">
<stop stop-color="#FE7062"/>
<stop offset="1" stop-color="#FF928E"/>
</linearGradient>
<linearGradient id="paint32_linear_1078_12648" x1="86.8068" y1="502.607" x2="108.741" y2="502.607" gradientUnits="userSpaceOnUse">
<stop stop-color="#09005D"/>
<stop offset="1" stop-color="#1A0F91"/>
</linearGradient>
<linearGradient id="paint33_linear_1078_12648" x1="92.907" y1="477.643" x2="88.7199" y2="514.197" gradientUnits="userSpaceOnUse">
<stop stop-color="#FEBBBA"/>
<stop offset="1" stop-color="#FF928E"/>
</linearGradient>
<linearGradient id="paint34_linear_1078_12648" x1="120.207" y1="503.164" x2="151.781" y2="503.164" gradientUnits="userSpaceOnUse">
<stop stop-color="#09005D"/>
<stop offset="1" stop-color="#1A0F91"/>
</linearGradient>
<linearGradient id="paint35_linear_1078_12648" x1="126.464" y1="481.504" x2="124.584" y2="518.249" gradientUnits="userSpaceOnUse">
<stop stop-color="#FEBBBA"/>
<stop offset="1" stop-color="#FF928E"/>
</linearGradient>
<linearGradient id="paint36_linear_1078_12648" x1="120.679" y1="512.128" x2="77.3377" y2="305.398" gradientUnits="userSpaceOnUse">
<stop stop-color="#09005D"/>
<stop offset="1" stop-color="#1A0F91"/>
</linearGradient>
<linearGradient id="paint37_linear_1078_12648" x1="109.623" y1="264.591" x2="119.348" y2="238.024" gradientUnits="userSpaceOnUse">
<stop stop-color="#FEBBBA"/>
<stop offset="1" stop-color="#FF928E"/>
</linearGradient>
<linearGradient id="paint38_linear_1078_12648" x1="118.043" y1="178.968" x2="113.525" y2="213.48" gradientUnits="userSpaceOnUse">
<stop stop-color="#4065B1"/>
<stop offset="1" stop-color="#4A7CDD"/>
</linearGradient>
<linearGradient id="paint39_linear_1078_12648" x1="138.611" y1="135.093" x2="134.614" y2="177.888" gradientUnits="userSpaceOnUse">
<stop stop-color="#4065B1"/>
<stop offset="1" stop-color="#4A7CDD"/>
</linearGradient>
<linearGradient id="paint40_linear_1078_12648" x1="133.54" y1="224.744" x2="75.5754" y2="270.925" gradientUnits="userSpaceOnUse">
<stop stop-color="#FEBBBA"/>
<stop offset="1" stop-color="#FF928E"/>
</linearGradient>
<linearGradient id="paint41_linear_1078_12648" x1="111.157" y1="209.557" x2="137.72" y2="243.769" gradientUnits="userSpaceOnUse">
<stop stop-color="#09005D"/>
<stop offset="1" stop-color="#1A0F91"/>
</linearGradient>
<linearGradient id="paint42_linear_1078_12648" x1="127.704" y1="222.214" x2="99.1775" y2="244.048" gradientUnits="userSpaceOnUse">
<stop stop-color="#FEBBBA"/>
<stop offset="1" stop-color="#FF928E"/>
</linearGradient>
<linearGradient id="paint43_linear_1078_12648" x1="195.236" y1="236.633" x2="134.84" y2="288.822" gradientUnits="userSpaceOnUse">
<stop stop-color="#FEBBBA"/>
<stop offset="1" stop-color="#FF928E"/>
</linearGradient>
<linearGradient id="paint44_linear_1078_12648" x1="196.496" y1="241.497" x2="137.705" y2="292.297" gradientUnits="userSpaceOnUse">
<stop stop-color="#FEBBBA"/>
<stop offset="1" stop-color="#FF928E"/>
</linearGradient>
<linearGradient id="paint45_linear_1078_12648" x1="197.472" y1="239.222" x2="137.076" y2="291.41" gradientUnits="userSpaceOnUse">
<stop stop-color="#FEBBBA"/>
<stop offset="1" stop-color="#FF928E"/>
</linearGradient>
<linearGradient id="paint46_linear_1078_12648" x1="121.215" y1="132.553" x2="273.932" y2="334.206" gradientUnits="userSpaceOnUse">
<stop stop-color="#E1473D"/>
<stop offset="1" stop-color="#E9605A"/>
</linearGradient>
<linearGradient id="paint47_linear_1078_12648" x1="284.622" y1="168.232" x2="256.256" y2="307.396" gradientUnits="userSpaceOnUse">
<stop stop-color="#FE7062"/>
<stop offset="1" stop-color="#FF928E"/>
</linearGradient>
<linearGradient id="paint48_linear_1078_12648" x1="137.85" y1="234.07" x2="377.426" y2="251.987" gradientUnits="userSpaceOnUse">
<stop stop-color="#FF9085"/>
<stop offset="1" stop-color="#FB6FBB"/>
</linearGradient>
<linearGradient id="paint49_linear_1078_12648" x1="246.803" y1="224.978" x2="304.72" y2="77.6728" gradientUnits="userSpaceOnUse">
<stop stop-color="#FE7062"/>
<stop offset="1" stop-color="#FF928E"/>
</linearGradient>
<linearGradient id="paint50_linear_1078_12648" x1="278.724" y1="68.2713" x2="268.865" y2="87.3788" gradientUnits="userSpaceOnUse">
<stop stop-color="#FE7062"/>
<stop offset="1" stop-color="#FF928E"/>
</linearGradient>
<linearGradient id="paint51_linear_1078_12648" x1="159.199" y1="282.024" x2="130.486" y2="425.301" gradientUnits="userSpaceOnUse">
<stop stop-color="#FEBBBA"/>
<stop offset="1" stop-color="#FF928E"/>
</linearGradient>
</defs>
</svg>
