<svg width="285" height="44" viewBox="0 0 285 44" fill="none" xmlns="http://www.w3.org/2000/svg">
<path d="M160.502 34.6041H150.197L155.348 26.2005L160.502 17.7987L165.653 26.2005L170.803 34.6041H160.502ZM162.586 14.6174L164.102 11.7357L183.641 43.3999H187.108L173.805 21.6991L163.925 5.58557L146.504 34.5678L143.21 34.6041L162.273 2.88908L160.502 0.00013259L147.199 21.6991L137.585 37.3787H172.02L173.729 40.1532H135.882L133.894 43.3999H160.502H180.345L162.586 14.6174Z" fill="url(#paint0_radial_2010_4978)"/>
<path d="M8.59408 27.2684L7.16708 24.9079L5.75776 27.2684H8.59408ZM0 32.7759L7.16708 20.7908L14.3854 32.7759H11.8891L9.74847 29.1769L4.60267 29.1932L2.46308 32.7759H0Z" fill="#21598A"/>
<path d="M19.3037 32.7759V20.7908H21.4609V30.7839H31.0731V32.7759H19.3037Z" fill="#21598A"/>
<path d="M35.9933 32.7759V20.7908H38.1505V30.7839H47.7622V32.7759H35.9933Z" fill="#21598A"/>
<path d="M54.84 20.7908V32.7759H52.6827V20.7908H54.84" fill="#21598A"/>
<path d="M68.3733 27.2684L66.9466 24.9079L65.537 27.2684H68.3733ZM59.7792 32.7759L66.9466 20.7908L74.1641 32.7759H71.668L69.5272 29.1769L64.3818 29.1932L62.2423 32.7759H59.7792Z" fill="#21598A"/>
<path d="M79.084 32.7759V20.7908H80.7317L89.478 29.4111V20.7908H91.6683V32.7759H89.9871L81.2578 24.138L81.2413 32.7759H79.084" fill="#21598A"/>
<path d="M108.222 24.757L108.103 24.5402C108.053 24.4392 108.019 24.3393 107.967 24.2551L107.831 24.0379C107.797 23.9708 107.746 23.9209 107.662 23.8538C106.813 22.9495 104.995 22.765 103.671 22.765C100.308 22.765 98.78 23.7031 98.78 26.7664C98.78 29.846 100.308 30.7837 103.671 30.7837C104.995 30.7837 106.813 30.5995 107.662 29.7123C107.746 29.6288 107.797 29.5779 107.831 29.5278C107.865 29.461 107.9 29.3945 107.967 29.3103C108.019 29.2268 108.053 29.1095 108.103 29.026L108.222 28.7746L109.836 30.2817L109.785 30.3817C109.581 30.7339 109.325 31.0517 109.021 31.3194C107.695 32.4408 105.351 32.7593 103.671 32.7593C99.1525 32.7593 96.5879 30.9681 96.5879 26.7664C96.5879 22.598 99.1525 20.7905 103.671 20.7905C105.351 20.7905 107.695 21.1083 109.021 22.2293C109.325 22.497 109.581 22.8159 109.785 23.1499L109.836 23.268L108.222 24.757Z" fill="#21598A"/>
<path d="M124.265 25.578V27.5699H116.928V30.7839H126.54V32.7759H114.771V20.7908H126.54V22.799H116.928V25.578H124.265Z" fill="#21598A"/>
<path d="M206.051 24.7956L205.933 24.5788C205.882 24.4778 205.848 24.378 205.796 24.2936L205.661 24.0765C205.626 24.0093 205.576 23.9596 205.491 23.892C204.641 22.9881 202.825 22.8036 201.499 22.8036C198.137 22.8036 196.609 23.7417 196.609 26.8049C196.609 29.8846 198.137 30.8222 201.499 30.8222C202.825 30.8222 204.641 30.6382 205.491 29.751C205.576 29.6674 205.626 29.6165 205.661 29.5668C205.695 29.4996 205.729 29.4332 205.796 29.3489C205.848 29.2654 205.882 29.148 205.933 29.0646L206.051 28.8133L207.665 30.3204L207.613 30.4202C207.41 30.7725 207.155 31.0903 206.849 31.3579C205.524 32.4793 203.181 32.7979 201.499 32.7979C196.981 32.7979 194.418 31.0067 194.418 26.8049C194.418 22.6365 196.981 20.8291 201.499 20.8291C203.181 20.8291 205.524 21.1469 206.849 22.2679C207.155 22.5359 207.41 22.8545 207.613 23.1886L207.665 23.3066L206.051 24.7956" fill="#21598A"/>
<path d="M220.125 26.0512C221.568 26.0512 222.826 26.0173 222.826 24.6283V24.2099C222.826 23.4734 222.435 23.1385 221.908 22.9715C221.619 22.888 221.297 22.8371 220.957 22.8371C220.6 22.8034 220.244 22.8208 219.904 22.8208H214.758V26.0512H220.125ZM219.819 20.8289C222.383 20.8289 225 21.2472 225 24.1935V24.662C225 26.9714 223.369 27.8088 221.178 28.0093L225.865 32.814H222.945L218.308 28.043H214.775L214.792 32.814H212.601V20.8289H219.819Z" fill="#21598A"/>
<path d="M240.296 25.6161V27.608H232.959V30.822H242.572V32.814H230.802V20.8289H242.572V22.8371H232.959V25.6161H240.296" fill="#21598A"/>
<path d="M253.401 30.8384C254.811 30.8384 256.526 30.6041 257.376 29.5836C257.986 28.8464 258.123 27.7587 258.123 26.8047C258.123 25.8666 257.986 24.7953 257.376 24.0592C256.526 23.0376 254.811 22.8034 253.401 22.8034H249.665V30.8384H253.401ZM253.401 20.8289C255.457 20.8289 257.8 21.2806 259.125 22.888C260.059 24.0254 260.313 25.4991 260.313 26.8381C260.313 30.8892 257.852 32.814 253.401 32.814H247.508V20.8289H253.401" fill="#21598A"/>
<path d="M267.407 20.8289V32.814H265.249V20.8289H267.407Z" fill="#21598A"/>
<path d="M279.752 32.814H277.579L277.595 22.8208H272.348V20.8289H285V22.8208H279.752V32.814Z" fill="#21598A"/>
<defs>
<radialGradient id="paint0_radial_2010_4978" cx="0" cy="0" r="1" gradientUnits="userSpaceOnUse" gradientTransform="translate(160.501 21.7) scale(24.4193 31.2897)">
<stop stop-color="#30B3C6"/>
<stop offset="0.109076" stop-color="#31B3C6"/>
<stop offset="0.115613" stop-color="#34B5C5"/>
<stop offset="0.210598" stop-color="#23ADC8"/>
<stop offset="0.81743" stop-color="#21598A"/>
<stop offset="1" stop-color="#21598A"/>
</radialGradient>
</defs>
</svg>
