<svg width="664" height="495" viewBox="0 0 664 495" fill="none" xmlns="http://www.w3.org/2000/svg">
<path d="M597.467 456.118H553.51V456.383H597.467V456.118Z" fill="#EBEBEB"/>
<path d="M439.834 459.835H428.28V460.101H439.834V459.835Z" fill="#EBEBEB"/>
<path d="M552.182 443.901H526.685V444.167H552.182V443.901Z" fill="#EBEBEB"/>
<path d="M127.09 446.026H69.72V446.292H127.09V446.026Z" fill="#EBEBEB"/>
<path d="M147.275 446.026H138.909V446.292H147.275V446.026Z" fill="#EBEBEB"/>
<path d="M299.066 451.735H174.632V452.001H299.066V451.735Z" fill="#EBEBEB"/>
<path d="M664 434.739H0V435.005H664V434.739Z" fill="#EBEBEB"/>
<path d="M464.831 427.084H591.256V258.978H464.831V427.084Z" fill="#F5F5F5"/>
<path d="M440.75 427.084H464.919V258.978H440.75V427.084Z" fill="#E6E6E6"/>
<path d="M473.078 312.23H582.373V271.333H473.078V312.23Z" fill="#FAFAFA"/>
<path d="M542.09 271.413L541.558 276.857C541.426 278.716 539.832 280.044 538.106 280.044H517.522C515.662 280.044 514.202 278.716 514.069 276.857L513.538 271.413H542.09Z" fill="#EBEBEB"/>
<path d="M473.078 357.549H582.373V316.651H473.078V357.549Z" fill="#FAFAFA"/>
<path d="M542.09 316.693L541.558 322.137C541.426 323.996 539.832 325.324 538.106 325.324H517.522C515.662 325.324 514.202 323.996 514.069 322.137L513.538 316.693H542.09Z" fill="#EBEBEB"/>
<path d="M473.078 402.868H582.373V361.97H473.078V402.868Z" fill="#FAFAFA"/>
<path d="M542.09 361.973L541.558 367.417C541.426 369.276 539.832 370.604 538.106 370.604H517.522C515.662 370.604 514.202 369.276 514.069 367.417L513.538 361.973H542.09Z" fill="#EBEBEB"/>
<path d="M473.167 435.535H581.133L582.461 427.037H473.167V435.535Z" fill="#E6E6E6"/>
<path d="M450.59 435.535H473.166V427.037H449.262L450.59 435.535Z" fill="#E0E0E0"/>
<path d="M523.896 259.064H567.056L562.275 204.356H519.115L523.896 259.064Z" fill="#FAFAFA"/>
<path d="M523.896 259.064H521.771L516.99 204.356H519.115L523.896 259.064Z" fill="#EBEBEB"/>
<path d="M527.747 253.487H562.142L558.291 209.934H524.029L527.747 253.487Z" fill="#F0F0F0"/>
<path d="M530.27 249.902H558.955L555.768 213.519H527.083L530.27 249.902Z" fill="#E6E6E6"/>
<path d="M511.678 259.064L514.733 225.204H471.706L468.784 259.064H511.678Z" fill="#F0F0F0"/>
<path d="M511.678 259.064L514.733 225.204H516.99L514.069 259.064H511.678Z" fill="#E0E0E0"/>
<path d="M507.695 255.612L510.085 228.656H475.823L473.432 255.612H507.695Z" fill="#EBEBEB"/>
<path d="M505.038 253.487L507.03 230.914H478.478L476.486 253.487H505.038Z" fill="#F5F5F5"/>
<path d="M412.477 412.697C412.477 421.726 411.016 427.436 408.759 431.154C407.032 433.942 403.712 435.536 400.392 435.536H387.378C384.058 435.536 380.871 433.942 379.011 431.154C376.621 427.436 375.293 421.593 375.293 412.697C375.293 399.684 381.003 389.194 382.863 380.961C383.527 377.907 381.269 368.745 381.269 368.745H406.501C406.501 368.745 404.243 377.907 404.907 380.961C406.899 389.326 412.477 399.684 412.477 412.697Z" fill="#EBEBEB"/>
<path d="M455.504 359.981C455.504 348.694 437.842 353.342 433.327 335.814C431.6 329.175 446.075 314.17 446.075 314.17H401.056C401.056 314.17 415.531 329.175 413.805 335.814C409.29 353.342 391.627 348.694 391.627 359.981C391.627 372.463 416.594 398.356 417.789 427.569C417.922 430.224 413.141 435.536 413.141 435.536H433.991C433.991 435.536 429.21 430.091 429.343 427.569C430.538 398.356 455.504 372.463 455.504 359.981Z" fill="#F5F5F5"/>
<path d="M441.959 389.459C444.615 384.015 439.17 365.292 439.17 365.292H458.691C458.691 365.292 453.247 384.015 455.903 389.459C457.762 393.31 461.879 395.833 461.879 400.348V427.967C461.879 435.138 456.035 435.669 448.864 435.669C441.693 435.669 435.85 435.138 435.85 427.967V400.348C435.85 395.7 440.099 393.31 441.959 389.459Z" fill="#F0F0F0"/>
<path d="M219.386 226.531C208.23 221.751 201.856 211.526 205.176 203.692C208.496 195.991 220.315 193.6 231.603 198.514C242.758 203.294 249.133 213.651 245.813 221.353C242.36 229.054 230.541 231.312 219.386 226.531ZM228.283 205.95C223.104 203.692 217.526 204.754 215.933 208.34C214.339 211.925 217.394 216.705 222.573 218.962C227.752 221.22 233.33 220.158 234.923 216.572C236.517 212.987 233.462 208.207 228.283 205.95Z" fill="#E6E6E6"/>
<path d="M232.533 206.348L227.221 204.091L259.359 129.864C260.023 128.403 261.749 127.739 263.21 128.403C264.67 129.067 265.335 130.793 264.671 132.254L232.533 206.348Z" fill="#E6E6E6"/>
<path d="M267.061 139.291L256.835 134.777L259.226 129.465L269.451 133.98L267.061 139.291Z" fill="#E6E6E6"/>
<path d="M262.014 145.267L254.71 142.08L257.101 136.769L264.405 139.955L262.014 145.267Z" fill="#E6E6E6"/>
<path d="M254.152 146.793L251.83 152.154L259.995 155.69L262.317 150.328L254.152 146.793Z" fill="#E6E6E6"/>
<path d="M234.525 198.381L231.603 197.053C230.143 196.389 229.479 194.795 230.143 193.335C230.807 191.874 232.4 191.21 233.861 191.874L236.783 193.202C238.243 193.866 238.907 195.459 238.243 196.92C237.712 198.381 235.986 199.045 234.525 198.381Z" fill="#E6E6E6"/>
<path d="M462.808 172.886C471.706 178.729 473.963 190.945 467.854 200.107C461.746 209.137 449.661 211.792 440.763 205.817C431.866 199.974 429.608 187.758 435.717 178.596C441.826 169.567 453.91 167.044 462.808 172.886ZM446.606 197.053C450.723 199.842 456.434 198.647 459.222 194.397C462.011 190.148 460.949 184.439 456.832 181.65C452.715 178.862 447.005 180.057 444.216 184.306C441.427 188.555 442.49 194.397 446.606 197.053Z" fill="#E6E6E6"/>
<path d="M444.482 194.796L449.926 198.514L410.618 258.666C409.555 260.126 407.563 260.657 406.102 259.595C404.642 258.533 404.11 256.541 405.173 255.08L444.482 194.796Z" fill="#E6E6E6"/>
<path d="M405.439 241.802L416.992 249.503L411.282 258.134L399.728 250.3C398.002 249.238 397.603 246.98 398.666 245.254L400.392 242.599C401.455 241.138 403.712 240.74 405.439 241.802Z" fill="#E6E6E6"/>
<path d="M302.12 57.8942L296.011 73.6956C295.48 75.1563 293.887 75.8202 292.426 75.2891C290.965 74.7579 290.301 73.1645 290.832 71.7039L296.941 55.9024C298.933 50.8566 296.41 45.014 291.231 43.0222L285.52 40.8977C280.474 38.9059 274.631 41.4288 272.639 46.6074L270.115 53.1139L264.936 51.1221L267.459 44.6157C270.514 36.6485 279.544 32.665 287.512 35.7191L293.223 37.8436C301.323 41.0305 305.175 49.9271 302.12 57.8942Z" fill="#F0F0F0"/>
<path d="M301.191 60.417C300.792 59.8859 300.261 59.4875 299.597 59.222L268.787 47.2713C268.123 47.0057 267.327 47.0057 266.663 47.1385C265.467 47.4041 264.405 48.2008 263.874 49.5286L251.922 80.3348C251.125 82.3266 252.187 84.4512 254.047 85.2479L284.856 97.1985C286.848 97.9953 288.973 96.933 289.77 95.074L301.722 64.2678C302.253 62.8072 301.987 61.3465 301.191 60.417ZM277.818 84.1856L267.991 80.4676L273.17 71.4382C272.506 70.1103 272.373 68.5169 272.904 67.0563C273.967 64.2678 277.154 62.8072 279.943 64.0022C282.731 65.0645 284.192 68.2514 282.997 71.0398C282.466 72.5005 281.271 73.5628 279.943 74.0939L277.818 84.1856Z" fill="#E6E6E6"/>
<path d="M91.8229 417.577L337.636 417.577V285.322H91.8229L91.8229 417.577Z" fill="#E6E6E6"/>
<path d="M318.089 434.834H333.494V423.149H318.089V434.834Z" fill="#E6E6E6"/>
<path d="M73.1534 434.727H88.5582L88.5582 275.385H73.1534L73.1534 434.727Z" fill="#E6E6E6"/>
<path d="M88.312 275.529V434.872H96.5456V425.975H333.461V434.872H341.694V275.529H337.578H333.461H96.5456H92.4288H88.312ZM96.5456 289.87H210.886V345.242H96.5456V289.87ZM333.461 411.369H219.12V289.87H333.461V411.369ZM96.5456 411.369V353.341H210.886V411.369H96.5456Z" fill="#F0F0F0"/>
<path d="M219.078 411.436H325.717V295.912H219.078V411.436Z" fill="#F5F5F5"/>
<path d="M223.901 350.155C223.901 352.943 226.158 355.068 228.814 355.068C231.603 355.068 233.728 352.81 233.728 350.155C233.728 347.366 231.47 345.242 228.814 345.242C226.158 345.242 223.901 347.499 223.901 350.155Z" fill="#FAFAFA"/>
<path d="M228.947 355.068C230.939 355.068 232.666 353.873 233.463 352.146C233.728 352.81 233.861 353.474 233.861 354.271C233.861 357.06 231.603 359.184 228.947 359.184C226.158 359.184 224.034 356.927 224.034 354.271C224.034 353.474 224.166 352.81 224.432 352.146C225.229 354.005 226.955 355.068 228.947 355.068Z" fill="#E0E0E0"/>
<path d="M284.325 411.368H258.96L246.742 295.845H272.24L284.325 411.368Z" fill="#FAFAFA"/>
<path d="M252.453 411.368H247.406L235.189 295.845H240.235L252.453 411.368Z" fill="#FAFAFA"/>
<path d="M185.109 345.191H195.202V295.795H185.109V345.191Z" fill="#FAFAFA"/>
<path d="M143.286 345.191H153.379V295.795H143.286V345.191Z" fill="#F5F5F5"/>
<path d="M175.058 345.213H185.15V299.269H175.058V345.213Z" fill="#F5F5F5"/>
<path d="M153.47 345.213H163.563V299.269H153.47V345.213Z" fill="#FAFAFA"/>
<path d="M163.544 345.191H170.051V295.795H163.544V345.191Z" fill="#EBEBEB"/>
<path d="M170.042 345.213H175.089V299.269H170.042V345.213Z" fill="#FAFAFA"/>
<path d="M133.235 345.191H143.327V295.795H133.235V345.191Z" fill="#EBEBEB"/>
<path d="M123.183 345.213H133.276V299.269H123.183V345.213Z" fill="#E6E6E6"/>
<path d="M101.596 345.213H111.689V299.269H101.596V345.213Z" fill="#E6E6E6"/>
<path d="M111.669 345.191H118.177V295.795H111.669V345.191Z" fill="#FAFAFA"/>
<path d="M118.168 345.213H123.214V299.269H118.168V345.213Z" fill="#EBEBEB"/>
<path d="M96.5804 345.167H101.627V296.833H96.5804V345.167Z" fill="#EBEBEB"/>
<path d="M106.638 361.973H96.5457V411.369H106.638V361.973Z" fill="#EBEBEB"/>
<path d="M148.471 361.973H138.378V411.369H148.471V361.973Z" fill="#FAFAFA"/>
<path d="M116.731 365.425H106.638V411.368H116.731V365.425Z" fill="#FAFAFA"/>
<path d="M138.378 365.425H128.285V411.368H138.378V365.425Z" fill="#EBEBEB"/>
<path d="M128.285 361.973H121.778V411.369H128.285V361.973Z" fill="#FAFAFA"/>
<path d="M121.778 365.425H116.731V411.368H121.778V365.425Z" fill="#F5F5F5"/>
<path d="M158.43 361.973H148.338V411.369H158.43V361.973Z" fill="#EBEBEB"/>
<path d="M168.523 365.425H158.43V411.368H168.523V365.425Z" fill="#F5F5F5"/>
<path d="M190.17 365.425H180.077V411.368H190.17V365.425Z" fill="#E6E6E6"/>
<path d="M180.077 361.973H173.57V411.369H180.077V361.973Z" fill="#FAFAFA"/>
<path d="M201.723 361.973H195.216V411.369H201.723V361.973Z" fill="#FAFAFA"/>
<path d="M173.57 365.425H168.523V411.368H173.57V365.425Z" fill="#EBEBEB"/>
<path d="M195.216 363.167H190.17V411.501H195.216V363.167Z" fill="#EBEBEB"/>
<path d="M107.834 190.281C107.834 190.281 106.107 191.077 105.31 192.671C104.514 194.264 106.904 197.186 106.904 197.186C106.904 197.186 108.896 198.646 110.888 197.717C112.88 196.787 112.88 196.787 112.88 196.787C112.88 196.787 109.427 190.812 107.834 190.812V190.281Z" fill="#E6E6E6"/>
<path d="M116.333 190.281C116.598 193.069 114.872 196.655 112.349 196.92C109.826 197.186 107.568 193.999 107.302 191.078C107.037 188.289 109.029 188.024 111.552 187.758C114.075 187.492 116.067 187.492 116.333 190.281Z" fill="#E6E6E6"/>
<path d="M109.029 189.484C109.029 189.484 110.888 191.078 114.872 190.148C114.872 190.148 108.63 194.265 109.029 189.484Z" fill="#E6E6E6"/>
<path d="M110.755 188.953C110.755 188.953 113.013 188.555 113.013 189.484C113.013 189.484 114.872 189.351 114.606 188.555C114.341 187.758 110.755 188.953 110.755 188.953Z" fill="#E6E6E6"/>
<g opacity="0.2">
<path opacity="0.2" d="M109.029 189.484C109.029 189.484 110.888 191.078 114.872 190.148C114.872 190.148 108.63 194.265 109.029 189.484Z" fill="#FAFAFA"/>
</g>
<g opacity="0.2">
<path opacity="0.2" d="M110.755 188.953C110.755 188.953 113.013 188.555 113.013 189.484C113.013 189.484 114.872 189.351 114.606 188.555C114.341 187.758 110.755 188.953 110.755 188.953Z" fill="#FAFAFA"/>
</g>
<path d="M108.099 197.717C108.896 199.045 110.49 199.709 112.083 199.443C113.544 199.31 115.005 198.381 115.802 197.053C116.731 195.858 117.13 194.264 117.13 192.804C117.13 192.405 117.13 191.476 116.731 191.21C116.2 191.077 115.935 191.741 115.802 192.007C115.138 192.936 114.474 193.733 113.677 194.53C112.88 195.194 112.083 195.858 111.154 196.389C110.755 196.654 108.232 197.982 108.099 197.717Z" fill="#E6E6E6"/>
<path d="M118.856 192.14C119.387 193.335 119.122 194.663 118.458 195.592C117.926 196.256 117.262 196.655 116.598 197.186C116.067 197.451 115.536 197.717 115.005 197.451C114.474 197.186 114.474 196.389 114.606 195.725C114.739 194.796 115.005 193.866 115.27 192.937C115.403 192.14 115.536 190.945 116.067 190.281C116.466 189.75 116.997 190.015 117.661 190.414C118.192 190.945 118.723 191.476 118.856 192.14Z" fill="#E6E6E6"/>
<g opacity="0.2">
<path opacity="0.2" d="M108.763 196.257C107.834 196.257 106.904 195.593 106.506 194.663C106.24 193.999 106.24 192.273 107.17 192.14C107.568 193.468 107.834 194.929 108.763 196.257Z" fill="#FAFAFA"/>
</g>
<g opacity="0.2">
<path opacity="0.2" d="M115.271 196.123C116.2 195.858 116.997 195.061 117.263 194.264C117.395 193.733 117.263 191.21 116.466 192.272C116.2 192.671 116.2 193.733 116.067 194.264C115.935 194.795 115.669 195.459 115.271 196.123Z" fill="#FAFAFA"/>
</g>
<g opacity="0.2">
<path opacity="0.2" d="M111.818 197.717C112.482 198.381 113.677 198.381 114.341 197.85C114.208 198.381 112.614 198.779 112.216 198.912C110.888 199.31 110.224 198.779 109.029 198.248C109.029 198.115 111.021 198.381 111.818 197.717Z" fill="#FAFAFA"/>
</g>
<path d="M109.56 249.37L109.693 211.128L111.685 199.443L112.482 199.576L110.49 211.261L110.357 250.167L109.56 249.37Z" fill="#E0E0E0"/>
<path d="M110.357 210.995L109.693 211.394C109.029 210.597 108.498 209.535 107.966 208.34C107.037 206.481 105.842 204.489 104.248 202.63L104.779 202.099C106.506 203.958 107.701 206.082 108.63 207.941C109.294 209.136 109.826 210.199 110.357 210.995Z" fill="#E0E0E0"/>
<path d="M110.888 205.817C111.951 205.551 112.88 204.887 113.411 204.09C114.075 203.161 114.341 201.833 114.474 200.771C113.146 201.169 111.685 200.505 110.357 200.638C109.295 200.771 108.232 201.435 107.701 202.364C107.037 203.559 106.639 205.02 107.303 205.551C107.834 205.949 109.56 206.215 110.888 205.817Z" fill="#E6E6E6"/>
<path d="M105.842 203.161C104.646 203.958 103.053 204.09 101.725 203.692C100.397 203.294 99.9985 201.169 99.4673 199.841C100.662 199.576 103.85 199.709 104.646 199.841C105.31 199.974 106.107 200.24 106.506 200.904C106.904 201.568 106.771 202.364 106.24 202.895C105.974 202.763 105.842 203.161 105.842 203.161Z" fill="#E6E6E6"/>
<path d="M99.4673 205.419C100.264 204.356 102.389 203.692 103.717 203.958C105.045 204.224 106.107 205.153 106.638 206.215C106.24 207.012 105.31 207.543 104.514 207.543C103.584 207.543 102.787 207.278 101.858 207.145C101.061 206.879 100.131 206.614 99.2017 206.746L99.4673 205.419Z" fill="#E6E6E6"/>
<path d="M125.098 198.779C125.098 198.779 126.426 199.974 126.824 201.701C127.09 203.427 123.903 205.551 123.903 205.551C123.903 205.551 121.512 206.348 119.919 204.887C118.325 203.427 118.325 203.427 118.325 203.427C118.325 203.427 123.371 198.779 124.965 199.178L125.098 198.779Z" fill="#E6E6E6"/>
<path d="M116.864 196.256C115.802 198.912 116.466 202.763 118.723 203.692C121.114 204.622 124.168 202.232 125.231 199.709C126.293 197.053 124.434 196.256 122.043 195.327C119.919 194.265 117.927 193.601 116.864 196.256Z" fill="#E6E6E6"/>
<path d="M124.168 197.584C124.168 197.584 121.911 198.514 118.325 196.522C118.325 196.522 123.106 202.365 124.168 197.584Z" fill="#E6E6E6"/>
<path d="M122.708 196.522C122.708 196.522 120.716 195.459 120.45 196.389C120.45 196.389 118.724 195.725 119.122 195.061C119.653 194.397 122.708 196.522 122.708 196.522Z" fill="#E6E6E6"/>
<g opacity="0.2">
<path opacity="0.2" d="M124.168 197.584C124.168 197.584 121.911 198.514 118.325 196.522C118.325 196.522 123.106 202.365 124.168 197.584Z" fill="#FAFAFA"/>
</g>
<g opacity="0.2">
<path opacity="0.2" d="M122.708 196.522C122.708 196.522 120.716 195.459 120.45 196.389C120.45 196.389 118.724 195.725 119.122 195.061C119.653 194.397 122.708 196.522 122.708 196.522Z" fill="#FAFAFA"/>
</g>
<path d="M122.575 205.817C121.379 206.879 119.653 207.012 118.325 206.348C116.997 205.684 115.935 204.489 115.403 203.028C114.872 201.567 115.005 199.974 115.403 198.513C115.536 198.115 115.802 197.186 116.333 197.186C116.864 197.186 116.864 197.849 116.997 198.248C117.395 199.31 117.794 200.24 118.325 201.169C118.856 202.099 119.52 202.895 120.184 203.692C120.317 203.958 122.309 205.949 122.575 205.817Z" fill="#E6E6E6"/>
<path d="M113.943 197.318C113.146 198.248 112.88 199.709 113.279 200.771C113.544 201.568 114.075 202.231 114.607 202.763C115.005 203.161 115.536 203.692 116.067 203.427C116.599 203.294 116.864 202.497 116.864 201.966C116.997 201.036 116.997 200.107 117.13 199.177C117.13 198.381 117.395 197.186 117.13 196.389C116.864 195.725 116.2 195.858 115.536 196.123C115.005 196.389 114.341 196.787 113.943 197.318Z" fill="#E6E6E6"/>
<g opacity="0.2">
<path opacity="0.2" d="M122.442 204.091C123.371 204.356 124.434 203.958 125.098 203.161C125.496 202.63 126.027 201.037 125.231 200.505C124.434 201.966 123.637 203.161 122.442 204.091Z" fill="#FAFAFA"/>
</g>
<g opacity="0.2">
<path opacity="0.2" d="M116.2 202.099C115.403 201.568 114.872 200.638 114.872 199.709C114.872 199.177 115.802 196.787 116.2 197.982C116.333 198.381 115.935 199.443 115.935 199.974C115.935 200.771 116.067 201.435 116.2 202.099Z" fill="#FAFAFA"/>
</g>
<g opacity="0.2">
<path opacity="0.2" d="M119.122 204.622C118.325 205.02 117.13 204.622 116.599 203.958C116.599 204.489 117.927 205.286 118.325 205.551C119.387 206.215 120.184 205.95 121.512 205.817C121.512 205.95 119.653 205.551 119.122 204.622Z" fill="#FAFAFA"/>
</g>
<path d="M108.498 243.661L109.029 242.2L109.693 240.076L110.357 237.553L116.333 217.9L117.13 212.323L117.794 207.278L117.926 206.348H118.325H118.59V206.481L118.458 207.41L117.794 212.855L117.262 217.104L117.13 218.166L116.997 218.299L110.357 240.208L109.693 242.599L109.294 243.794L108.763 245.387L108.498 243.661Z" fill="#E0E0E0"/>
<path d="M116.466 217.768L116.864 218.432C117.661 217.9 118.458 217.104 119.387 216.041C120.848 214.581 122.575 212.855 124.699 211.66L124.301 210.996C122.043 212.323 120.45 214.05 118.856 215.51C118.059 216.44 117.262 217.237 116.466 217.768Z" fill="#E0E0E0"/>
<path d="M117.528 212.721C116.599 212.19 115.935 211.261 115.669 210.331C115.271 209.136 115.403 207.941 115.536 206.746C116.731 207.543 118.192 207.277 119.52 207.808C120.583 208.207 121.247 209.136 121.512 210.199C121.778 211.526 121.645 212.987 120.981 213.385C120.45 213.651 118.723 213.385 117.528 212.721Z" fill="#E6E6E6"/>
<path d="M123.238 211.66C124.168 212.722 125.629 213.386 127.09 213.386C128.55 213.386 129.48 211.527 130.41 210.332C129.347 209.668 126.16 209.004 125.496 208.871C124.832 208.738 124.035 208.871 123.504 209.269C122.973 209.801 122.707 210.597 123.238 211.261C123.238 211.128 123.238 211.66 123.238 211.66Z" fill="#E6E6E6"/>
<path d="M128.55 215.643C128.019 214.448 126.293 213.12 124.965 212.987C123.637 212.854 122.309 213.385 121.512 214.182C121.645 215.112 122.309 215.776 123.106 216.174C123.902 216.44 124.832 216.44 125.762 216.44C126.691 216.44 127.621 216.44 128.418 216.705L128.55 215.643Z" fill="#E6E6E6"/>
<path d="M98.1392 197.319C98.1392 197.319 96.6784 198.381 96.1472 200.107C95.616 201.834 98.5376 204.224 98.5376 204.224C98.5376 204.224 100.795 205.286 102.522 203.958C104.381 202.763 104.381 202.763 104.381 202.763C104.381 202.763 99.9984 197.584 98.272 197.717L98.1392 197.319Z" fill="#E6E6E6"/>
<path d="M106.638 195.725C107.435 198.514 106.24 202.232 103.85 202.896C101.459 203.56 98.5376 200.771 97.7408 198.115C96.944 195.327 98.936 194.796 101.326 194.132C103.85 193.468 105.842 192.937 106.638 195.725Z" fill="#E6E6E6"/>
<path d="M99.2017 196.123C99.2017 196.123 101.326 197.319 105.045 195.725C105.045 195.725 99.7329 201.036 99.2017 196.123Z" fill="#E6E6E6"/>
<path d="M100.795 195.327C100.795 195.327 102.92 194.53 103.053 195.459C103.053 195.459 104.912 195.061 104.514 194.264C104.115 193.6 100.795 195.327 100.795 195.327Z" fill="#E6E6E6"/>
<g opacity="0.2">
<path opacity="0.2" d="M99.2017 196.123C99.2017 196.123 101.326 197.319 105.045 195.725C105.045 195.725 99.7329 201.036 99.2017 196.123Z" fill="#FAFAFA"/>
</g>
<g opacity="0.2">
<path opacity="0.2" d="M100.795 195.327C100.795 195.327 102.92 194.53 103.053 195.459C103.053 195.459 104.912 195.061 104.514 194.264C104.115 193.6 100.795 195.327 100.795 195.327Z" fill="#FAFAFA"/>
</g>
<path d="M99.8656 204.489C100.928 205.684 102.654 205.95 104.115 205.551C105.576 205.153 106.771 203.958 107.435 202.497C108.099 201.169 108.232 199.576 107.966 197.983C107.966 197.584 107.834 196.655 107.302 196.522C106.771 196.522 106.638 197.186 106.506 197.584C106.107 198.514 105.576 199.576 104.912 200.373C104.248 201.169 103.584 201.966 102.654 202.63C102.256 203.028 99.9984 204.755 99.8656 204.489Z" fill="#E6E6E6"/>
<path d="M109.427 197.053C110.091 198.115 110.224 199.443 109.693 200.638C109.294 201.302 108.763 201.966 108.099 202.497C107.701 202.896 107.17 203.294 106.638 203.029C106.107 202.763 105.974 202.099 105.974 201.435C105.974 200.506 105.974 199.576 106.107 198.647C106.107 197.85 106.107 196.655 106.373 195.991C106.638 195.327 107.302 195.593 107.966 195.858C108.498 195.991 109.029 196.522 109.427 197.053Z" fill="#E6E6E6"/>
<g opacity="0.2">
<path opacity="0.2" d="M100.131 202.896C99.2015 203.028 98.1391 202.497 97.6079 201.701C97.2095 201.037 96.9439 199.443 97.7407 199.045C98.5375 200.506 99.0687 201.701 100.131 202.896Z" fill="#FAFAFA"/>
</g>
<g opacity="0.2">
<path opacity="0.2" d="M106.638 201.568C107.435 201.17 108.099 200.24 108.232 199.311C108.232 198.779 107.701 196.256 107.037 197.452C106.904 197.85 107.037 198.912 107.037 199.443C107.037 200.24 106.904 200.904 106.638 201.568Z" fill="#FAFAFA"/>
</g>
<g opacity="0.2">
<path opacity="0.2" d="M103.451 203.825C104.248 204.356 105.31 204.091 105.974 203.427C105.974 203.958 104.514 204.622 104.115 204.887C102.92 205.419 102.123 205.02 100.928 204.755C100.795 204.755 102.787 204.622 103.451 203.825Z" fill="#FAFAFA"/>
</g>
<path d="M110.622 255.08L103.85 217.369L103.584 205.551H104.381L104.514 217.369L111.419 255.611L110.622 255.08Z" fill="#E0E0E0"/>
<path d="M104.381 217.104L103.85 217.635C103.053 216.971 102.389 216.042 101.592 214.979C100.264 213.386 98.8032 211.527 96.944 210.066L97.3424 209.402C99.3344 210.996 100.928 212.855 102.123 214.448C103.053 215.51 103.717 216.44 104.381 217.104Z" fill="#E0E0E0"/>
<path d="M103.982 211.925C104.912 211.527 105.709 210.73 106.107 209.668C106.638 208.605 106.638 207.278 106.638 206.083C105.443 206.746 103.849 206.348 102.521 206.746C101.459 207.012 100.529 207.942 100.264 209.004C99.7327 210.332 99.7327 211.792 100.529 212.191C101.061 212.589 102.654 212.456 103.982 211.925Z" fill="#E6E6E6"/>
<path d="M98.5376 210.199C97.4752 211.128 96.0144 211.659 94.5536 211.526C93.0928 211.394 92.296 209.402 91.632 208.207C92.8272 207.676 96.0144 207.277 96.6784 207.277C97.3424 207.277 98.1392 207.41 98.6704 207.941C99.2016 208.472 99.2016 209.402 98.8032 209.933C98.5376 209.8 98.5376 210.199 98.5376 210.199Z" fill="#E6E6E6"/>
<path d="M92.6945 213.519C93.3585 212.324 95.2176 211.261 96.5456 211.261C97.8736 211.261 99.0688 211.925 99.7328 212.855C99.6 213.784 98.6704 214.315 97.8736 214.581C96.944 214.846 96.1472 214.714 95.2176 214.581C94.288 214.448 93.3584 214.315 92.5616 214.581L92.6945 213.519Z" fill="#E6E6E6"/>
<path d="M113.411 231.976H105.443C104.912 231.976 104.381 232.374 104.115 232.905C103.451 235.03 102.123 240.341 102.123 248.972C102.123 258.4 104.514 270.749 105.31 274.467C105.443 275.131 105.974 275.529 106.638 275.529H112.216C112.88 275.529 113.411 275.131 113.544 274.467C114.341 270.749 116.731 258.4 116.731 248.972C116.731 240.474 115.403 235.03 114.739 232.905C114.474 232.374 113.942 231.976 113.411 231.976Z" fill="#F0F0F0"/>
<path d="M332 493.961C474.213 493.961 589.499 487.243 589.499 478.956C589.499 470.67 474.213 463.952 332 463.952C189.787 463.952 74.5009 470.67 74.5009 478.956C74.5009 487.243 189.787 493.961 332 493.961Z" fill="#F5F5F5"/>
<path d="M160.423 427.303C160.024 427.303 159.626 426.905 159.626 426.374C160.555 387.335 162.68 323.332 162.68 322.934C162.813 322.535 163.344 322.27 163.743 322.403C164.141 322.535 164.407 323.067 164.274 323.465C164.274 323.598 162.282 387.733 161.219 426.374C161.352 427.038 160.954 427.303 160.423 427.303Z" fill="#263238"/>
<path d="M155.11 297.041C155.376 300.095 159.094 310.452 162.016 310.186C165.07 309.921 166.266 298.9 166 295.846C165.734 292.792 162.946 290.667 160.024 290.933C156.97 291.331 154.845 293.987 155.11 297.041Z" fill="#407BFF"/>
<path d="M169.718 329.839C169.453 326.785 165.734 316.427 162.813 316.693C159.758 316.959 158.563 327.98 158.829 331.034C159.094 334.088 161.883 336.212 164.805 335.947C167.859 335.549 170.117 332.893 169.718 329.839Z" fill="#407BFF"/>
<path d="M145.947 320.676C149.002 320.411 159.36 316.693 159.094 313.771C158.829 310.717 147.806 309.522 144.752 309.788C141.698 310.053 139.573 312.842 139.838 315.763C140.37 318.95 143.026 321.075 145.947 320.676Z" fill="#407BFF"/>
<path d="M178.882 306.203C175.827 306.468 165.469 310.186 165.735 313.108C166 316.162 177.023 317.357 180.077 317.091C183.131 316.826 185.256 314.037 184.991 311.116C184.592 308.062 181.936 305.805 178.882 306.203Z" fill="#407BFF"/>
<path d="M145.682 307C148.072 308.859 157.899 313.772 159.891 311.382C161.75 308.991 154.978 300.36 152.587 298.501C150.197 296.642 146.744 297.041 144.885 299.298C142.893 301.688 143.291 305.141 145.682 307Z" fill="#407BFF"/>
<path d="M179.28 319.88C176.89 318.021 167.063 313.108 165.071 315.498C163.211 317.888 169.984 326.519 172.375 328.378C174.765 330.237 178.218 329.839 180.077 327.581C181.936 325.191 181.538 321.739 179.28 319.88Z" fill="#407BFF"/>
<path d="M156.04 330.237C157.899 327.847 162.813 318.021 160.423 316.029C158.032 314.17 149.4 320.942 147.541 323.332C145.682 325.722 146.08 329.175 148.338 331.034C150.595 332.893 154.048 332.627 156.04 330.237Z" fill="#407BFF"/>
<path d="M168.922 296.642C167.062 299.032 162.149 308.858 164.539 310.85C166.93 312.709 175.562 305.937 177.421 303.547C179.28 301.157 178.882 297.704 176.624 295.845C174.234 293.986 170.781 294.252 168.922 296.642Z" fill="#407BFF"/>
<g opacity="0.6">
<path opacity="0.6" d="M155.11 297.041C155.376 300.095 159.094 310.452 162.016 310.186C165.07 309.921 166.266 298.9 166 295.846C165.734 292.792 162.946 290.667 160.024 290.933C156.97 291.331 154.845 293.987 155.11 297.041Z" fill="white"/>
<path opacity="0.6" d="M169.718 329.839C169.453 326.785 165.734 316.427 162.813 316.693C159.758 316.959 158.563 327.98 158.829 331.034C159.094 334.088 161.883 336.212 164.805 335.947C167.859 335.549 170.117 332.893 169.718 329.839Z" fill="white"/>
<path opacity="0.6" d="M145.947 320.676C149.002 320.411 159.36 316.693 159.094 313.771C158.829 310.717 147.806 309.522 144.752 309.788C141.698 310.053 139.573 312.842 139.838 315.763C140.37 318.95 143.026 321.075 145.947 320.676Z" fill="white"/>
<path opacity="0.6" d="M178.882 306.203C175.827 306.468 165.469 310.186 165.735 313.108C166 316.162 177.023 317.357 180.077 317.091C183.131 316.826 185.256 314.037 184.991 311.116C184.592 308.062 181.936 305.805 178.882 306.203Z" fill="white"/>
<path opacity="0.6" d="M145.682 307C148.072 308.859 157.899 313.772 159.891 311.382C161.75 308.991 154.978 300.36 152.587 298.501C150.197 296.642 146.744 297.041 144.885 299.298C142.893 301.688 143.291 305.141 145.682 307Z" fill="white"/>
<path opacity="0.6" d="M179.28 319.88C176.89 318.021 167.063 313.108 165.071 315.498C163.211 317.888 169.984 326.519 172.375 328.378C174.765 330.237 178.218 329.839 180.077 327.581C181.936 325.191 181.538 321.739 179.28 319.88Z" fill="white"/>
<path opacity="0.6" d="M156.04 330.237C157.899 327.847 162.813 318.021 160.423 316.029C158.032 314.17 149.4 320.942 147.541 323.332C145.682 325.722 146.08 329.175 148.338 331.034C150.595 332.893 154.048 332.627 156.04 330.237Z" fill="white"/>
<path opacity="0.6" d="M168.922 296.642C167.062 299.032 162.149 308.858 164.539 310.85C166.93 312.709 175.562 305.937 177.421 303.547C179.28 301.157 178.882 297.704 176.624 295.845C174.234 293.986 170.781 294.252 168.922 296.642Z" fill="white"/>
</g>
<path d="M156.04 314.17C156.438 317.755 159.626 320.278 163.211 319.88C166.797 319.481 169.32 316.294 168.922 312.709C168.523 309.124 165.336 306.601 161.75 306.999C158.165 307.398 155.642 310.585 156.04 314.17Z" fill="#407BFF"/>
<path d="M156.704 398.754C149.267 398.887 136.386 391.982 131.339 385.21C126.293 378.305 140.502 382.554 139.042 377.243C137.581 371.799 119.918 375.915 116.598 368.213C113.278 360.512 126.027 362.238 125.496 358.255C124.965 354.271 111.818 355.2 107.568 346.968C103.318 338.735 114.872 343.383 113.146 339.93C111.286 336.478 96.6785 322.27 102.787 319.216C108.896 316.162 122.574 331.034 127.09 332.76C131.605 334.353 132.667 324.129 138.643 329.042C144.619 333.955 140.237 355.466 147.275 358.255C152.454 360.379 150.197 350.553 156.306 352.943C166.797 357.325 159.626 398.621 156.704 398.754Z" fill="#407BFF"/>
<g opacity="0.2">
<path opacity="0.2" d="M156.704 398.754C149.267 398.887 136.386 391.982 131.339 385.21C126.293 378.305 140.502 382.554 139.042 377.243C137.581 371.799 119.918 375.915 116.598 368.213C113.278 360.512 126.027 362.238 125.496 358.255C124.965 354.271 111.818 355.2 107.568 346.968C103.318 338.735 114.872 343.383 113.146 339.93C111.286 336.478 96.6785 322.27 102.787 319.216C108.896 316.162 122.574 331.034 127.09 332.76C131.605 334.353 132.667 324.129 138.643 329.042C144.619 333.955 140.237 355.466 147.275 358.255C152.454 360.379 150.197 350.553 156.306 352.943C166.797 357.325 159.626 398.621 156.704 398.754Z" fill="white"/>
</g>
<path d="M167.328 389.194C167.461 389.459 166.398 390.522 169.984 390.654C179.147 391.053 195.216 390.389 201.192 382.156C209.824 370.338 189.904 371.4 191.896 364.894C193.888 358.387 215.136 363.699 219.386 354.404C223.502 345.109 207.965 346.968 208.762 342.188C209.426 337.407 225.76 343.648 231.205 333.689C236.517 323.863 222.307 329.042 224.698 325.058C226.955 320.942 245.149 303.946 237.712 300.228C230.408 296.377 213.41 314.17 207.832 316.029C202.254 317.888 200.926 300.493 193.622 306.336C186.318 312.178 191.099 338.47 182.467 341.657C176.093 344.047 179.546 334.619 171.71 335.017C160.821 335.548 157.368 372.463 167.328 389.194Z" fill="#407BFF"/>
<g opacity="0.3">
<path opacity="0.3" d="M167.328 389.194C167.461 389.459 166.398 390.522 169.984 390.654C179.147 391.053 195.216 390.389 201.192 382.156C209.824 370.338 189.904 371.4 191.896 364.894C193.888 358.387 215.136 363.699 219.386 354.404C223.502 345.109 207.965 346.968 208.762 342.188C209.426 337.407 225.76 343.648 231.205 333.689C236.517 323.863 222.307 329.042 224.698 325.058C226.955 320.942 245.149 303.946 237.712 300.228C230.408 296.377 213.41 314.17 207.832 316.029C202.254 317.888 200.926 300.493 193.622 306.336C186.318 312.178 191.099 338.47 182.467 341.657C176.093 344.047 179.546 334.619 171.71 335.017C160.821 335.548 157.368 372.463 167.328 389.194Z" fill="white"/>
</g>
<path d="M160.555 421.46C160.157 421.46 159.891 421.062 160.024 420.796C167.461 359.715 202.653 334.884 203.051 334.618C203.317 334.486 203.715 334.486 203.848 334.751C203.981 335.017 203.981 335.415 203.715 335.548C203.317 335.814 168.656 360.379 161.219 420.929C161.086 421.195 160.821 421.46 160.555 421.46Z" fill="#263238"/>
<path d="M195.083 343.117C194.818 343.117 194.685 342.984 194.552 342.719C194.419 342.453 194.685 342.055 194.95 341.922C195.216 341.789 200.395 340.196 209.027 342.055C209.293 342.188 209.558 342.453 209.426 342.719C209.293 342.984 209.027 343.25 208.762 343.117C200.528 341.391 195.349 342.984 195.349 342.984C195.216 343.117 195.083 343.117 195.083 343.117Z" fill="#263238"/>
<path d="M188.576 350.553C188.31 350.553 188.045 350.287 188.045 350.022C187.912 331.565 198.536 317.091 198.669 316.958C198.802 316.693 199.2 316.693 199.466 316.826C199.731 316.958 199.731 317.357 199.598 317.622C199.466 317.755 188.974 331.83 189.24 350.022C189.107 350.287 188.842 350.553 188.576 350.553Z" fill="#263238"/>
<path d="M178.085 366.089C177.952 366.089 177.819 365.956 177.687 365.956C177.421 365.691 177.421 365.292 177.687 365.16C177.819 365.027 185.655 357.724 196.013 361.442C196.279 361.574 196.544 361.84 196.411 362.238C196.278 362.504 196.013 362.769 195.615 362.637C185.92 359.184 178.483 365.956 178.483 366.089C178.35 366.089 178.218 366.089 178.085 366.089Z" fill="#263238"/>
<path d="M172.507 377.11C172.242 377.11 172.109 376.977 171.976 376.712C171.843 376.313 167.992 367.018 170.117 353.74C170.117 353.474 170.515 353.208 170.781 353.208C171.046 353.208 171.312 353.607 171.312 353.872C169.187 366.753 173.038 376.048 173.171 376.18C173.304 376.446 173.171 376.844 172.906 376.977C172.773 376.977 172.64 377.11 172.507 377.11Z" fill="#263238"/>
<path d="M160.821 443.237C160.555 443.237 160.29 442.971 160.29 442.706L159.493 426.506C157.235 372.728 120.317 336.079 119.918 335.681C119.653 335.415 119.653 335.017 119.918 334.884C120.184 334.619 120.582 334.619 120.715 334.884C121.114 335.283 158.298 372.197 160.688 426.506L161.485 442.706C161.485 442.971 161.219 443.237 160.821 443.237Z" fill="#263238"/>
<path d="M135.191 355.997C135.058 355.997 135.058 355.997 135.191 355.997C135.058 355.997 134.925 355.997 134.925 355.864L134.792 355.731C130.011 353.74 124.566 352.677 119.653 352.81C119.254 352.81 118.989 352.545 118.989 352.279C118.989 352.013 119.254 351.748 119.52 351.615C124.699 351.482 130.277 352.545 135.191 354.669L135.323 354.802H135.456C135.722 354.935 135.854 355.2 135.722 355.466C135.722 355.731 135.456 355.997 135.191 355.997Z" fill="#263238"/>
<path d="M140.37 362.902C139.971 362.902 139.838 362.636 139.838 362.238C141.299 346.304 133.066 333.291 132.933 333.158C132.8 332.892 132.8 332.494 133.066 332.361C133.331 332.228 133.73 332.228 133.862 332.494C133.995 332.627 142.362 346.038 140.901 362.371C140.901 362.636 140.635 362.902 140.37 362.902Z" fill="#263238"/>
<path d="M145.814 372.064C145.682 372.064 145.549 372.064 145.416 371.931C145.416 371.931 139.307 365.956 130.542 368.346C130.277 368.479 129.878 368.213 129.878 367.947C129.746 367.682 130.011 367.283 130.277 367.283C139.706 364.761 145.947 371.001 146.213 371.267C146.478 371.533 146.478 371.931 146.213 372.064C146.08 372.064 145.947 372.064 145.814 372.064Z" fill="#263238"/>
<path d="M152.587 387.202C152.455 387.202 152.455 387.202 152.322 387.069C152.056 386.936 151.923 386.538 152.056 386.272C152.056 386.139 156.173 378.305 155.243 366.753C155.243 366.487 155.509 366.089 155.775 366.089C156.04 366.089 156.439 366.354 156.439 366.62C157.368 378.438 153.251 386.405 153.119 386.671C152.986 387.069 152.853 387.202 152.587 387.202Z" fill="#263238"/>
<path d="M194.154 445.76C194.154 464.616 185.655 479.886 159.891 479.886C135.323 479.886 125.629 464.616 125.629 445.76C125.629 438.59 127.754 432.083 131.605 426.506H188.178C191.896 432.083 194.154 438.723 194.154 445.76Z" fill="#407BFF"/>
<path opacity="0.7" d="M194.154 445.76C194.154 464.616 185.655 479.886 159.891 479.886C135.323 479.886 125.629 464.616 125.629 445.76C125.629 438.59 127.754 432.083 131.605 426.506H188.178C191.896 432.083 194.154 438.723 194.154 445.76Z" fill="white"/>
<path d="M390.565 463.288L403.845 461.429L400.392 430.49L387.245 432.349L390.565 463.288Z" fill="#E8BFBF"/>
<path d="M413.938 461.827C415.133 461.694 416.195 461.296 416.992 460.499C417.39 460.101 417.523 459.437 417.258 458.906C417.125 458.507 416.992 458.242 416.594 458.109C414.867 457.445 409.954 461.03 409.422 461.429C409.29 461.562 409.29 461.694 409.29 461.827C409.29 461.96 409.422 462.093 409.555 462.093C411.149 462.093 412.61 462.093 413.938 461.827ZM415.797 458.773C415.93 458.773 416.195 458.773 416.461 458.773C416.594 458.773 416.726 458.906 416.726 459.039C416.859 459.437 416.726 459.835 416.594 460.101C415.93 460.898 413.805 461.429 410.75 461.429C412.211 460.234 413.938 459.304 415.797 458.773Z" fill="#407BFF"/>
<path d="M409.821 462.093C411.414 461.031 414.07 457.711 413.539 456.25C413.406 455.985 413.141 455.454 412.211 455.586C411.547 455.586 411.016 455.852 410.485 456.383C409.024 457.977 409.29 461.694 409.29 461.827C409.29 461.96 409.29 462.093 409.422 462.093C409.555 462.093 409.688 462.093 409.821 462.093ZM412.078 456.118L412.211 455.985C412.742 455.985 412.875 456.118 412.875 456.25C413.141 457.18 411.414 459.703 409.954 460.898C409.821 459.437 410.219 457.844 411.016 456.516C411.282 456.383 411.68 456.25 412.078 456.118Z" fill="#407BFF"/>
<path d="M402.384 455.852L390.698 458.641C390.167 458.773 389.768 459.304 389.901 459.836L390.299 476.832C390.432 478.027 391.495 478.824 392.69 478.691C392.823 478.691 392.823 478.691 392.955 478.691C398.002 477.363 400.392 476.566 406.899 475.106C410.883 474.176 423.367 473.247 428.546 470.99C433.725 468.732 431.733 463.554 429.343 463.952C421.773 465.545 412.079 462.359 406.634 457.445C405.837 456.914 403.181 455.719 402.384 455.852Z" fill="#263238"/>
<path opacity="0.2" d="M400.392 430.49L402.118 446.424L388.971 448.283L387.245 432.349L400.392 430.49Z" fill="black"/>
<path d="M407.563 439.785L383.128 444.3C383.128 444.3 371.309 427.303 369.051 415.352C366.661 402.871 369.184 360.114 369.051 359.583C362.146 336.212 343.288 275.662 334.258 253.354C329.211 241.005 325.758 232.64 325.758 232.64L328.282 232.109L348.202 223.876L362.81 226.664C362.81 226.664 407.032 316.162 411.68 349.756C415 374.853 407.563 439.785 407.563 439.785Z" fill="#407BFF"/>
<path opacity="0.3" d="M407.563 439.785L383.128 444.3C383.128 444.3 371.309 427.303 369.051 415.352C366.661 402.871 369.184 360.114 369.051 359.583C362.146 336.212 343.288 275.662 334.258 253.354C329.211 241.005 325.758 232.64 325.758 232.64L328.282 232.109L348.202 223.876L362.81 226.664C362.81 226.664 407.032 316.162 411.68 349.756C415 374.853 407.563 439.785 407.563 439.785Z" fill="white"/>
<path opacity="0.2" d="M363.208 339.266C356.303 315.896 342.359 280.442 333.195 258.134L327.219 236.889L326.024 232.772L328.149 236.623L351.92 289.073C362.279 309.39 363.341 339.93 363.208 339.266Z" fill="black"/>
<path d="M255.773 455.985L267.459 461.031L280.075 433.943L268.256 429.03L255.773 455.985Z" fill="#E8BFBF"/>
<path d="M275.162 466.608C276.091 467.139 277.154 467.405 278.349 467.272C278.88 467.139 279.278 466.741 279.544 466.209C279.677 465.944 279.677 465.546 279.411 465.28C278.349 463.819 272.638 463.819 271.974 463.819C271.842 463.819 271.709 463.952 271.709 464.085C271.709 464.218 271.709 464.351 271.842 464.351C272.904 465.28 273.966 465.944 275.162 466.608ZM278.349 465.28C278.482 465.413 278.747 465.413 278.747 465.678C278.88 465.811 278.88 465.944 278.747 466.077C278.614 466.475 278.349 466.741 277.95 466.741C276.888 467.006 275.029 466.209 272.638 464.483C274.763 464.483 276.622 464.749 278.349 465.28Z" fill="#407BFF"/>
<path d="M271.842 464.483C273.568 464.616 277.552 463.421 278.083 462.093C278.216 461.695 278.216 461.297 277.419 460.766C276.888 460.367 276.224 460.234 275.693 460.367C273.701 460.766 271.842 463.82 271.709 463.952C271.709 464.085 271.576 464.085 271.709 464.218C271.709 464.351 271.842 464.351 271.842 464.483ZM276.888 461.164H277.021C277.419 461.429 277.419 461.695 277.419 461.695C277.154 462.492 274.365 463.554 272.506 463.687C273.302 462.492 274.365 461.429 275.693 460.898C276.224 460.898 276.622 460.898 276.888 461.164Z" fill="#407BFF"/>
<path d="M269.717 455.586L259.093 451.072C258.562 450.806 258.03 451.072 257.765 451.47L248.469 464.749C247.938 465.811 248.336 467.006 249.266 467.537C249.398 467.537 249.398 467.67 249.531 467.67C254.179 469.529 256.57 470.193 262.28 472.716C265.866 474.309 276.091 480.55 281.27 481.745C286.582 482.94 287.91 477.762 285.786 476.832C279.013 473.778 273.435 465.811 271.974 458.906C271.709 458.242 270.381 455.852 269.717 455.586Z" fill="#263238"/>
<path opacity="0.2" d="M280.606 434.341L273.834 448.018L262.147 442.839L268.92 429.03L280.606 434.341Z" fill="black"/>
<path d="M283.13 449.346L259.624 436.864C259.624 436.864 255.109 420.133 259.624 409.51C268.256 388.928 290.832 358.786 290.965 358.255C296.941 334.619 307.565 269.953 311.15 246.184C313.142 233.038 314.338 230.117 314.338 230.117L316.861 230.914L352.85 231.047C352.85 231.047 359.622 285.489 333.594 369.675C327.086 390.655 316.33 408.049 298.534 431.685C291.629 440.449 283.13 449.346 283.13 449.346Z" fill="#407BFF"/>
<path opacity="0.3" d="M283.13 449.346L259.624 436.864C259.624 436.864 255.109 420.133 259.624 409.51C268.256 388.928 290.832 358.786 290.965 358.255C296.941 334.619 307.565 269.953 311.15 246.184C313.142 233.038 314.338 230.117 314.338 230.117L316.861 230.914L352.85 231.047C352.85 231.047 359.622 285.489 333.594 369.675C327.086 390.655 316.33 408.049 298.534 431.685C291.629 440.449 283.13 449.346 283.13 449.346Z" fill="white"/>
<path d="M384.589 186.431C384.854 182.447 387.51 177.136 389.901 174.746C390.698 173.949 393.486 172.754 395.08 171.824C402.915 166.646 418.453 160.272 418.453 160.272L423.234 164.521C423.234 164.521 413.672 173.683 408.094 178.065C407.032 178.995 405.704 179.924 404.376 181.119C401.853 183.111 390.299 190.813 388.174 192.672L384.589 186.431Z" fill="#E8BFBF"/>
<path d="M431.998 158.015L423.101 164.654L418.054 160.936C418.054 160.936 420.046 158.28 422.171 156.289C423.101 155.359 423.632 154.164 423.632 152.969C423.632 150.977 423.898 148.72 424.96 146.994V146.861C426.952 143.94 431.467 144.869 432.264 148.189L433.592 152.969C434.256 154.828 433.592 156.82 431.998 158.015Z" fill="#E8BFBF"/>
<path d="M387.378 188.29L384.987 190.414C384.19 189.883 383.128 188.821 381.667 187.626C370.246 178.065 341.562 155.093 352.982 148.454C362.81 142.877 373.168 160.006 378.347 165.318C379.41 166.38 382.331 169.7 384.589 173.949C387.112 178.331 388.971 183.642 387.378 188.29Z" fill="#263238"/>
<path d="M384.722 171.824C380.605 174.745 377.152 178.596 374.629 182.845C376.488 189.086 381.269 194.531 387.245 197.053C390.565 189.485 392.026 181.252 391.362 173.019C389.237 172.754 386.714 172.355 384.722 171.824Z" fill="#263238"/>
<path d="M321.642 147.259C317.525 148.587 312.877 147.525 310.221 150.977C307.565 154.43 306.768 158.812 306.768 163.193C306.768 169.169 308.096 175.011 309.557 180.854C311.15 187.892 312.877 194.929 314.47 202.1C315.533 206.88 314.47 229.321 315.666 229.719C315.666 229.719 353.248 228.922 362.677 227.727C362.677 227.727 363.474 204.622 364.27 196.788C364.403 195.062 367.059 187.626 367.458 185.767C368.918 177.003 365.997 170.762 363.075 162.53C363.075 162.53 356.435 149.118 353.248 148.72C347.139 147.923 333.062 143.541 321.642 147.259Z" fill="#263238"/>
<path d="M320.048 158.28C319.915 157.484 313.275 144.072 306.901 153.5C298.003 166.646 297.472 182.978 297.472 182.978C297.472 182.978 292.027 198.913 295.878 202.498C299.73 205.95 303.846 208.208 306.502 206.216C309.158 204.224 310.885 200.24 310.885 200.24C310.885 200.24 322.438 171.957 320.048 158.28Z" fill="#263238"/>
<path d="M319.65 142.213C316.861 144.338 317.259 149.516 320.314 151.242C319.517 153.898 320.446 157.085 322.571 158.944C324.696 160.803 327.883 161.334 330.539 160.272C329.477 162.264 330.672 164.919 332.664 166.247C334.656 167.442 337.046 167.708 339.304 167.973C341.562 168.239 343.952 168.77 345.678 170.364C348.069 166.911 350.459 163.592 352.717 160.139C353.646 158.811 354.576 157.351 354.709 155.757C354.842 154.164 353.514 152.305 351.92 152.438C353.514 150.711 353.646 147.79 352.053 146.064C350.459 144.338 347.405 144.072 345.678 145.533C345.944 144.205 345.147 142.744 344.085 141.948C342.89 141.151 341.562 140.885 340.101 140.752L319.65 142.213Z" fill="#263238"/>
<path d="M323.899 124.818C325.758 131.59 328.016 144.072 323.501 148.985C323.501 148.985 336.117 154.031 345.147 164.256C349.397 160.139 348.866 155.625 347.67 152.305C346.741 149.649 344.483 147.79 341.96 146.728C337.046 144.603 337.046 139.823 337.843 135.176L323.899 124.818Z" fill="#E8BFBF"/>
<path opacity="0.2" d="M326.688 136.371L331.336 137.698C333.328 138.23 335.453 138.362 337.445 138.097C337.445 139.159 337.179 141.284 337.843 142.346C335.187 143.674 330.672 142.744 328.68 140.354C327.883 139.425 327.087 137.566 326.688 136.371Z" fill="black"/>
<path d="M314.869 119.109C319.783 129.466 321.642 133.98 329.211 137.3C340.632 142.346 352.319 133.98 350.592 122.295C348.999 111.805 341.163 96.535 329.079 96.4022C320.447 96.2695 313.275 103.307 313.143 111.938C313.275 114.461 313.807 116.851 314.869 119.109Z" fill="#E8BFBF"/>
<path d="M320.314 99.1908C316.728 97.4646 312.213 98.9252 309.291 101.581C306.237 104.237 304.378 107.955 302.651 111.673C301.722 113.664 300.659 115.656 300.261 117.781C299.863 119.905 299.995 122.295 301.058 124.154C302.12 126.013 304.245 127.208 306.37 127.341C307.565 127.474 309.026 128.271 309.424 129.466C309.823 130.528 309.557 131.723 309.424 132.918C309.291 133.981 309.159 135.176 309.424 136.238C309.955 137.964 311.814 139.026 313.674 139.292C315.533 139.425 317.392 138.894 319.119 138.362C320.181 137.964 321.376 138.23 322.173 139.026C322.439 139.159 322.571 139.425 322.704 139.69C323.235 140.753 324.829 140.62 325.36 139.425C326.954 135.574 324.563 129.466 321.111 124.818C319.251 122.295 319.384 122.959 318.587 120.038C317.923 117.515 318.853 114.992 320.048 112.602C321.509 109.548 323.501 106.494 322.837 102.776C322.704 101.315 321.642 99.8547 320.314 99.1908Z" fill="#263238"/>
<path d="M315.135 129.731C316.728 131.457 318.986 132.52 321.376 132.52C324.563 132.653 325.36 129.598 323.766 126.943C322.439 124.553 319.119 121.764 316.197 122.959C313.408 124.154 313.143 127.607 315.135 129.731Z" fill="#E8BFBF"/>
<path d="M334.656 117.25C335.055 118.179 335.719 118.71 336.382 118.445C336.914 118.179 337.046 117.382 336.781 116.453C336.515 115.523 335.719 115.125 335.055 115.258C334.523 115.523 334.391 116.32 334.656 117.25Z" fill="#263238"/>
<path d="M344.483 113.133C344.882 114.063 345.546 114.594 346.077 114.328C346.608 114.063 346.741 113.266 346.475 112.337C346.21 111.407 345.413 111.009 344.882 111.142C344.351 111.274 344.085 112.204 344.483 113.133Z" fill="#263238"/>
<path d="M344.616 111.274L346.475 109.813C346.475 109.813 346.077 111.805 344.616 111.274Z" fill="#263238"/>
<path d="M341.96 114.992C344.218 117.25 345.944 117.648 348.335 119.109C348.202 121.233 346.21 121.764 346.21 121.764L341.96 114.992Z" fill="#ED847E"/>
<path d="M345.147 126.146C345.546 126.013 345.944 125.748 346.343 125.615C346.475 125.482 346.475 125.35 346.475 125.217C346.343 125.084 346.21 125.084 346.077 125.084C343.952 126.279 341.562 126.412 339.304 125.482C339.171 125.35 339.039 125.482 338.906 125.615C338.773 125.748 338.906 125.881 339.039 126.013C341.031 126.81 343.155 126.81 345.147 126.146Z" fill="#263238"/>
<path d="M334.391 110.079C334.391 110.345 334.258 110.478 333.992 110.61C331.469 111.407 330.274 114.594 330.274 114.594C330.141 114.859 329.875 114.992 329.61 114.992C329.344 114.859 329.211 114.594 329.211 114.328C329.344 114.195 330.539 110.478 333.594 109.548C333.859 109.415 334.258 109.681 334.258 109.946C334.258 109.946 334.391 109.946 334.391 110.079Z" fill="#263238"/>
<path d="M346.077 108.486C345.811 108.619 345.546 108.619 345.413 108.486C343.288 106.76 340.101 107.689 339.968 107.689C339.703 107.822 339.304 107.556 339.304 107.291C339.171 107.025 339.437 106.627 339.703 106.627C339.835 106.627 343.554 105.564 346.077 107.556C346.343 107.822 346.343 108.087 346.21 108.353L346.077 108.486Z" fill="#263238"/>
<path d="M334.922 115.39L336.781 113.93C336.648 113.93 336.25 116.054 334.922 115.39Z" fill="#263238"/>
<path d="M321.111 97.4646C318.189 97.7302 315.4 99.3236 313.939 101.847C312.877 103.44 312.479 105.963 314.072 107.158C314.869 107.689 315.799 107.822 316.728 107.822C320.712 108.22 325.759 105.033 325.759 105.033C324.165 98.3941 338.109 93.3483 344.882 103.573C346.874 106.627 346.343 108.751 349.663 110.079C351.256 110.743 353.248 110.61 354.311 111.938C356.037 114.196 352.717 118.046 354.842 120.038C356.17 121.366 359.357 120.835 359.623 122.827C359.755 123.756 359.091 125.084 360.021 125.35C360.552 125.482 360.951 125.084 361.216 124.686C362.013 123.756 362.677 122.694 362.943 121.499C363.208 120.304 362.81 118.843 361.615 118.445C360.818 118.046 358.56 118.445 358.693 119.374C358.826 120.436 357.896 114.992 358.295 113C358.693 111.274 360.419 109.681 359.888 107.955C359.357 106.096 357.099 105.299 355.24 105.033C353.381 104.768 351.123 104.502 349.928 102.909C348.6 101.183 349.264 98.6597 348.733 96.5351C348.202 93.8794 345.944 91.7548 343.421 90.5598C335.586 87.3729 323.767 87.7713 321.111 97.4646Z" fill="#263238"/>
<path d="M342.89 132.919L316.33 146.197C307.565 150.579 303.714 160.936 307.166 169.966L319.915 202.631C323.501 211.66 333.328 216.573 342.757 213.918L371.309 205.685C382.066 202.631 387.776 190.946 383.659 180.589L368.786 142.877C364.934 132.52 352.85 127.873 342.89 132.919ZM338.507 188.954C332.531 191.211 325.891 188.29 323.634 182.447C321.376 176.472 324.298 169.833 330.141 167.576C336.117 165.318 342.757 168.239 345.014 174.082C347.405 180.057 344.483 186.697 338.507 188.954Z" fill="#407BFF"/>
<path d="M342.89 132.919L316.33 146.197C307.565 150.579 303.714 160.936 307.166 169.966L319.915 202.631C323.501 211.66 333.328 216.573 342.757 213.918L371.309 205.685C382.066 202.631 387.776 190.946 383.659 180.589L368.786 142.877C364.934 132.52 352.85 127.873 342.89 132.919ZM338.507 188.954C332.531 191.211 325.891 188.29 323.634 182.447C321.376 176.472 324.298 169.833 330.141 167.576C336.117 165.318 342.757 168.239 345.014 174.082C347.405 180.057 344.483 186.697 338.507 188.954Z" fill="#407BFF"/>
<path opacity="0.1" d="M383.925 180.721L369.051 143.01C364.934 132.653 352.85 128.006 342.89 133.051L335.187 136.902L330.008 139.558L316.33 146.463C307.565 150.845 303.581 161.202 307.166 170.231L319.915 202.896C323.501 212.059 333.461 216.839 342.757 214.183L371.309 205.951C373.699 205.287 375.691 204.224 377.55 202.764C379.011 201.701 380.206 200.506 381.269 199.046C385.12 193.867 386.315 186.962 383.925 180.721ZM338.507 188.954C332.531 191.211 325.891 188.29 323.634 182.448C321.376 176.472 324.298 169.833 330.141 167.576C336.117 165.318 342.757 168.24 345.014 174.082C347.405 180.057 344.483 186.697 338.507 188.954Z" fill="white"/>
<path d="M343.155 135.441L318.189 147.923C309.955 152.039 306.237 161.733 309.69 170.231L321.642 200.904C324.962 209.403 334.258 214.05 343.022 211.527L369.848 203.826C379.941 200.904 385.253 190.016 381.402 180.323L367.723 144.736C363.872 135.043 352.584 130.661 343.155 135.441ZM323.634 182.447C321.376 176.472 324.298 169.833 330.141 167.575C336.117 165.318 342.757 168.239 345.014 174.082C347.272 180.057 344.483 186.696 338.507 188.954C332.664 191.344 325.891 188.423 323.634 182.447Z" fill="#407BFF"/>
<path opacity="0.1" d="M343.155 135.441L318.189 147.923C309.955 152.039 306.237 161.733 309.69 170.231L321.642 200.904C324.962 209.403 334.258 214.05 343.022 211.527L369.848 203.826C379.941 200.904 385.253 190.016 381.402 180.323L367.723 144.736C363.872 135.043 352.584 130.661 343.155 135.441ZM323.634 182.447C321.376 176.472 324.298 169.833 330.141 167.575C336.117 165.318 342.757 168.239 345.014 174.082C347.272 180.057 344.483 186.696 338.507 188.954C332.664 191.344 325.891 188.423 323.634 182.447Z" fill="#407BFF"/>
<path d="M466.925 123.624L466.128 124.951L465.73 125.748L464.534 128.005L465.066 133.582C465.066 133.848 465.066 134.114 464.933 134.246C464.8 134.778 464.402 135.176 463.87 135.309L453.379 139.425C452.848 139.558 452.317 139.558 451.918 139.292C451.786 139.159 451.653 139.159 451.52 139.027L445.544 133.051L437.045 136.371L438.24 139.425L429.741 142.745L431.733 147.923L425.491 150.313C424.96 150.446 424.429 150.446 423.898 150.181C423.765 150.048 423.632 150.048 423.499 149.915L419.914 146.595L411.414 149.915L413.406 155.094L404.509 158.546L406.501 163.725C406.767 164.521 406.368 165.451 405.571 165.849L381.269 175.41L370.778 148.587L458.691 114.196L460.019 114.86L464.534 117.117C467.323 118.179 468.253 121.233 466.925 123.624Z" fill="#407BFF"/>
<g opacity="0.1">
<path opacity="0.1" d="M466.925 123.624L466.128 124.951L465.73 125.748L464.534 128.005L465.066 133.582C465.066 133.848 465.066 134.114 464.933 134.246C464.8 134.778 464.402 135.176 463.87 135.309L453.379 139.425C452.848 139.558 452.317 139.558 451.918 139.292C451.786 139.159 451.653 139.159 451.52 139.027L445.544 133.051L437.045 136.371L438.24 139.425L429.741 142.745L431.733 147.923L425.491 150.313C424.96 150.446 424.429 150.446 423.898 150.181C423.765 150.048 423.632 150.048 423.499 149.915L419.914 146.595L411.414 149.915L413.406 155.094L404.509 158.546L406.501 163.725C406.767 164.521 406.368 165.451 405.571 165.849L381.269 175.41L370.778 148.587L458.691 114.196L460.019 114.86L464.534 117.117C467.323 118.179 468.253 121.233 466.925 123.624Z" fill="white"/>
</g>
<path d="M466.659 120.569L372.637 157.351L369.848 150.446L459.488 115.391L464.003 117.648C465.597 118.445 466.659 119.241 466.659 120.569Z" fill="#407BFF"/>
<path opacity="0.1" d="M466.659 120.569L372.637 157.351L369.848 150.446L459.488 115.391L464.003 117.648C465.597 118.445 466.659 119.241 466.659 120.569Z" fill="black"/>
<path d="M464.8 125.748L463.87 127.74V127.873L464.402 133.45C464.402 133.715 464.402 133.848 464.402 133.981C464.402 133.981 464.402 134.113 464.269 134.113L452.848 138.628H452.715C452.582 138.495 452.45 138.495 452.45 138.363L445.942 131.856C445.942 131.856 445.81 131.723 445.677 131.856L436.381 135.441C436.248 135.441 436.248 135.574 436.248 135.707L437.31 138.495C437.31 138.628 437.311 138.761 437.178 138.761L429.342 141.815C429.21 141.815 429.21 141.948 429.21 142.081L431.069 146.861C431.069 146.994 431.069 147.126 430.936 147.126L425.093 149.384H424.96C424.827 149.251 424.695 149.251 424.562 149.118L420.312 145.267C420.312 145.267 420.179 145.135 420.046 145.267L410.883 148.853C410.75 148.853 410.75 148.985 410.75 149.118L412.742 154.031C412.742 154.164 412.743 154.297 412.61 154.297L377.285 168.239C377.152 168.239 377.019 168.239 377.019 168.106L373.434 159.21C373.434 159.077 373.434 158.944 373.566 158.944L465.597 122.694C465.73 122.561 465.995 122.827 465.862 122.959L464.8 125.748Z" fill="#407BFF"/>
<path opacity="0.1" d="M464.8 125.748L463.87 127.74V127.873L464.402 133.45C464.402 133.715 464.402 133.848 464.402 133.981C464.402 133.981 464.402 134.113 464.269 134.113L452.848 138.628H452.715C452.582 138.495 452.45 138.495 452.45 138.363L445.942 131.856C445.942 131.856 445.81 131.723 445.677 131.856L436.381 135.441C436.248 135.441 436.248 135.574 436.248 135.707L437.31 138.495C437.31 138.628 437.311 138.761 437.178 138.761L429.342 141.815C429.21 141.815 429.21 141.948 429.21 142.081L431.069 146.861C431.069 146.994 431.069 147.126 430.936 147.126L425.093 149.384H424.96C424.827 149.251 424.695 149.251 424.562 149.118L420.312 145.267C420.312 145.267 420.179 145.135 420.046 145.267L410.883 148.853C410.75 148.853 410.75 148.985 410.75 149.118L412.742 154.031C412.742 154.164 412.743 154.297 412.61 154.297L377.285 168.239C377.152 168.239 377.019 168.239 377.019 168.106L373.434 159.21C373.434 159.077 373.434 158.944 373.566 158.944L465.597 122.694C465.73 122.561 465.995 122.827 465.862 122.959L464.8 125.748Z" fill="black"/>
<path opacity="0.3" d="M329.477 164.654C322.04 167.576 318.454 175.941 321.243 183.377C324.165 190.813 332.531 194.398 339.968 191.61C347.405 188.689 350.991 180.323 348.202 172.887C345.28 165.451 336.914 161.733 329.477 164.654ZM338.507 188.954C332.531 191.211 325.891 188.29 323.634 182.448C321.376 176.472 324.298 169.833 330.141 167.576C336.117 165.318 342.757 168.24 345.015 174.082C347.405 180.057 344.483 186.697 338.507 188.954Z" fill="white"/>
<path opacity="0.1" d="M381.402 198.78C380.339 200.24 379.144 201.435 377.683 202.498L330.008 139.425C330.008 139.425 334.258 137.3 335.187 136.636V136.769C337.312 141.284 374.762 189.883 381.402 198.78Z" fill="white"/>
<path opacity="0.1" d="M374.496 204.622C374.231 204.755 360.287 209.004 360.287 209.004L344.749 188.422C348.733 184.439 350.194 178.463 348.069 172.886C345.147 165.451 336.781 161.733 329.344 164.654C328.68 164.919 328.016 165.185 327.485 165.583L313.939 147.392C313.939 147.392 326.024 141.682 327.352 140.752C327.618 143.408 374.496 204.091 374.496 204.622Z" fill="white"/>
<path d="M317.658 104.9C316.064 106.759 315.533 109.282 315.931 111.672C316.462 114.063 318.056 116.054 320.314 117.117C321.509 117.648 322.704 117.913 323.766 118.444C324.829 118.976 325.891 119.905 326.024 121.233C326.157 122.561 325.094 123.889 325.227 125.217C325.36 126.412 326.29 127.474 327.352 128.271C328.414 129.067 329.477 129.731 330.008 130.926C330.539 132.121 330.141 133.715 328.946 134.113C328.68 134.512 328.547 135.441 328.946 135.839C329.211 136.238 329.875 136.238 330.274 135.972C332.133 134.777 333.461 132.653 333.461 130.395C333.461 128.138 332.133 126.013 330.141 125.084C329.742 124.287 330.008 123.49 330.406 122.694C331.07 121.233 331.602 119.64 332.266 118.179C332.531 117.648 332.266 116.453 331.867 116.054C331.469 115.523 330.805 115.258 330.274 114.992L326.422 113.266C324.962 112.602 320.579 106.759 325.758 105.033C325.094 103.573 323.899 103.041 322.306 102.776C320.712 102.51 318.72 103.573 317.658 104.9Z" fill="#263238"/>
<path d="M324.696 98.5268C324.563 100.12 324.43 101.581 324.298 103.174C325.626 101.05 328.016 96.9333 327.883 97.0661C326.954 97.5973 325.758 97.9956 324.696 98.5268Z" fill="#263238"/>
<path d="M326.555 101.05C328.414 99.3234 330.141 97.73 332 96.0038C330.539 95.4726 328.945 95.871 327.883 96.9333C327.883 96.9333 326.953 99.4562 326.555 101.05Z" fill="#263238"/>
<path d="M315.4 226.665C308.362 235.428 310.619 242.2 300.925 257.736C313.275 266.899 326.821 268.359 343.554 267.031C345.546 263.579 346.608 259.861 348.467 256.276C351.256 259.861 353.646 262.782 356.435 266.367C365.2 265.04 375.691 262.517 382.73 258.002C376.621 250.964 372.77 242.2 368.786 234.366C366.926 230.781 367.723 229.187 362.81 224.407C347.272 225.071 331.734 225.47 316.197 226.266C316.595 226.399 315.002 226.665 315.4 226.665Z" fill="#263238"/>
<path d="M317.392 225.204L316.462 229.32C316.33 229.586 316.728 229.984 317.259 229.984L360.286 228.125C360.685 228.125 361.083 227.86 361.083 227.594L361.349 223.478C361.349 223.212 360.95 222.947 360.552 222.947L318.322 224.806C317.79 224.806 317.525 225.071 317.392 225.204Z" fill="#407BFF"/>
<path d="M317.392 225.204L316.462 229.32C316.33 229.586 316.728 229.984 317.259 229.984L360.286 228.125C360.685 228.125 361.083 227.86 361.083 227.594L361.349 223.478C361.349 223.212 360.95 222.947 360.552 222.947L318.322 224.806C317.79 224.806 317.525 225.071 317.392 225.204Z" fill="#407BFF"/>
<path d="M326.821 229.984H325.625C325.36 229.984 325.227 229.851 325.227 229.719L325.625 224.407C325.625 224.274 325.891 224.142 326.157 224.142L327.352 224.009C327.617 224.009 327.75 224.142 327.75 224.274L327.352 229.586C327.352 229.851 327.086 229.984 326.821 229.984Z" fill="#263238"/>
<path d="M357.896 228.657H356.701C356.435 228.657 356.302 228.524 356.302 228.391L356.701 223.08C356.701 222.947 356.966 222.814 357.099 222.814H358.294C358.56 222.814 358.693 222.947 358.693 223.08L358.294 228.391C358.294 228.524 358.161 228.657 357.896 228.657Z" fill="#263238"/>
<path d="M332.398 204.224C332.531 204.623 335.851 209.934 338.374 209.536C339.171 209.403 339.835 209.801 340.366 210.332C341.429 211.66 342.093 212.457 342.757 213.386C343.952 214.847 345.944 215.378 347.538 214.581C348.069 214.316 348.467 214.05 348.998 213.785C350.592 212.988 351.389 211.129 350.99 209.27C350.459 207.278 349.795 205.419 348.733 203.693C348.334 203.162 347.936 202.498 347.405 202.1C346.874 201.701 341.03 199.975 338.773 200.108C336.781 200.241 334.523 203.295 332.398 204.224Z" fill="#E8BFBF"/>
<path d="M339.171 199.975C339.171 199.975 303.846 189.352 296.277 196.39C291.761 200.639 293.886 204.49 296.409 207.013C298.269 208.872 302.385 208.473 305.041 208.34L332.797 205.552L339.171 199.975Z" fill="#E8BFBF"/>
<path d="M318.853 195.062C318.72 193.203 317.126 191.61 315.4 190.68C313.674 189.883 311.682 189.618 309.822 189.352C305.44 188.821 300.925 188.29 296.542 187.626C294.285 190.414 292.691 194.398 292.691 197.983C292.824 201.568 294.152 205.154 296.542 207.942C298.667 203.826 301.456 199.577 305.573 197.585C309.822 195.593 314.338 194.265 318.853 195.062Z" fill="#263238"/>
<path opacity="0.1" d="M309.69 130.528C310.088 130.395 309.955 130.395 309.69 130.528V130.528Z" fill="white"/>
</svg>
