<svg width="21" height="22" viewBox="0 0 21 22" fill="none" xmlns="http://www.w3.org/2000/svg">
<path d="M8 1.125C5.8599 1.125 4.125 2.8599 4.125 5V14C4.125 16.1401 5.8599 17.875 8 17.875H16C18.1401 17.875 19.875 16.1401 19.875 14V6C19.875 3.30761 17.6924 1.125 15 1.125H8Z" stroke="black" stroke-width="1.75"/>
<path d="M5 4.125C2.8599 4.125 1.125 5.8599 1.125 8V17C1.125 19.1401 2.8599 20.875 5 20.875H13C15.1401 20.875 16.875 19.1401 16.875 17V7C16.875 5.41218 15.5878 4.125 14 4.125H5Z" fill="white" stroke="black" stroke-width="1.75"/>
<line x1="9.25" y1="17.25" x2="9.25" y2="8.75" stroke="black" stroke-width="1.5" stroke-linecap="round"/>
<line x1="4.75" y1="13.25" x2="13.25" y2="13.25" stroke="black" stroke-width="1.5" stroke-linecap="round"/>
</svg>
