<svg xmlns="http://www.w3.org/2000/svg" viewBox="0 0 26.75 21.75"><defs><style>.cls-1{fill:#517bcc;}</style></defs><g id="Layer_2" data-name="Layer 2"><g id="Layer_1-2" data-name="Layer 1"><path class="cls-1" d="M22.87,16.38a.5.5,0,0,1-.5.5h-3a.51.51,0,0,1-.5-.5.5.5,0,0,1,.5-.5h3A.5.5,0,0,1,22.87,16.38Z"/><path class="cls-1" d="M22.87,13.38a.5.5,0,0,1-.5.5h-3a.51.51,0,0,1-.5-.5.5.5,0,0,1,.5-.5h3A.5.5,0,0,1,22.87,13.38Z"/><path class="cls-1" d="M22.87,10.38a.5.5,0,0,1-.5.5h-3a.51.51,0,0,1-.5-.5.5.5,0,0,1,.5-.5h3A.5.5,0,0,1,22.87,10.38Z"/><path class="cls-1" d="M22.87,10.38a.5.5,0,0,1-.5.5h-3a.51.51,0,0,1-.5-.5.5.5,0,0,1,.5-.5h3A.5.5,0,0,1,22.87,10.38Z"/><path class="cls-1" d="M10.77,4.38H6A1.6,1.6,0,0,0,4.37,6v1.8A1.6,1.6,0,0,0,6,9.38h4.8a1.6,1.6,0,0,0,1.6-1.6V6A1.6,1.6,0,0,0,10.77,4.38Zm.1,3.4a.1.1,0,0,1-.1.1H6a.11.11,0,0,1-.1-.1V6a.1.1,0,0,1,.1-.1h4.8a.09.09,0,0,1,.1.1Z"/><path class="cls-1" d="M10.77,11.38H6A1.6,1.6,0,0,0,4.37,13v1.8A1.6,1.6,0,0,0,6,16.38h4.8a1.6,1.6,0,0,0,1.6-1.6V13A1.6,1.6,0,0,0,10.77,11.38Zm.1,3.4a.1.1,0,0,1-.1.1H6a.11.11,0,0,1-.1-.1V13a.1.1,0,0,1,.1-.1h4.8a.09.09,0,0,1,.1.1Z"/><path class="cls-1" d="M22.87,13.38a.5.5,0,0,1-.5.5h-3a.51.51,0,0,1-.5-.5.5.5,0,0,1,.5-.5h3A.5.5,0,0,1,22.87,13.38Z"/><path class="cls-1" d="M22.87,16.38a.5.5,0,0,1-.5.5h-3a.51.51,0,0,1-.5-.5.5.5,0,0,1,.5-.5h3A.5.5,0,0,1,22.87,16.38Z"/><path class="cls-1" d="M26.75,8.88v12a.88.88,0,0,1-1.75,0v-12a1.14,1.14,0,0,0-1.13-1.13H16.75V20.88a.88.88,0,0,1-1.75,0v-17a2.13,2.13,0,0,0-2.13-2.13h-9A2.12,2.12,0,0,0,1.75,3.88v17a.88.88,0,0,1-1.75,0v-17A3.88,3.88,0,0,1,3.87,0h9a3.88,3.88,0,0,1,3.88,3.88V6h7.12A2.88,2.88,0,0,1,26.75,8.88Z"/></g></g></svg>