<svg width="27" height="22" viewBox="0 0 27 22" fill="none" xmlns="http://www.w3.org/2000/svg">
<path d="M16 6H24C25.6569 6 27 7.34315 27 9V22H16V6Z" fill="white"/>
<rect x="19" y="10" width="4" height="1" rx="0.5" fill="black"/>
<rect x="5.25" y="5.25" width="6.5" height="3.5" rx="0.85" stroke="black" stroke-width="1.5"/>
<rect x="5.25" y="12.25" width="6.5" height="3.5" rx="0.85" stroke="black" stroke-width="1.5"/>
<rect x="19" y="13" width="4" height="1" rx="0.5" fill="black"/>
<rect x="19" y="16" width="4" height="1" rx="0.5" fill="black"/>
<path d="M16 7H24C25.1046 7 26 7.89543 26 9V21" stroke="black" stroke-width="1.75" stroke-linecap="round"/>
<path d="M16 21V4C16 2.34315 14.6569 1 13 1H4C2.34315 1 1 2.34315 1 4V21" stroke="black" stroke-width="1.75" stroke-linecap="round"/>
</svg>
