<svg width="25" height="20" viewBox="0 0 25 20" fill="none" xmlns="http://www.w3.org/2000/svg">
<path d="M1 8.5C1 8.5 4.81818 1 11.5 1C18.1818 1 22 8.5 22 8.5C22 8.5 18.1818 16 11.5 16C4.81818 16 1 8.5 1 8.5Z" fill="white" stroke="black" stroke-width="1.75" stroke-linecap="round" stroke-linejoin="round"/>
<path d="M11.5 11C12.8807 11 14 9.88071 14 8.5C14 7.11929 12.8807 6 11.5 6C10.1193 6 9 7.11929 9 8.5C9 9.88071 10.1193 11 11.5 11Z" stroke="black" stroke-width="1.5" stroke-linecap="round" stroke-linejoin="round"/>
<circle cx="19.5" cy="14.5" r="4.75" fill="white" stroke="black" stroke-width="1.5"/>
<line x1="19.5" y1="12.5" x2="19.5" y2="16.5" stroke="black" stroke-linecap="round"/>
<line x1="21.5" y1="14.5" x2="17.5" y2="14.5" stroke="black" stroke-linecap="round"/>
</svg>
