<svg xmlns="http://www.w3.org/2000/svg" viewBox="0 0 18.33 22"><defs><style>.cls-1{fill:#517bcc;}</style></defs><g id="Layer_2" data-name="Layer 2"><g id="Layer_1-2" data-name="Layer 1"><path class="cls-1" d="M15.33,22H3a3,3,0,0,1-3-3V3A3,3,0,0,1,3,0H15.33a3,3,0,0,1,3,3V19A3,3,0,0,1,15.33,22ZM3,1.75A1.25,1.25,0,0,0,1.75,3V19A1.25,1.25,0,0,0,3,20.25H15.33A1.25,1.25,0,0,0,16.58,19V3a1.25,1.25,0,0,0-1.25-1.25Z"/><path class="cls-1" d="M9.25,6H4.75a.75.75,0,0,1,0-1.5h4.5a.75.75,0,0,1,0,1.5Z"/><path class="cls-1" d="M13.25,10H4.75a.75.75,0,0,1,0-1.5h8.5a.75.75,0,0,1,0,1.5Z"/><path class="cls-1" d="M13.25,14H4.75a.75.75,0,0,1,0-1.5h8.5a.75.75,0,0,1,0,1.5Z"/><path class="cls-1" d="M13.25,18H8.75a.75.75,0,0,1,0-1.5h4.5a.75.75,0,0,1,0,1.5Z"/></g></g></svg>