<svg xmlns="http://www.w3.org/2000/svg" viewBox="0 0 20.63 22.63"><defs><style>.cls-1{fill:#517bcc;}</style></defs><g id="Layer_2" data-name="Layer 2"><g id="Layer_1-2" data-name="Layer 1"><path class="cls-1" d="M9.25,6H4.75a.75.75,0,0,1,0-1.5h4.5a.75.75,0,0,1,0,1.5Z"/><path class="cls-1" d="M13.25,10H4.75a.75.75,0,0,1,0-1.5h8.5a.75.75,0,0,1,0,1.5Z"/><circle class="cls-1" cx="10.5" cy="19.5" r="0.5"/><circle class="cls-1" cx="12.5" cy="19.5" r="0.5"/><path class="cls-1" d="M20.62,16.88a.56.56,0,0,0,0-.12s0,0,0,0l-2.07-4.3a1.4,1.4,0,0,0-.16-.26V3a3,3,0,0,0-3-3H3A3,3,0,0,0,0,3V19a3,3,0,0,0,3,3H7.85a.18.18,0,0,0,.05.07,1.8,1.8,0,0,0,1.3.56h9.6a1.77,1.77,0,0,0,1.3-.56,1.89,1.89,0,0,0,.53-1.32V17A.49.49,0,0,0,20.62,16.88Zm-3.47-4.16a.54.54,0,0,1,.22.25l1,2L19,16.38H9L10.64,13a.54.54,0,0,1,.22-.25.48.48,0,0,1,.29-.09h5.71A.52.52,0,0,1,17.15,12.72ZM1.75,19V3A1.26,1.26,0,0,1,3,1.75H15.34A1.26,1.26,0,0,1,16.59,3v8.38H11.15a1.84,1.84,0,0,0-1.64,1l-2.07,4.3a.5.5,0,0,0,0,.13.07.07,0,0,0,0,.05.28.28,0,0,0,0,.09v3.25H3A1.25,1.25,0,0,1,1.75,19Zm17.63,1.75a.65.65,0,0,1-.18.45.53.53,0,0,1-.4.18H9.2a.51.51,0,0,1-.39-.18.61.61,0,0,1-.18-.45V17.63H19.38Z"/><circle class="cls-1" cx="10.5" cy="19.5" r="0.5"/><circle class="cls-1" cx="12.5" cy="19.5" r="0.5"/></g></g></svg>