<svg width="26" height="22" viewBox="0 0 26 22" fill="none" xmlns="http://www.w3.org/2000/svg">
<path d="M19 21V18.6667C19 17.429 18.5259 16.242 17.682 15.3668C16.8381 14.4917 15.6935 14 14.5 14H5.5C4.30653 14 3.16193 14.4917 2.31802 15.3668C1.47411 16.242 1 17.429 1 18.6667V21" stroke="black" stroke-width="1.75" stroke-linecap="round" stroke-linejoin="round"/>
<path d="M9.5 10C11.9853 10 14 7.98528 14 5.5C14 3.01472 11.9853 1 9.5 1C7.01472 1 5 3.01472 5 5.5C5 7.98528 7.01472 10 9.5 10Z" stroke="black" stroke-width="1.75" stroke-linecap="round" stroke-linejoin="round"/>
<path d="M25 21V18.615C24.9993 17.5581 24.7044 16.5314 24.1614 15.6961C23.6184 14.8608 22.8581 14.2642 22 14" stroke="black" stroke-width="1.75" stroke-linecap="round" stroke-linejoin="round"/>
<path d="M17 1C18.1442 1.25583 19.1584 1.83694 19.8826 2.65172C20.6069 3.46649 21 4.46858 21 5.5C21 6.53142 20.6069 7.53351 19.8826 8.34828C19.1584 9.16306 18.1442 9.74417 17 10" stroke="black" stroke-width="1.75" stroke-linecap="round" stroke-linejoin="round"/>
</svg>
