<svg xmlns="http://www.w3.org/2000/svg" viewBox="0 0 25.75 21.75"><defs><style>.cls-1{fill:#969696;}</style></defs><g id="Layer_2" data-name="Layer 2"><g id="Layer_1-2" data-name="Layer 1"><path class="cls-1" d="M18.88,21.75a.87.87,0,0,1-.88-.87V18.54a3.86,3.86,0,0,0-1.07-2.69,3.53,3.53,0,0,0-2.55-1.1h-9a3.54,3.54,0,0,0-2.56,1.1,3.86,3.86,0,0,0-1.07,2.69v2.34a.88.88,0,0,1-1.75,0V18.54a5.65,5.65,0,0,1,1.56-3.91A5.38,5.38,0,0,1,5.38,13h9a5.37,5.37,0,0,1,3.81,1.63,5.65,5.65,0,0,1,1.56,3.91v2.34A.87.87,0,0,1,18.88,21.75Z"/><path class="cls-1" d="M9.38,10.75a5.38,5.38,0,1,1,5.37-5.37A5.38,5.38,0,0,1,9.38,10.75Zm0-9A3.63,3.63,0,1,0,13,5.38,3.64,3.64,0,0,0,9.38,1.75Z"/><path class="cls-1" d="M24.88,21.75a.87.87,0,0,1-.88-.87V18.49a4.52,4.52,0,0,0-.7-2.44,3.15,3.15,0,0,0-1.68-1.34A.87.87,0,1,1,22.13,13a4.9,4.9,0,0,1,2.64,2.05,6.31,6.31,0,0,1,1,3.4v2.39A.87.87,0,0,1,24.88,21.75Z"/><path class="cls-1" d="M16.87,10.75A.88.88,0,0,1,16.68,9,4.52,4.52,0,0,0,19.1,7.64,3.41,3.41,0,0,0,20,5.38a3.41,3.41,0,0,0-.9-2.27,4.52,4.52,0,0,0-2.42-1.38.88.88,0,0,1-.66-1A.89.89,0,0,1,17.07,0a6.42,6.42,0,0,1,3.34,1.92,5.19,5.19,0,0,1,1.34,3.44A5.14,5.14,0,0,1,20.41,8.8a6.36,6.36,0,0,1-3.34,1.93Z"/></g></g></svg>