<svg xmlns="http://www.w3.org/2000/svg" viewBox="0 0 18 21.87"><defs><style>.cls-1{fill:#517bcc;}</style></defs><g id="Layer_2" data-name="Layer 2"><g id="Layer_1-2" data-name="Layer 1"><path class="cls-1" d="M15.62,7.49a.91.91,0,0,1-.62.26.87.87,0,0,1-.62-.26L9.87,3V13.87a.88.88,0,1,1-1.75,0V3l-4.5,4.5A.87.87,0,0,1,2.38,6.26L8.27.38A.8.8,0,0,1,8.66.07l.12,0A.78.78,0,0,1,9,0a.88.88,0,0,1,.62.26l6,6A.87.87,0,0,1,15.62,7.49Z"/><path class="cls-1" d="M17.12,21.87H.88a.88.88,0,1,1,0-1.75H17.12a.88.88,0,1,1,0,1.75Z"/></g></g></svg>