<svg xmlns="http://www.w3.org/2000/svg" viewBox="0 0 22.75 16.75"><defs><style>.cls-1{fill:#517bcc;}</style></defs><g id="Layer_2" data-name="Layer 2"><g id="Layer_1-2" data-name="Layer 1"><path class="cls-1" d="M22.66,8c-.17-.33-4.15-8-11.28-8S.26,7.65.1,8a.85.85,0,0,0,0,.79c.16.33,4.14,8,11.28,8s11.11-7.65,11.28-8A.91.91,0,0,0,22.66,8ZM11.38,15c-5.21,0-8.62-5.14-9.5-6.62.87-1.49,4.27-6.63,9.5-6.63S20,6.89,20.87,8.38C20,9.86,16.58,15,11.38,15Z"/><path class="cls-1" d="M11.37,11.63a3.25,3.25,0,1,1,3.25-3.25A3.26,3.26,0,0,1,11.37,11.63Zm0-5a1.75,1.75,0,1,0,1.75,1.75A1.75,1.75,0,0,0,11.37,6.63Z"/></g></g></svg>