<svg width="13" height="15" viewBox="0 0 13 15" fill="none" xmlns="http://www.w3.org/2000/svg">
<path d="M12 6.31818C12 10.4545 6.5 14 6.5 14C6.5 14 1 10.4545 1 6.31818C1 4.90771 1.57946 3.55501 2.61091 2.55766C3.64236 1.56031 5.04131 1 6.5 1C7.95869 1 9.35764 1.56031 10.3891 2.55766C11.4205 3.55501 12 4.90771 12 6.31818Z" stroke="black" stroke-width="1.25" stroke-linecap="round" stroke-linejoin="round"/>
<path d="M6.5 8C7.32843 8 8 7.32843 8 6.5C8 5.67157 7.32843 5 6.5 5C5.67157 5 5 5.67157 5 6.5C5 7.32843 5.67157 8 6.5 8Z" stroke="black" stroke-width="1.25" stroke-linecap="round" stroke-linejoin="round"/>
</svg>
