<svg width="16" height="16" viewBox="0 0 16 16" fill="none" xmlns="http://www.w3.org/2000/svg">
<path d="M13.9996 11.9843V13.7908C14.0003 13.9585 13.9659 14.1245 13.8986 14.2781C13.8313 14.4318 13.7325 14.5697 13.6087 14.6831C13.4849 14.7965 13.3387 14.8828 13.1795 14.9365C13.0203 14.9903 12.8517 15.0102 12.6843 14.9951C10.8277 14.7938 9.04426 14.1606 7.47734 13.1465C6.01953 12.222 4.78356 10.9884 3.8572 9.53351C2.83752 7.96259 2.20294 6.17405 2.0049 4.31277C1.98982 4.14625 2.00965 3.97843 2.06312 3.81998C2.11659 3.66153 2.20254 3.51592 2.31548 3.39244C2.42843 3.26896 2.5659 3.1703 2.71915 3.10274C2.87239 3.03519 3.03805 3.00022 3.20558 3.00006H5.01565C5.30846 2.99718 5.59233 3.10067 5.81435 3.29122C6.03636 3.48178 6.18138 3.74641 6.22236 4.03578C6.29876 4.61389 6.44044 5.18152 6.64471 5.72785C6.72589 5.94338 6.74346 6.17761 6.69534 6.4028C6.64721 6.62799 6.53542 6.83469 6.3732 6.99841L5.60694 7.76315C6.46585 9.27069 7.71655 10.5189 9.22708 11.3761L9.99334 10.6114C10.1574 10.4495 10.3645 10.3379 10.5901 10.2899C10.8158 10.2419 11.0505 10.2594 11.2664 10.3404C11.8138 10.5443 12.3826 10.6857 12.9619 10.7619C13.2549 10.8032 13.5226 10.9505 13.714 11.1759C13.9053 11.4013 14.007 11.689 13.9996 11.9843Z" stroke="black" stroke-width="1.25" stroke-linecap="round" stroke-linejoin="round"/>
</svg>
