<svg width="12" height="14" viewBox="0 0 12 14" fill="none" xmlns="http://www.w3.org/2000/svg">
<path fill-rule="evenodd" clip-rule="evenodd" d="M6 3.09091C3.28878 3.09091 1.09091 5.28878 1.09091 8C1.09091 10.7112 3.28878 12.9091 6 12.9091C8.71122 12.9091 10.9091 10.7112 10.9091 8C10.9091 5.28878 8.71122 3.09091 6 3.09091ZM0 8C0 4.68629 2.68629 2 6 2C9.31371 2 12 4.68629 12 8C12 11.3137 9.31371 14 6 14C2.68629 14 0 11.3137 0 8Z" fill="black"/>
<path fill-rule="evenodd" clip-rule="evenodd" d="M6.00004 4.18213C6.30129 4.18213 6.5455 4.42634 6.5455 4.72758V7.6632L8.4258 8.60335C8.69524 8.73807 8.80445 9.06571 8.66973 9.33515C8.53501 9.6046 8.20737 9.71381 7.93793 9.57909L5.75611 8.48818C5.57132 8.39578 5.45459 8.20691 5.45459 8.00031V4.72758C5.45459 4.42634 5.6988 4.18213 6.00004 4.18213Z" fill="black"/>
<line x1="4.5" y1="0.5" x2="7.5" y2="0.5" stroke="black" stroke-linecap="round"/>
<line x1="6" y1="3" x2="6" y2="1" stroke="black" stroke-width="2"/>
<circle cx="10" cy="3" r="1" fill="black"/>
<circle cx="2" cy="3" r="1" fill="black"/>
</svg>
