<svg width="18" height="18" viewBox="0 0 18 18" fill="none" xmlns="http://www.w3.org/2000/svg">
<path d="M7.87489 12.3749C8.46584 12.3749 9.051 12.2585 9.59696 12.0323C10.1429 11.8062 10.639 11.4747 11.0569 11.0569C11.4747 10.639 11.8062 10.1429 12.0323 9.59696C12.2585 9.051 12.3749 8.46584 12.3749 7.87489C12.3749 7.28394 12.2585 6.69878 12.0323 6.15281C11.8062 5.60685 11.4747 5.11077 11.0569 4.69291C10.639 4.27504 10.1429 3.94358 9.59696 3.71743C9.051 3.49129 8.46584 3.37489 7.87489 3.37489C6.68142 3.37489 5.53682 3.84899 4.69291 4.69291C3.84899 5.53682 3.37489 6.68142 3.37489 7.87489C3.37489 9.06836 3.84899 10.213 4.69291 11.0569C5.53682 11.9008 6.68142 12.3749 7.87489 12.3749ZM12.6149 11.5544L15.2999 14.2394C15.3715 14.3086 15.4285 14.3914 15.4678 14.483C15.507 14.5745 15.5276 14.6729 15.5284 14.7725C15.5292 14.8721 15.5102 14.9708 15.4724 15.063C15.4346 15.1551 15.3789 15.2388 15.3084 15.3092C15.238 15.3796 15.1542 15.4352 15.062 15.4728C14.9698 15.5105 14.871 15.5294 14.7714 15.5284C14.6718 15.5275 14.5734 15.5068 14.482 15.4674C14.3905 15.428 14.3078 15.3708 14.2386 15.2991L11.5536 12.6141C10.348 13.55 8.83098 13.9913 7.31145 13.848C5.79192 13.7048 4.38409 12.9879 3.37455 11.8432C2.36501 10.6985 1.82965 9.2121 1.87746 7.68658C1.92526 6.16107 2.55264 4.71111 3.63187 3.63187C4.71111 2.55264 6.16107 1.92526 7.68658 1.87746C9.2121 1.82965 10.6985 2.36501 11.8432 3.37455C12.9879 4.38409 13.7048 5.79192 13.848 7.31145C13.9913 8.83098 13.55 10.348 12.6141 11.5536L12.6149 11.5544Z" fill="black"/>
</svg>
