<svg width="5" height="3" viewBox="0 0 5 3" fill="none" xmlns="http://www.w3.org/2000/svg">
<path d="M2.02327 0.136739L0.0999939 2.33471C-0.126982 2.59417 0.0574861 3 0.40196 3H4.24851C4.32561 3.00007 4.40109 2.97791 4.46591 2.93618C4.53074 2.89445 4.58216 2.83493 4.61402 2.76473C4.64588 2.69453 4.65684 2.61663 4.64557 2.54036C4.6343 2.4641 4.60128 2.3927 4.55048 2.33471L2.6272 0.13714C2.58956 0.0940666 2.54314 0.0595445 2.49106 0.035891C2.43898 0.0122375 2.38244 0 2.32524 0C2.26804 0 2.2115 0.0122375 2.15941 0.035891C2.10733 0.0595445 2.06091 0.0940666 2.02327 0.13714V0.136739Z" fill="#747474"/>
</svg>
