<svg width="5" height="3" viewBox="0 0 5 3" fill="none" xmlns="http://www.w3.org/2000/svg">
<path d="M2.62712 2.86326L4.5504 0.665287C4.77737 0.40583 4.5929 2.33281e-07 4.24843 2.02497e-07L0.401876 -1.41253e-07C0.324783 -6.61901e-05 0.249305 0.0220908 0.18448 0.0638178C0.119655 0.105545 0.0682328 0.165073 0.0363696 0.235274C0.00450634 0.305474 -0.00644661 0.383371 0.00482295 0.459636C0.016092 0.535902 0.0491058 0.607302 0.0999105 0.665287L2.02319 2.86286C2.06083 2.90593 2.10725 2.94046 2.15933 2.96411C2.21141 2.98776 2.26795 3 2.32515 3C2.38236 3 2.4389 2.98776 2.49098 2.96411C2.54306 2.94046 2.58948 2.90593 2.62712 2.86286L2.62712 2.86326Z" fill="#747474"/>
</svg>
